<?xml version="1.0"?>
<svg xmlns="http://www.w3.org/2000/svg"
xmlns:xlink="http://www.w3.org/1999/xlink" xmlns:cml="http://www.xml-cml.org/schema" width="266.014" height="113.061" x="0" y="0" font-family="sans-serif" stroke="rgb(0,0,0)" stroke-width="1"  stroke-linecap="round">
<rect x="0%" y="0%" width="100%" height="100%" stroke-width="0" fill="rgb(255,255,255)"  />
<polygon points="40 63.7155 164.252 47.931 165.007 55.8954 " stroke-width="1" fill="rgb(0,0,0)"  stroke="rgb(0,0,0)" />
<line x1="86.9" y1="51.4" x2="87.0" y2="53.0" stroke="rgb(0,0,0)"  stroke-width="1.0"/>
<line x1="102.4" y1="49.3" x2="102.7" y2="52.1" stroke="rgb(0,0,0)"  stroke-width="1.0"/>
<line x1="118.0" y1="47.1" x2="118.4" y2="51.2" stroke="rgb(0,0,0)"  stroke-width="1.0"/>
<line x1="133.6" y1="45.0" x2="134.1" y2="50.4" stroke="rgb(0,0,0)"  stroke-width="1.0"/>
<line x1="149.1" y1="42.8" x2="149.8" y2="49.5" stroke="rgb(0,0,0)"  stroke-width="1.0"/>
<line x1="164.7" y1="40.7" x2="165.5" y2="48.6" stroke="rgb(0,0,0)"  stroke-width="1.0"/>
<polygon points="56.444155 73.060950 49.100569 77.060950 49.100569 69.060950 " stroke-width="1.000000" fill="rgb(0,0,0)"  stroke="rgb(0,0,0)" />
<polygon points="52.827165 54.080598 49.100569 58.080598 49.100569 50.080598 " stroke-width="1.000000" fill="rgb(0,0,0)"  stroke="rgb(0,0,0)" />
<line x1="40.0" y1="63.7" x2="38.9" y2="61.8" stroke="rgb(0,0,0)"  stroke-width="1.0"/>
<line x1="58.5" y1="73.1" x2="56.4" y2="73.1" stroke="rgb(0,0,0)"  stroke-width="1.0"/>
<line x1="56.4" y1="73.1" x2="56.4" y2="67.1" stroke="rgb(0,0,0)"  stroke-width="1.0"/>
<line x1="43.4" y1="54.1" x2="58.5" y2="54.1" stroke="rgb(0,0,0)"  stroke-width="1.0"/>
<line x1="39.1" y1="65.4" x2="40.0" y2="63.7" stroke="rgb(0,0,0)"  stroke-width="1.0"/>
<line x1="67.4" y1="54.1" x2="66.3" y2="52.2" stroke="rgb(0,0,0)"  stroke-width="1.0"/>
<line x1="66.5" y1="74.7" x2="73.8" y2="61.8" stroke="rgb(0,0,0)"  stroke-width="1.0"/>
<line x1="54.4" y1="73.1" x2="56.4" y2="73.1" stroke="rgb(0,0,0)"  stroke-width="1.0"/>
<line x1="69.4" y1="54.1" x2="67.4" y2="54.1" stroke="rgb(0,0,0)"  stroke-width="1.0"/>
<text x="222.014174" y="54.100157" fill="rgb(12,12,255)"  stroke="rgb(12,12,255)" stroke-width="1" font-size="16" >NH</text>
<text x="246.014174" y="57.780157" fill="rgb(12,12,255)"  stroke="rgb(12,12,255)" stroke-width="1" font-size="13" >2</text>
<text x="209.211020" y="48.000000" fill="rgb(12,12,255)"  stroke="rgb(12,12,255)" stroke-width="1" font-size="16" >NH</text>
<text x="233.211020" y="51.680000" fill="rgb(12,12,255)"  stroke="rgb(12,12,255)" stroke-width="1" font-size="13" >2</text>
<text x="66.891600" y="71.426036" fill="rgb(12,12,255)"  stroke="rgb(12,12,255)" stroke-width="1" font-size="16" >NH</text>
<text x="39.483578" y="81.060950" fill="rgb(12,12,255)"  stroke="rgb(12,12,255)" stroke-width="1" font-size="16" >N</text>
<text x="39.483578" y="97.060950" fill="rgb(12,12,255)"  stroke="rgb(12,12,255)" stroke-width="1" font-size="16" >H</text>
<text x="39.483578" y="62.080598" fill="rgb(12,12,255)"  stroke="rgb(12,12,255)" stroke-width="1" font-size="16" >N</text>
<text x="39.483578" y="46.080598" fill="rgb(12,12,255)"  stroke="rgb(12,12,255)" stroke-width="1" font-size="16" >H</text>
<text x="61.408022" y="81.060950" fill="rgb(12,12,255)"  stroke="rgb(12,12,255)" stroke-width="1" font-size="16" >N</text>
<text x="61.408022" y="97.060950" fill="rgb(12,12,255)"  stroke="rgb(12,12,255)" stroke-width="1" font-size="16" >H</text>
<text x="50.444155" y="62.080598" fill="rgb(12,12,255)"  stroke="rgb(12,12,255)" stroke-width="1" font-size="16" >N</text>
<text font-size="18.000000" fill ="black" font-family="sans-serif"
x="10.000000" y="20.000000" ></text>
<title> - OBDepict</title>
</svg>
