<?xml version="1.0"?>
<svg xmlns="http://www.w3.org/2000/svg"
xmlns:xlink="http://www.w3.org/1999/xlink" xmlns:cml="http://www.xml-cml.org/schema" width="602.22" height="307.613" x="0" y="0" font-family="sans-serif" stroke="rgb(0,0,0)" stroke-width="1"  stroke-linecap="round">
<rect x="0%" y="0%" width="100%" height="100%" stroke-width="0" fill="rgb(255,255,255)"  />
<line x1="193.3" y1="213.5" x2="187.7" y2="187.1" stroke="rgb(0,0,0)"  stroke-width="1.0"/>
<line x1="212.0" y1="166.3" x2="210.9" y2="165.1" stroke="rgb(0,0,0)"  stroke-width="1.0"/>
<line x1="207.6" y1="171.0" x2="205.7" y2="168.9" stroke="rgb(0,0,0)"  stroke-width="1.0"/>
<line x1="203.3" y1="175.8" x2="200.5" y2="172.7" stroke="rgb(0,0,0)"  stroke-width="1.0"/>
<line x1="199.0" y1="180.5" x2="195.4" y2="176.5" stroke="rgb(0,0,0)"  stroke-width="1.0"/>
<line x1="194.7" y1="185.3" x2="190.2" y2="180.3" stroke="rgb(0,0,0)"  stroke-width="1.0"/>
<line x1="190.3" y1="190.1" x2="185.0" y2="184.1" stroke="rgb(0,0,0)"  stroke-width="1.0"/>
<polygon points="213.205081 120.533002 187.995600 110.597104 191.995600 103.668900 " stroke-width="1.000000" fill="rgb(0,0,0)"  stroke="rgb(0,0,0)" />
<polygon points="143.923048 120.533002 165.132529 103.668900 169.132529 110.597104 " stroke-width="1.000000" fill="rgb(0,0,0)"  stroke="rgb(0,0,0)" />
<polygon points="249.746899 104.263536 251.406342 77.217534 259.231523 78.880827 " stroke-width="1.000000" fill="rgb(0,0,0)"  stroke="rgb(0,0,0)" />
<line x1="281.8" y1="132.6" x2="281.9" y2="134.2" stroke="rgb(0,0,0)"  stroke-width="1.0"/>
<line x1="286.0" y1="131.5" x2="286.3" y2="134.4" stroke="rgb(0,0,0)"  stroke-width="1.0"/>
<line x1="290.2" y1="130.5" x2="290.6" y2="134.6" stroke="rgb(0,0,0)"  stroke-width="1.0"/>
<line x1="294.4" y1="129.4" x2="294.9" y2="134.8" stroke="rgb(0,0,0)"  stroke-width="1.0"/>
<line x1="298.5" y1="128.3" x2="299.3" y2="135.0" stroke="rgb(0,0,0)"  stroke-width="1.0"/>
<line x1="302.7" y1="127.2" x2="303.6" y2="135.2" stroke="rgb(0,0,0)"  stroke-width="1.0"/>
<polygon points="109.282032 100.533002 105.282032 73.733002 113.282032 73.733002 " stroke-width="1.000000" fill="rgb(0,0,0)"  stroke="rgb(0,0,0)" />
<line x1="69.6" y1="118.5" x2="70.4" y2="117.2" stroke="rgb(0,0,0)"  stroke-width="1.0"/>
<line x1="65.6" y1="117.0" x2="67.0" y2="114.5" stroke="rgb(0,0,0)"  stroke-width="1.0"/>
<line x1="61.5" y1="115.4" x2="63.6" y2="111.8" stroke="rgb(0,0,0)"  stroke-width="1.0"/>
<line x1="57.5" y1="113.8" x2="60.2" y2="109.1" stroke="rgb(0,0,0)"  stroke-width="1.0"/>
<line x1="53.5" y1="112.2" x2="56.8" y2="106.4" stroke="rgb(0,0,0)"  stroke-width="1.0"/>
<line x1="49.4" y1="110.6" x2="53.4" y2="103.7" stroke="rgb(0,0,0)"  stroke-width="1.0"/>
<polygon points="74.641016 160.533002 53.431535 177.397104 49.431535 170.468900 " stroke-width="1.000000" fill="rgb(0,0,0)"  stroke="rgb(0,0,0)" />
<polygon points="109.282032 180.533002 113.282032 220.533002 105.282032 220.533002 " stroke-width="1.000000" fill="rgb(0,0,0)"  stroke="rgb(0,0,0)" />
<line x1="109.3" y1="220.5" x2="85.9" y2="234.0" stroke="rgb(0,0,0)"  stroke-width="1.0"/>
<polygon points="498.927912 145.444316 525.675391 175.453855 519.203255 180.156137 " stroke-width="1.000000" fill="rgb(0,0,0)"  stroke="rgb(0,0,0)" />
<line x1="522.4" y1="177.8" x2="549.3" y2="175.0" stroke="rgb(0,0,0)"  stroke-width="1.0"/>
<line x1="430.4" y1="118.6" x2="430.2" y2="117.0" stroke="rgb(0,0,0)"  stroke-width="1.0"/>
<line x1="426.2" y1="119.7" x2="425.9" y2="116.8" stroke="rgb(0,0,0)"  stroke-width="1.0"/>
<line x1="422.0" y1="120.8" x2="421.6" y2="116.7" stroke="rgb(0,0,0)"  stroke-width="1.0"/>
<line x1="417.8" y1="121.9" x2="417.2" y2="116.5" stroke="rgb(0,0,0)"  stroke-width="1.0"/>
<line x1="413.6" y1="123.0" x2="412.9" y2="116.3" stroke="rgb(0,0,0)"  stroke-width="1.0"/>
<line x1="409.4" y1="124.0" x2="408.6" y2="116.1" stroke="rgb(0,0,0)"  stroke-width="1.0"/>
<line x1="448.1" y1="76.9" x2="449.4" y2="75.9" stroke="rgb(0,0,0)"  stroke-width="1.0"/>
<line x1="445.1" y1="73.8" x2="447.4" y2="72.1" stroke="rgb(0,0,0)"  stroke-width="1.0"/>
<line x1="442.0" y1="70.7" x2="445.4" y2="68.2" stroke="rgb(0,0,0)"  stroke-width="1.0"/>
<line x1="439.0" y1="67.6" x2="443.4" y2="64.4" stroke="rgb(0,0,0)"  stroke-width="1.0"/>
<line x1="436.0" y1="64.5" x2="441.4" y2="60.5" stroke="rgb(0,0,0)"  stroke-width="1.0"/>
<line x1="432.9" y1="61.4" x2="439.4" y2="56.7" stroke="rgb(0,0,0)"  stroke-width="1.0"/>
<polygon points="491.685968 76.541818 498.932328 50.431853 506.240692 53.685747 " stroke-width="1.000000" fill="rgb(0,0,0)"  stroke="rgb(0,0,0)" />
<line x1="520.4" y1="107.5" x2="520.6" y2="109.1" stroke="rgb(0,0,0)"  stroke-width="1.0"/>
<line x1="524.6" y1="106.5" x2="524.9" y2="109.3" stroke="rgb(0,0,0)"  stroke-width="1.0"/>
<line x1="528.8" y1="105.4" x2="529.3" y2="109.5" stroke="rgb(0,0,0)"  stroke-width="1.0"/>
<line x1="533.0" y1="104.3" x2="533.6" y2="109.7" stroke="rgb(0,0,0)"  stroke-width="1.0"/>
<line x1="537.2" y1="103.2" x2="537.9" y2="109.9" stroke="rgb(0,0,0)"  stroke-width="1.0"/>
<line x1="541.4" y1="102.1" x2="542.3" y2="110.1" stroke="rgb(0,0,0)"  stroke-width="1.0"/>
<polygon points="347.046354 231.071369 339.799993 257.181333 332.491630 253.927440 " stroke-width="1.000000" fill="rgb(0,0,0)"  stroke="rgb(0,0,0)" />
<polygon points="403.096695 190.348412 429.331768 183.568961 430.167996 191.525137 " stroke-width="1.000000" fill="rgb(0,0,0)"  stroke="rgb(0,0,0)" />
<line x1="381.0" y1="152.8" x2="382.5" y2="153.4" stroke="rgb(0,0,0)"  stroke-width="1.0"/>
<line x1="382.2" y1="148.6" x2="384.8" y2="149.8" stroke="rgb(0,0,0)"  stroke-width="1.0"/>
<line x1="383.4" y1="144.4" x2="387.2" y2="146.1" stroke="rgb(0,0,0)"  stroke-width="1.0"/>
<line x1="384.5" y1="140.2" x2="389.5" y2="142.4" stroke="rgb(0,0,0)"  stroke-width="1.0"/>
<line x1="385.7" y1="136.1" x2="391.8" y2="138.8" stroke="rgb(0,0,0)"  stroke-width="1.0"/>
<line x1="386.8" y1="131.9" x2="394.1" y2="135.1" stroke="rgb(0,0,0)"  stroke-width="1.0"/>
<polygon points="339.804409 162.168871 320.815696 142.838356 327.287832 138.136074 " stroke-width="1.000000" fill="rgb(0,0,0)"  stroke="rgb(0,0,0)" />
<line x1="318.3" y1="200.1" x2="318.1" y2="198.5" stroke="rgb(0,0,0)"  stroke-width="1.0"/>
<line x1="314.1" y1="201.2" x2="313.8" y2="198.3" stroke="rgb(0,0,0)"  stroke-width="1.0"/>
<line x1="309.9" y1="202.2" x2="309.5" y2="198.1" stroke="rgb(0,0,0)"  stroke-width="1.0"/>
<line x1="305.7" y1="203.3" x2="305.1" y2="197.9" stroke="rgb(0,0,0)"  stroke-width="1.0"/>
<line x1="301.5" y1="204.4" x2="300.8" y2="197.7" stroke="rgb(0,0,0)"  stroke-width="1.0"/>
<line x1="297.3" y1="205.5" x2="296.5" y2="197.5" stroke="rgb(0,0,0)"  stroke-width="1.0"/>
<line x1="217.4" y1="160.3" x2="213.2" y2="120.5" stroke="rgb(0,0,0)"  stroke-width="1.0"/>
<line x1="213.2" y1="120.5" x2="249.7" y2="104.3" stroke="rgb(0,0,0)"  stroke-width="1.0"/>
<line x1="249.7" y1="104.3" x2="276.5" y2="134.0" stroke="rgb(0,0,0)"  stroke-width="1.0"/>
<line x1="276.5" y1="134.0" x2="263.0" y2="157.4" stroke="rgb(0,0,0)"  stroke-width="1.0"/>
<line x1="243.8" y1="165.9" x2="217.4" y2="160.3" stroke="rgb(0,0,0)"  stroke-width="1.0"/>
<line x1="143.9" y1="120.5" x2="109.3" y2="100.5" stroke="rgb(0,0,0)"  stroke-width="1.0"/>
<line x1="109.3" y1="100.5" x2="74.6" y2="120.5" stroke="rgb(0,0,0)"  stroke-width="1.0"/>
<line x1="74.6" y1="120.5" x2="74.6" y2="160.5" stroke="rgb(0,0,0)"  stroke-width="1.0"/>
<line x1="74.6" y1="160.5" x2="109.3" y2="180.5" stroke="rgb(0,0,0)"  stroke-width="1.0"/>
<line x1="109.3" y1="180.5" x2="132.7" y2="167.0" stroke="rgb(0,0,0)"  stroke-width="1.0"/>
<line x1="143.9" y1="147.5" x2="143.9" y2="120.5" stroke="rgb(0,0,0)"  stroke-width="1.0"/>
<line x1="435.6" y1="117.3" x2="451.9" y2="80.7" stroke="rgb(0,0,0)"  stroke-width="1.0"/>
<line x1="451.9" y1="80.7" x2="491.7" y2="76.5" stroke="rgb(0,0,0)"  stroke-width="1.0"/>
<line x1="491.7" y1="76.5" x2="515.2" y2="108.9" stroke="rgb(0,0,0)"  stroke-width="1.0"/>
<line x1="515.2" y1="108.9" x2="498.9" y2="145.4" stroke="rgb(0,0,0)"  stroke-width="1.0"/>
<line x1="498.9" y1="145.4" x2="472.1" y2="148.3" stroke="rgb(0,0,0)"  stroke-width="1.0"/>
<line x1="451.5" y1="139.1" x2="435.6" y2="117.3" stroke="rgb(0,0,0)"  stroke-width="1.0"/>
<line x1="403.1" y1="190.3" x2="379.6" y2="158.0" stroke="rgb(0,0,0)"  stroke-width="1.0"/>
<line x1="379.6" y1="158.0" x2="339.8" y2="162.2" stroke="rgb(0,0,0)"  stroke-width="1.0"/>
<line x1="339.8" y1="162.2" x2="323.5" y2="198.7" stroke="rgb(0,0,0)"  stroke-width="1.0"/>
<line x1="323.5" y1="198.7" x2="347.0" y2="231.1" stroke="rgb(0,0,0)"  stroke-width="1.0"/>
<line x1="347.0" y1="231.1" x2="386.8" y2="226.9" stroke="rgb(0,0,0)"  stroke-width="1.0"/>
<line x1="386.8" y1="226.9" x2="403.1" y2="190.3" stroke="rgb(0,0,0)"  stroke-width="1.0"/>
<text x="189.976894" y="234.205006" fill="rgb(255,12,12)"  stroke="rgb(255,12,12)" stroke-width="1" font-size="16" >OH</text>
<text x="250.512123" y="176.630345" fill="rgb(255,12,12)"  stroke="rgb(255,12,12)" stroke-width="1" font-size="16" >O</text>
<text x="172.564065" y="108.533002" fill="rgb(255,12,12)"  stroke="rgb(255,12,12)" stroke-width="1" font-size="16" >O</text>
<text x="252.063367" y="73.137632" fill="rgb(255,12,12)"  stroke="rgb(255,12,12)" stroke-width="1" font-size="16" >OH</text>
<text x="114.082032" y="56.501002" fill="rgb(12,12,255)"  stroke="rgb(12,12,255)" stroke-width="1" font-size="16" >+</text>
<text x="105.282032" y="68.533002" fill="rgb(12,12,255)"  stroke="rgb(12,12,255)" stroke-width="1" font-size="16" >NH</text>
<text x="129.282032" y="72.213002" fill="rgb(12,12,255)"  stroke="rgb(12,12,255)" stroke-width="1" font-size="13" >3</text>
<text x="22.000000" y="108.533002" fill="rgb(255,12,12)"  stroke="rgb(255,12,12)" stroke-width="1" font-size="16" >HO</text>
<text x="22.000000" y="188.533002" fill="rgb(255,12,12)"  stroke="rgb(255,12,12)" stroke-width="1" font-size="16" >HO</text>
<text x="137.923048" y="168.533002" fill="rgb(255,12,12)"  stroke="rgb(255,12,12)" stroke-width="1" font-size="16" >O</text>
<text x="79.441016" y="236.501002" fill="rgb(12,12,255)"  stroke="rgb(12,12,255)" stroke-width="1" font-size="16" >+</text>
<text x="48.641016" y="248.533002" fill="rgb(12,12,255)"  stroke="rgb(12,12,255)" stroke-width="1" font-size="16" >H</text>
<text x="60.641016" y="252.213002" fill="rgb(12,12,255)"  stroke="rgb(12,12,255)" stroke-width="1" font-size="13" >3</text>
<text x="67.141016" y="248.533002" fill="rgb(12,12,255)"  stroke="rgb(12,12,255)" stroke-width="1" font-size="16" >N</text>
<text x="433.193682" y="44.330277" fill="rgb(12,12,255)"  stroke="rgb(12,12,255)" stroke-width="1" font-size="16" >+</text>
<text x="402.393682" y="56.362277" fill="rgb(12,12,255)"  stroke="rgb(12,12,255)" stroke-width="1" font-size="16" >H</text>
<text x="414.393682" y="60.042277" fill="rgb(12,12,255)"  stroke="rgb(12,12,255)" stroke-width="1" font-size="13" >3</text>
<text x="420.893682" y="56.362277" fill="rgb(12,12,255)"  stroke="rgb(12,12,255)" stroke-width="1" font-size="16" >N</text>
<text x="501.955434" y="48.000000" fill="rgb(255,12,12)"  stroke="rgb(255,12,12)" stroke-width="1" font-size="16" >OH</text>
<text x="548.978254" y="112.721360" fill="rgb(255,12,12)"  stroke="rgb(255,12,12)" stroke-width="1" font-size="16" >OH</text>
<text x="567.020198" y="169.591858" fill="rgb(12,12,255)"  stroke="rgb(12,12,255)" stroke-width="1" font-size="16" >+</text>
<text x="558.220198" y="181.623858" fill="rgb(12,12,255)"  stroke="rgb(12,12,255)" stroke-width="1" font-size="16" >NH</text>
<text x="582.220198" y="185.303858" fill="rgb(12,12,255)"  stroke="rgb(12,12,255)" stroke-width="1" font-size="13" >3</text>
<text x="453.147037" y="157.625455" fill="rgb(255,12,12)"  stroke="rgb(255,12,12)" stroke-width="1" font-size="16" >O</text>
<text x="335.576888" y="263.581187" fill="rgb(12,12,255)"  stroke="rgb(12,12,255)" stroke-width="1" font-size="16" >+</text>
<text x="304.776888" y="275.613187" fill="rgb(12,12,255)"  stroke="rgb(12,12,255)" stroke-width="1" font-size="16" >H</text>
<text x="316.776888" y="279.293187" fill="rgb(12,12,255)"  stroke="rgb(12,12,255)" stroke-width="1" font-size="13" >3</text>
<text x="323.276888" y="275.613187" fill="rgb(12,12,255)"  stroke="rgb(12,12,255)" stroke-width="1" font-size="16" >N</text>
<text x="447.677571" y="182.135273" fill="rgb(12,12,255)"  stroke="rgb(12,12,255)" stroke-width="1" font-size="16" >+</text>
<text x="438.877571" y="194.167273" fill="rgb(12,12,255)"  stroke="rgb(12,12,255)" stroke-width="1" font-size="16" >NH</text>
<text x="462.877571" y="197.847273" fill="rgb(12,12,255)"  stroke="rgb(12,12,255)" stroke-width="1" font-size="13" >3</text>
<text x="389.854751" y="129.445914" fill="rgb(255,12,12)"  stroke="rgb(255,12,12)" stroke-width="1" font-size="16" >O</text>
<text x="310.292999" y="137.808191" fill="rgb(255,12,12)"  stroke="rgb(255,12,12)" stroke-width="1" font-size="16" >O</text>
<text x="265.754068" y="210.891827" fill="rgb(255,12,12)"  stroke="rgb(255,12,12)" stroke-width="1" font-size="16" >HO</text>
<text font-size="18.000000" fill ="black" font-family="sans-serif"
x="10.000000" y="20.000000" ></text>
<title> - OBDepict</title>
</svg>
