<?xml version="1.0"?>
<svg xmlns="http://www.w3.org/2000/svg"
xmlns:xlink="http://www.w3.org/1999/xlink" xmlns:cml="http://www.xml-cml.org/schema" width="564.974" height="320" x="0" y="0" font-family="sans-serif" stroke="rgb(0,0,0)" stroke-width="1"  stroke-linecap="round">
<rect x="0%" y="0%" width="100%" height="100%" stroke-width="0" fill="rgb(255,255,255)"  />
<line x1="356.8" y1="222.0" x2="356.0" y2="223.4" stroke="rgb(0,0,0)"  stroke-width="1.0"/>
<line x1="360.8" y1="223.6" x2="359.4" y2="226.1" stroke="rgb(0,0,0)"  stroke-width="1.0"/>
<line x1="364.9" y1="225.2" x2="362.8" y2="228.8" stroke="rgb(0,0,0)"  stroke-width="1.0"/>
<line x1="368.9" y1="226.8" x2="366.2" y2="231.5" stroke="rgb(0,0,0)"  stroke-width="1.0"/>
<line x1="372.9" y1="228.3" x2="369.6" y2="234.2" stroke="rgb(0,0,0)"  stroke-width="1.0"/>
<line x1="377.0" y1="229.9" x2="373.0" y2="236.9" stroke="rgb(0,0,0)"  stroke-width="1.0"/>
<line x1="317.9" y1="245.4" x2="316.3" y2="245.4" stroke="rgb(0,0,0)"  stroke-width="1.0"/>
<line x1="318.6" y1="249.6" x2="315.7" y2="249.6" stroke="rgb(0,0,0)"  stroke-width="1.0"/>
<line x1="319.2" y1="253.9" x2="315.0" y2="253.9" stroke="rgb(0,0,0)"  stroke-width="1.0"/>
<line x1="319.8" y1="258.2" x2="314.4" y2="258.2" stroke="rgb(0,0,0)"  stroke-width="1.0"/>
<line x1="320.5" y1="262.5" x2="313.8" y2="262.5" stroke="rgb(0,0,0)"  stroke-width="1.0"/>
<line x1="321.1" y1="266.8" x2="313.1" y2="266.8" stroke="rgb(0,0,0)"  stroke-width="1.0"/>
<line x1="283.3" y1="188.0" x2="281.7" y2="188.0" stroke="rgb(0,0,0)"  stroke-width="1.0"/>
<line x1="283.9" y1="194.4" x2="281.0" y2="194.4" stroke="rgb(0,0,0)"  stroke-width="1.0"/>
<line x1="284.6" y1="200.8" x2="280.4" y2="200.8" stroke="rgb(0,0,0)"  stroke-width="1.0"/>
<line x1="285.2" y1="207.2" x2="279.8" y2="207.2" stroke="rgb(0,0,0)"  stroke-width="1.0"/>
<line x1="285.8" y1="213.6" x2="279.1" y2="213.6" stroke="rgb(0,0,0)"  stroke-width="1.0"/>
<line x1="286.5" y1="220.0" x2="278.5" y2="220.0" stroke="rgb(0,0,0)"  stroke-width="1.0"/>
<polygon points="317.128129 160.000000 342.337610 169.935898 338.337610 176.864102 " stroke-width="1.000000" fill="rgb(0,0,0)"  stroke="rgb(0,0,0)" />
<polygon points="317.128129 120.000000 338.337610 103.135898 342.337610 110.064102 " stroke-width="1.000000" fill="rgb(0,0,0)"  stroke="rgb(0,0,0)" />
<polygon points="282.487113 100.000000 278.487113 73.200000 286.487113 73.200000 " stroke-width="1.000000" fill="rgb(0,0,0)"  stroke="rgb(0,0,0)" />
<line x1="242.8" y1="118.0" x2="243.6" y2="116.6" stroke="rgb(0,0,0)"  stroke-width="1.0"/>
<line x1="238.8" y1="116.4" x2="240.2" y2="113.9" stroke="rgb(0,0,0)"  stroke-width="1.0"/>
<line x1="234.7" y1="114.8" x2="236.8" y2="111.2" stroke="rgb(0,0,0)"  stroke-width="1.0"/>
<line x1="230.7" y1="113.2" x2="233.4" y2="108.5" stroke="rgb(0,0,0)"  stroke-width="1.0"/>
<line x1="226.7" y1="111.7" x2="230.0" y2="105.8" stroke="rgb(0,0,0)"  stroke-width="1.0"/>
<line x1="222.6" y1="110.1" x2="226.6" y2="103.1" stroke="rgb(0,0,0)"  stroke-width="1.0"/>
<line x1="305.9" y1="46.5" x2="293.7" y2="53.5" stroke="rgb(0,0,0)"  stroke-width="1.0"/>
<line x1="416.8" y1="223.4" x2="416.0" y2="222.0" stroke="rgb(0,0,0)"  stroke-width="1.0"/>
<line x1="413.4" y1="226.1" x2="412.0" y2="223.6" stroke="rgb(0,0,0)"  stroke-width="1.0"/>
<line x1="410.0" y1="228.8" x2="407.9" y2="225.2" stroke="rgb(0,0,0)"  stroke-width="1.0"/>
<line x1="406.6" y1="231.5" x2="403.9" y2="226.8" stroke="rgb(0,0,0)"  stroke-width="1.0"/>
<line x1="403.2" y1="234.2" x2="399.9" y2="228.3" stroke="rgb(0,0,0)"  stroke-width="1.0"/>
<line x1="399.8" y1="236.9" x2="395.8" y2="229.9" stroke="rgb(0,0,0)"  stroke-width="1.0"/>
<line x1="182.8" y1="116.6" x2="183.6" y2="118.0" stroke="rgb(0,0,0)"  stroke-width="1.0"/>
<line x1="186.2" y1="113.9" x2="187.6" y2="116.4" stroke="rgb(0,0,0)"  stroke-width="1.0"/>
<line x1="189.6" y1="111.2" x2="191.7" y2="114.8" stroke="rgb(0,0,0)"  stroke-width="1.0"/>
<line x1="193.0" y1="108.5" x2="195.7" y2="113.2" stroke="rgb(0,0,0)"  stroke-width="1.0"/>
<line x1="196.4" y1="105.8" x2="199.7" y2="111.7" stroke="rgb(0,0,0)"  stroke-width="1.0"/>
<line x1="199.8" y1="103.1" x2="203.8" y2="110.1" stroke="rgb(0,0,0)"  stroke-width="1.0"/>
<line x1="183.6" y1="162.0" x2="182.8" y2="163.4" stroke="rgb(0,0,0)"  stroke-width="1.0"/>
<line x1="187.6" y1="163.6" x2="186.2" y2="166.1" stroke="rgb(0,0,0)"  stroke-width="1.0"/>
<line x1="191.7" y1="165.2" x2="189.6" y2="168.8" stroke="rgb(0,0,0)"  stroke-width="1.0"/>
<line x1="195.7" y1="166.8" x2="193.0" y2="171.5" stroke="rgb(0,0,0)"  stroke-width="1.0"/>
<line x1="199.7" y1="168.3" x2="196.4" y2="174.2" stroke="rgb(0,0,0)"  stroke-width="1.0"/>
<line x1="203.8" y1="169.9" x2="199.8" y2="176.9" stroke="rgb(0,0,0)"  stroke-width="1.0"/>
<polygon points="143.923048 180.000000 147.923048 206.800000 139.923048 206.800000 " stroke-width="1.000000" fill="rgb(0,0,0)"  stroke="rgb(0,0,0)" />
<line x1="105.0" y1="163.4" x2="104.2" y2="162.0" stroke="rgb(0,0,0)"  stroke-width="1.0"/>
<line x1="101.6" y1="166.1" x2="100.2" y2="163.6" stroke="rgb(0,0,0)"  stroke-width="1.0"/>
<line x1="98.3" y1="168.8" x2="96.2" y2="165.2" stroke="rgb(0,0,0)"  stroke-width="1.0"/>
<line x1="94.9" y1="171.5" x2="92.1" y2="166.8" stroke="rgb(0,0,0)"  stroke-width="1.0"/>
<line x1="91.5" y1="174.2" x2="88.1" y2="168.3" stroke="rgb(0,0,0)"  stroke-width="1.0"/>
<line x1="88.1" y1="176.9" x2="84.1" y2="169.9" stroke="rgb(0,0,0)"  stroke-width="1.0"/>
<polygon points="109.282032 120.000000 72.641016 103.464102 76.641016 96.535898 " stroke-width="1.000000" fill="rgb(0,0,0)"  stroke="rgb(0,0,0)" />
<line x1="74.6" y1="100.0" x2="51.3" y2="113.5" stroke="rgb(0,0,0)"  stroke-width="1.0"/>
<polygon points="455.692194 240.000000 459.692194 266.800000 451.692194 266.800000 " stroke-width="1.000000" fill="rgb(0,0,0)"  stroke="rgb(0,0,0)" />
<line x1="495.4" y1="222.0" x2="494.6" y2="223.4" stroke="rgb(0,0,0)"  stroke-width="1.0"/>
<line x1="499.4" y1="223.6" x2="498.0" y2="226.1" stroke="rgb(0,0,0)"  stroke-width="1.0"/>
<line x1="503.4" y1="225.2" x2="501.4" y2="228.8" stroke="rgb(0,0,0)"  stroke-width="1.0"/>
<line x1="507.5" y1="226.8" x2="504.8" y2="231.5" stroke="rgb(0,0,0)"  stroke-width="1.0"/>
<line x1="511.5" y1="228.3" x2="508.1" y2="234.2" stroke="rgb(0,0,0)"  stroke-width="1.0"/>
<line x1="515.5" y1="229.9" x2="511.5" y2="236.9" stroke="rgb(0,0,0)"  stroke-width="1.0"/>
<polygon points="490.333210 180.000000 511.542691 163.135898 515.542691 170.064102 " stroke-width="1.000000" fill="rgb(0,0,0)"  stroke="rgb(0,0,0)" />
<polygon points="421.051178 180.000000 395.841697 170.064102 399.841697 163.135898 " stroke-width="1.000000" fill="rgb(0,0,0)"  stroke="rgb(0,0,0)" />
<line x1="351.8" y1="220.0" x2="317.1" y2="240.0" stroke="rgb(0,0,0)"  stroke-width="1.0"/>
<line x1="317.1" y1="240.0" x2="282.5" y2="220.0" stroke="rgb(0,0,0)"  stroke-width="1.0"/>
<line x1="282.5" y1="220.0" x2="282.5" y2="180.0" stroke="rgb(0,0,0)"  stroke-width="1.0"/>
<line x1="282.5" y1="180.0" x2="317.1" y2="160.0" stroke="rgb(0,0,0)"  stroke-width="1.0"/>
<line x1="317.1" y1="160.0" x2="340.5" y2="173.5" stroke="rgb(0,0,0)"  stroke-width="1.0"/>
<line x1="351.8" y1="193.0" x2="351.8" y2="220.0" stroke="rgb(0,0,0)"  stroke-width="1.0"/>
<line x1="317.1" y1="120.0" x2="282.5" y2="100.0" stroke="rgb(0,0,0)"  stroke-width="1.0"/>
<line x1="282.5" y1="100.0" x2="247.8" y2="120.0" stroke="rgb(0,0,0)"  stroke-width="1.0"/>
<line x1="247.8" y1="120.0" x2="247.8" y2="147.0" stroke="rgb(0,0,0)"  stroke-width="1.0"/>
<line x1="259.1" y1="166.5" x2="282.5" y2="180.0" stroke="rgb(0,0,0)"  stroke-width="1.0"/>
<line x1="317.1" y1="160.0" x2="317.1" y2="120.0" stroke="rgb(0,0,0)"  stroke-width="1.0"/>
<line x1="178.6" y1="120.0" x2="178.6" y2="160.0" stroke="rgb(0,0,0)"  stroke-width="1.0"/>
<line x1="178.6" y1="160.0" x2="143.9" y2="180.0" stroke="rgb(0,0,0)"  stroke-width="1.0"/>
<line x1="143.9" y1="180.0" x2="109.3" y2="160.0" stroke="rgb(0,0,0)"  stroke-width="1.0"/>
<line x1="109.3" y1="160.0" x2="109.3" y2="120.0" stroke="rgb(0,0,0)"  stroke-width="1.0"/>
<line x1="109.3" y1="120.0" x2="132.7" y2="106.5" stroke="rgb(0,0,0)"  stroke-width="1.0"/>
<line x1="155.2" y1="106.5" x2="178.6" y2="120.0" stroke="rgb(0,0,0)"  stroke-width="1.0"/>
<line x1="421.1" y1="220.0" x2="455.7" y2="240.0" stroke="rgb(0,0,0)"  stroke-width="1.0"/>
<line x1="455.7" y1="240.0" x2="490.3" y2="220.0" stroke="rgb(0,0,0)"  stroke-width="1.0"/>
<line x1="490.3" y1="220.0" x2="490.3" y2="180.0" stroke="rgb(0,0,0)"  stroke-width="1.0"/>
<line x1="490.3" y1="180.0" x2="455.7" y2="160.0" stroke="rgb(0,0,0)"  stroke-width="1.0"/>
<line x1="455.7" y1="160.0" x2="421.1" y2="180.0" stroke="rgb(0,0,0)"  stroke-width="1.0"/>
<line x1="421.1" y1="180.0" x2="421.1" y2="220.0" stroke="rgb(0,0,0)"  stroke-width="1.0"/>
<text x="313.128129" y="48.000000" fill="rgb(102,102,102)"  stroke="rgb(102,102,102)" stroke-width="1" font-size="16" >CH</text>
<text x="337.128129" y="51.680000" fill="rgb(102,102,102)"  stroke="rgb(102,102,102)" stroke-width="1" font-size="13" >3</text>
<text x="313.128129" y="288.000000" fill="rgb(12,12,255)"  stroke="rgb(12,12,255)" stroke-width="1" font-size="16" >NH</text>
<text x="337.128129" y="291.680000" fill="rgb(12,12,255)"  stroke="rgb(12,12,255)" stroke-width="1" font-size="13" >2</text>
<text x="264.487113" y="68.000000" fill="rgb(12,12,255)"  stroke="rgb(12,12,255)" stroke-width="1" font-size="16" >HN</text>
<text x="380.410162" y="248.000000" fill="rgb(255,12,12)"  stroke="rgb(255,12,12)" stroke-width="1" font-size="16" >O</text>
<text x="345.769145" y="188.000000" fill="rgb(255,12,12)"  stroke="rgb(255,12,12)" stroke-width="1" font-size="16" >O</text>
<text x="241.846097" y="168.000000" fill="rgb(255,12,12)"  stroke="rgb(255,12,12)" stroke-width="1" font-size="16" >O</text>
<text x="345.769145" y="108.000000" fill="rgb(255,12,12)"  stroke="rgb(255,12,12)" stroke-width="1" font-size="16" >OH</text>
<text x="207.205081" y="108.000000" fill="rgb(255,12,12)"  stroke="rgb(255,12,12)" stroke-width="1" font-size="16" >O</text>
<text x="48.641016" y="188.000000" fill="rgb(12,12,255)"  stroke="rgb(12,12,255)" stroke-width="1" font-size="16" >H</text>
<text x="60.641016" y="191.680000" fill="rgb(12,12,255)"  stroke="rgb(12,12,255)" stroke-width="1" font-size="13" >2</text>
<text x="67.141016" y="188.000000" fill="rgb(12,12,255)"  stroke="rgb(12,12,255)" stroke-width="1" font-size="16" >N</text>
<text x="137.923048" y="108.000000" fill="rgb(255,12,12)"  stroke="rgb(255,12,12)" stroke-width="1" font-size="16" >O</text>
<text x="207.205081" y="188.000000" fill="rgb(255,12,12)"  stroke="rgb(255,12,12)" stroke-width="1" font-size="16" >OH</text>
<text x="137.923048" y="228.000000" fill="rgb(255,12,12)"  stroke="rgb(255,12,12)" stroke-width="1" font-size="16" >OH</text>
<text x="22.000000" y="128.000000" fill="rgb(255,12,12)"  stroke="rgb(255,12,12)" stroke-width="1" font-size="16" >HO</text>
<text x="520.974226" y="168.000000" fill="rgb(12,12,255)"  stroke="rgb(12,12,255)" stroke-width="1" font-size="16" >NH</text>
<text x="544.974226" y="171.680000" fill="rgb(12,12,255)"  stroke="rgb(12,12,255)" stroke-width="1" font-size="13" >2</text>
<text x="360.410162" y="168.000000" fill="rgb(12,12,255)"  stroke="rgb(12,12,255)" stroke-width="1" font-size="16" >H</text>
<text x="372.410162" y="171.680000" fill="rgb(12,12,255)"  stroke="rgb(12,12,255)" stroke-width="1" font-size="13" >2</text>
<text x="378.910162" y="168.000000" fill="rgb(12,12,255)"  stroke="rgb(12,12,255)" stroke-width="1" font-size="16" >N</text>
<text x="449.692194" y="288.000000" fill="rgb(255,12,12)"  stroke="rgb(255,12,12)" stroke-width="1" font-size="16" >OH</text>
<text x="518.974226" y="248.000000" fill="rgb(255,12,12)"  stroke="rgb(255,12,12)" stroke-width="1" font-size="16" >OH</text>
<text font-size="18.000000" fill ="black" font-family="sans-serif"
x="10.000000" y="20.000000" ></text>
<title> - OBDepict</title>
</svg>
