<?xml version="1.0"?>
<svg xmlns="http://www.w3.org/2000/svg"
xmlns:xlink="http://www.w3.org/1999/xlink" xmlns:cml="http://www.xml-cml.org/schema" width="259.047" height="287.897" x="0" y="0" font-family="sans-serif" stroke="rgb(0,0,0)" stroke-width="1"  stroke-linecap="round">
<rect x="0%" y="0%" width="100%" height="100%" stroke-width="0" fill="rgb(255,255,255)"  />
<polygon points="167.561 180.129 140.515 178.469 142.178 170.644 " stroke-width="1" fill="rgb(0,0,0)"  stroke="rgb(0,0,0)" />
<line x1="167.6" y1="180.1" x2="179.9" y2="218.2" stroke="rgb(0,0,0)"  stroke-width="1.0"/>
<line x1="167.6" y1="180.1" x2="194.3" y2="150.4" stroke="rgb(0,0,0)"  stroke-width="1.0"/>
<line x1="179.9" y1="218.2" x2="161.9" y2="238.2" stroke="rgb(0,0,0)"  stroke-width="1.0"/>
<line x1="179.9" y1="218.2" x2="206.3" y2="223.8" stroke="rgb(0,0,0)"  stroke-width="1.0"/>
<line x1="194.3" y1="150.4" x2="182.0" y2="112.4" stroke="rgb(0,0,0)"  stroke-width="1.0"/>
<line x1="51.3" y1="113.5" x2="74.6" y2="100.0" stroke="rgb(0,0,0)"  stroke-width="1.0"/>
<line x1="182.0" y1="112.4" x2="143.9" y2="100.0" stroke="rgb(0,0,0)"  stroke-width="1.0"/>
<line x1="143.9" y1="100.0" x2="143.9" y2="60.0" stroke="rgb(0,0,0)"  stroke-width="1.0"/>
<line x1="151.1" y1="94.0" x2="151.1" y2="66.0" stroke="rgb(0,0,0)"  stroke-width="1.0"/>
<line x1="143.9" y1="60.0" x2="169.6" y2="51.7" stroke="rgb(0,0,0)"  stroke-width="1.0"/>
<line x1="189.6" y1="58.2" x2="205.5" y2="80.0" stroke="rgb(0,0,0)"  stroke-width="1.0"/>
<line x1="205.5" y1="80.0" x2="182.0" y2="112.4" stroke="rgb(0,0,0)"  stroke-width="1.0"/>
<line x1="196.1" y1="80.6" x2="179.7" y2="103.3" stroke="rgb(0,0,0)"  stroke-width="1.0"/>
<line x1="109.3" y1="40.0" x2="143.9" y2="60.0" stroke="rgb(0,0,0)"  stroke-width="1.0"/>
<line x1="143.9" y1="100.0" x2="109.3" y2="120.0" stroke="rgb(0,0,0)"  stroke-width="1.0"/>
<line x1="109.3" y1="120.0" x2="74.6" y2="100.0" stroke="rgb(0,0,0)"  stroke-width="1.0"/>
<line x1="107.7" y1="110.8" x2="83.4" y2="96.8" stroke="rgb(0,0,0)"  stroke-width="1.0"/>
<line x1="74.6" y1="100.0" x2="74.6" y2="60.0" stroke="rgb(0,0,0)"  stroke-width="1.0"/>
<line x1="74.6" y1="60.0" x2="109.3" y2="40.0" stroke="rgb(0,0,0)"  stroke-width="1.0"/>
<line x1="83.4" y1="63.2" x2="107.7" y2="49.2" stroke="rgb(0,0,0)"  stroke-width="1.0"/>
<text x="102.434861" y="179.812266" fill="rgb(12,12,255)"  stroke="rgb(12,12,255)" stroke-width="1" font-size="16" >H</text>
<text x="114.434861" y="183.492266" fill="rgb(12,12,255)"  stroke="rgb(12,12,255)" stroke-width="1" font-size="13" >2</text>
<text x="120.934861" y="179.812266" fill="rgb(12,12,255)"  stroke="rgb(12,12,255)" stroke-width="1" font-size="16" >N</text>
<text x="135.156220" y="255.896787" fill="rgb(255,12,12)"  stroke="rgb(255,12,12)" stroke-width="1" font-size="16" >HO</text>
<text x="22.000000" y="128.000000" fill="rgb(255,12,12)"  stroke="rgb(255,12,12)" stroke-width="1" font-size="16" >HO</text>
<text x="175.965309" y="55.639320" fill="rgb(12,12,255)"  stroke="rgb(12,12,255)" stroke-width="1" font-size="16" >N</text>
<text x="175.965309" y="39.639320" fill="rgb(12,12,255)"  stroke="rgb(12,12,255)" stroke-width="1" font-size="16" >H</text>
<text x="213.047348" y="234.487462" fill="rgb(255,12,12)"  stroke="rgb(255,12,12)" stroke-width="1" font-size="16" >OH</text>
<text font-size="18.000000" fill ="black" font-family="sans-serif"
x="10.000000" y="20.000000" ></text>
<title> - OBDepict</title>
</svg>
