<?xml version="1.0"?>
<svg xmlns="http://www.w3.org/2000/svg"
xmlns:xlink="http://www.w3.org/1999/xlink" xmlns:cml="http://www.xml-cml.org/schema" width="357.128" height="380" x="0" y="0" font-family="sans-serif" stroke="rgb(0,0,0)" stroke-width="1"  stroke-linecap="round">
<rect x="0%" y="0%" width="100%" height="100%" stroke-width="0" fill="rgb(255,255,255)"  />
<polygon points="213.205 280 217.205 306.8 209.205 306.8 " stroke-width="1" fill="rgb(0,0,0)"  stroke="rgb(0,0,0)" />
<line x1="201.9" y1="326.5" x2="189.8" y2="333.5" stroke="rgb(0,0,0)"  stroke-width="1.0"/>
<line x1="224.5" y1="326.5" x2="236.6" y2="333.5" stroke="rgb(0,0,0)"  stroke-width="1.0"/>
<line x1="179.4" y1="228.0" x2="177.8" y2="228.0" stroke="rgb(0,0,0)"  stroke-width="1.0"/>
<line x1="180.0" y1="234.4" x2="177.1" y2="234.4" stroke="rgb(0,0,0)"  stroke-width="1.0"/>
<line x1="180.6" y1="240.8" x2="176.5" y2="240.8" stroke="rgb(0,0,0)"  stroke-width="1.0"/>
<line x1="181.3" y1="247.2" x2="175.8" y2="247.2" stroke="rgb(0,0,0)"  stroke-width="1.0"/>
<line x1="181.9" y1="253.6" x2="175.2" y2="253.6" stroke="rgb(0,0,0)"  stroke-width="1.0"/>
<line x1="182.6" y1="260.0" x2="174.6" y2="260.0" stroke="rgb(0,0,0)"  stroke-width="1.0"/>
<line x1="74.6" y1="67.0" x2="74.6" y2="53.0" stroke="rgb(0,0,0)"  stroke-width="1.0"/>
<line x1="63.4" y1="86.5" x2="51.3" y2="93.5" stroke="rgb(0,0,0)"  stroke-width="1.0"/>
<polygon points="143.923048 160.000000 147.923048 186.800000 139.923048 186.800000 " stroke-width="1.000000" fill="rgb(0,0,0)"  stroke="rgb(0,0,0)" />
<polygon points="109.282032 100.000000 84.072551 90.064102 88.072551 83.135898 " stroke-width="1.000000" fill="rgb(0,0,0)"  stroke="rgb(0,0,0)" />
<line x1="177.8" y1="132.0" x2="179.4" y2="132.0" stroke="rgb(0,0,0)"  stroke-width="1.0"/>
<line x1="177.1" y1="125.6" x2="180.0" y2="125.6" stroke="rgb(0,0,0)"  stroke-width="1.0"/>
<line x1="176.5" y1="119.2" x2="180.6" y2="119.2" stroke="rgb(0,0,0)"  stroke-width="1.0"/>
<line x1="175.8" y1="112.8" x2="181.3" y2="112.8" stroke="rgb(0,0,0)"  stroke-width="1.0"/>
<line x1="175.2" y1="106.4" x2="181.9" y2="106.4" stroke="rgb(0,0,0)"  stroke-width="1.0"/>
<line x1="174.6" y1="100.0" x2="182.6" y2="100.0" stroke="rgb(0,0,0)"  stroke-width="1.0"/>
<line x1="219.7" y1="155.3" x2="220.5" y2="156.7" stroke="rgb(0,0,0)"  stroke-width="1.0"/>
<line x1="225.0" y1="151.6" x2="226.4" y2="154.0" stroke="rgb(0,0,0)"  stroke-width="1.0"/>
<line x1="230.2" y1="147.8" x2="232.3" y2="151.4" stroke="rgb(0,0,0)"  stroke-width="1.0"/>
<line x1="235.4" y1="144.0" x2="238.1" y2="148.8" stroke="rgb(0,0,0)"  stroke-width="1.0"/>
<line x1="240.6" y1="140.3" x2="244.0" y2="146.1" stroke="rgb(0,0,0)"  stroke-width="1.0"/>
<line x1="245.8" y1="136.5" x2="249.8" y2="143.5" stroke="rgb(0,0,0)"  stroke-width="1.0"/>
<line x1="220.5" y1="203.3" x2="219.7" y2="204.7" stroke="rgb(0,0,0)"  stroke-width="1.0"/>
<line x1="226.4" y1="206.0" x2="225.0" y2="208.4" stroke="rgb(0,0,0)"  stroke-width="1.0"/>
<line x1="232.3" y1="208.6" x2="230.2" y2="212.2" stroke="rgb(0,0,0)"  stroke-width="1.0"/>
<line x1="238.1" y1="211.2" x2="235.4" y2="216.0" stroke="rgb(0,0,0)"  stroke-width="1.0"/>
<line x1="244.0" y1="213.9" x2="240.6" y2="219.7" stroke="rgb(0,0,0)"  stroke-width="1.0"/>
<line x1="249.8" y1="216.5" x2="245.8" y2="223.5" stroke="rgb(0,0,0)"  stroke-width="1.0"/>
<line x1="143.9" y1="160.0" x2="109.3" y2="140.0" stroke="rgb(0,0,0)"  stroke-width="1.0"/>
<line x1="109.3" y1="140.0" x2="109.3" y2="100.0" stroke="rgb(0,0,0)"  stroke-width="1.0"/>
<line x1="109.3" y1="100.0" x2="143.9" y2="80.0" stroke="rgb(0,0,0)"  stroke-width="1.0"/>
<line x1="143.9" y1="80.0" x2="178.6" y2="100.0" stroke="rgb(0,0,0)"  stroke-width="1.0"/>
<line x1="178.6" y1="100.0" x2="178.6" y2="140.0" stroke="rgb(0,0,0)"  stroke-width="1.0"/>
<line x1="178.6" y1="140.0" x2="143.9" y2="160.0" stroke="rgb(0,0,0)"  stroke-width="1.0"/>
<line x1="213.2" y1="200.0" x2="178.6" y2="220.0" stroke="rgb(0,0,0)"  stroke-width="1.0"/>
<line x1="178.6" y1="220.0" x2="155.2" y2="206.5" stroke="rgb(0,0,0)"  stroke-width="1.0"/>
<line x1="143.9" y1="187.0" x2="143.9" y2="160.0" stroke="rgb(0,0,0)"  stroke-width="1.0"/>
<line x1="178.6" y1="140.0" x2="213.2" y2="160.0" stroke="rgb(0,0,0)"  stroke-width="1.0"/>
<line x1="213.2" y1="160.0" x2="213.2" y2="200.0" stroke="rgb(0,0,0)"  stroke-width="1.0"/>
<line x1="247.8" y1="260.0" x2="213.2" y2="280.0" stroke="rgb(0,0,0)"  stroke-width="1.0"/>
<line x1="213.2" y1="280.0" x2="178.6" y2="260.0" stroke="rgb(0,0,0)"  stroke-width="1.0"/>
<line x1="178.6" y1="260.0" x2="178.6" y2="220.0" stroke="rgb(0,0,0)"  stroke-width="1.0"/>
<line x1="213.2" y1="200.0" x2="247.8" y2="220.0" stroke="rgb(0,0,0)"  stroke-width="1.0"/>
<line x1="247.8" y1="220.0" x2="247.8" y2="260.0" stroke="rgb(0,0,0)"  stroke-width="1.0"/>
<line x1="247.8" y1="140.0" x2="247.8" y2="100.0" stroke="rgb(0,0,0)"  stroke-width="1.0"/>
<line x1="247.8" y1="100.0" x2="282.5" y2="80.0" stroke="rgb(0,0,0)"  stroke-width="1.0"/>
<line x1="282.5" y1="80.0" x2="317.1" y2="100.0" stroke="rgb(0,0,0)"  stroke-width="1.0"/>
<line x1="317.1" y1="100.0" x2="317.1" y2="140.0" stroke="rgb(0,0,0)"  stroke-width="1.0"/>
<line x1="317.1" y1="140.0" x2="282.5" y2="160.0" stroke="rgb(0,0,0)"  stroke-width="1.0"/>
<line x1="282.5" y1="160.0" x2="247.8" y2="140.0" stroke="rgb(0,0,0)"  stroke-width="1.0"/>
<text x="207.205081" y="328.000000" fill="rgb(12,12,255)"  stroke="rgb(12,12,255)" stroke-width="1" font-size="16" >N</text>
<text x="68.641016" y="88.000000" fill="rgb(12,12,255)"  stroke="rgb(12,12,255)" stroke-width="1" font-size="16" >N</text>
<text x="137.923048" y="208.000000" fill="rgb(255,12,12)"  stroke="rgb(255,12,12)" stroke-width="1" font-size="16" >O</text>
<text x="152.564065" y="348.000000" fill="rgb(102,102,102)"  stroke="rgb(102,102,102)" stroke-width="1" font-size="16" >H</text>
<text x="164.564065" y="351.680000" fill="rgb(102,102,102)"  stroke="rgb(102,102,102)" stroke-width="1" font-size="13" >3</text>
<text x="171.064065" y="348.000000" fill="rgb(102,102,102)"  stroke="rgb(102,102,102)" stroke-width="1" font-size="16" >C</text>
<text x="243.846097" y="348.000000" fill="rgb(102,102,102)"  stroke="rgb(102,102,102)" stroke-width="1" font-size="16" >CH</text>
<text x="267.846097" y="351.680000" fill="rgb(102,102,102)"  stroke="rgb(102,102,102)" stroke-width="1" font-size="13" >3</text>
<text x="70.641016" y="48.000000" fill="rgb(102,102,102)"  stroke="rgb(102,102,102)" stroke-width="1" font-size="16" >CH</text>
<text x="94.641016" y="51.680000" fill="rgb(102,102,102)"  stroke="rgb(102,102,102)" stroke-width="1" font-size="13" >3</text>
<text x="14.000000" y="108.000000" fill="rgb(102,102,102)"  stroke="rgb(102,102,102)" stroke-width="1" font-size="16" >H</text>
<text x="26.000000" y="111.680000" fill="rgb(102,102,102)"  stroke="rgb(102,102,102)" stroke-width="1" font-size="13" >3</text>
<text x="32.500000" y="108.000000" fill="rgb(102,102,102)"  stroke="rgb(102,102,102)" stroke-width="1" font-size="16" >C</text>
<text font-size="18.000000" fill ="black" font-family="sans-serif"
x="10.000000" y="20.000000" ></text>
<title> - OBDepict</title>
</svg>
