<?xml version="1.0"?>
<svg xmlns="http://www.w3.org/2000/svg"
xmlns:xlink="http://www.w3.org/1999/xlink" xmlns:cml="http://www.xml-cml.org/schema" width="401.335" height="253.186" x="0" y="0" font-family="sans-serif" stroke="rgb(0,0,0)" stroke-width="1"  stroke-linecap="round">
<rect x="0%" y="0%" width="100%" height="100%" stroke-width="0" fill="rgb(255,255,255)"  />
<line x1="72.9" y1="76.2" x2="51.8" y2="86.0" stroke="rgb(0,0,0)"  stroke-width="1.0"/>
<line x1="70.0" y1="75.9" x2="72.0" y2="52.7" stroke="rgb(0,0,0)"  stroke-width="1.0"/>
<line x1="75.9" y1="76.4" x2="78.0" y2="53.2" stroke="rgb(0,0,0)"  stroke-width="1.0"/>
<line x1="72.9" y1="76.2" x2="102.7" y2="97.1" stroke="rgb(0,0,0)"  stroke-width="1.0"/>
<line x1="102.7" y1="97.1" x2="135.6" y2="81.8" stroke="rgb(0,0,0)"  stroke-width="1.0"/>
<line x1="135.6" y1="81.8" x2="165.3" y2="102.7" stroke="rgb(0,0,0)"  stroke-width="1.0"/>
<line x1="165.3" y1="102.7" x2="198.3" y2="87.4" stroke="rgb(0,0,0)"  stroke-width="1.0"/>
<polygon points="234.598023 150.285940 194.810967 89.372736 201.739170 85.372736 " stroke-width="1.000000" fill="rgb(0,0,0)"  stroke="rgb(0,0,0)" />
<polygon points="270.920979 213.186135 234.598023 217.186135 234.598023 209.186135 " stroke-width="1.000000" fill="rgb(0,0,0)"  stroke="rgb(0,0,0)" />
<line x1="325.4" y1="178.3" x2="348.3" y2="178.3" stroke="rgb(0,0,0)"  stroke-width="1.0"/>
<line x1="325.4" y1="184.3" x2="348.3" y2="184.3" stroke="rgb(0,0,0)"  stroke-width="1.0"/>
<polygon points="270.920979 150.285940 295.264662 146.285940 295.264662 154.285940 " stroke-width="1.000000" fill="rgb(0,0,0)"  stroke="rgb(0,0,0)" />
<line x1="234.6" y1="150.3" x2="222.9" y2="170.9" stroke="rgb(0,0,0)"  stroke-width="1.0"/>
<line x1="223.0" y1="193.4" x2="234.6" y2="213.2" stroke="rgb(0,0,0)"  stroke-width="1.0"/>
<line x1="234.6" y1="213.2" x2="270.9" y2="213.2" stroke="rgb(0,0,0)"  stroke-width="1.0"/>
<line x1="270.9" y1="213.2" x2="270.9" y2="150.3" stroke="rgb(0,0,0)"  stroke-width="1.0"/>
<line x1="270.9" y1="150.3" x2="234.6" y2="150.3" stroke="rgb(0,0,0)"  stroke-width="1.0"/>
<line x1="313.7" y1="201.9" x2="325.4" y2="181.3" stroke="rgb(0,0,0)"  stroke-width="1.0"/>
<line x1="325.4" y1="181.3" x2="313.8" y2="161.5" stroke="rgb(0,0,0)"  stroke-width="1.0"/>
<line x1="294.3" y1="150.3" x2="270.9" y2="150.3" stroke="rgb(0,0,0)"  stroke-width="1.0"/>
<line x1="270.9" y1="213.2" x2="294.3" y2="213.2" stroke="rgb(0,0,0)"  stroke-width="1.0"/>
<text x="44.800000" y="87.437952" fill="rgb(255,12,12)"  stroke="rgb(255,12,12)" stroke-width="1" font-size="32" >-</text>
<text x="34.000000" y="99.469952" fill="rgb(255,12,12)"  stroke="rgb(255,12,12)" stroke-width="1" font-size="16" >O</text>
<text x="70.178935" y="48.000000" fill="rgb(255,12,12)"  stroke="rgb(255,12,12)" stroke-width="1" font-size="16" >O</text>
<text x="210.425645" y="190.215692" fill="rgb(178,178,0)"  stroke="rgb(178,178,0)" stroke-width="1" font-size="16" >S</text>
<text x="301.254835" y="221.186135" fill="rgb(12,12,255)"  stroke="rgb(12,12,255)" stroke-width="1" font-size="16" >N</text>
<text x="301.254835" y="237.186135" fill="rgb(12,12,255)"  stroke="rgb(12,12,255)" stroke-width="1" font-size="16" >H</text>
<text x="355.335481" y="189.256383" fill="rgb(255,12,12)"  stroke="rgb(255,12,12)" stroke-width="1" font-size="16" >O</text>
<text x="301.254835" y="158.285940" fill="rgb(12,12,255)"  stroke="rgb(12,12,255)" stroke-width="1" font-size="16" >N</text>
<text x="301.254835" y="142.285940" fill="rgb(12,12,255)"  stroke="rgb(12,12,255)" stroke-width="1" font-size="16" >H</text>
<text font-size="18.000000" fill ="black" font-family="sans-serif"
x="10.000000" y="20.000000" ></text>
<title> - OBDepict</title>
</svg>
