<?xml version="1.0"?>
<svg xmlns="http://www.w3.org/2000/svg"
xmlns:xlink="http://www.w3.org/1999/xlink" xmlns:cml="http://www.xml-cml.org/schema" width="427.088" height="312.586" x="0" y="0" font-family="sans-serif" stroke="rgb(0,0,0)" stroke-width="1"  stroke-linecap="round">
<rect x="0%" y="0%" width="100%" height="100%" stroke-width="0" fill="rgb(255,255,255)"  />
<line x1="274.4" y1="153.6" x2="250.5" y2="139.9" stroke="rgb(0,0,0)"  stroke-width="1.0"/>
<line x1="142.0" y1="81.4" x2="128.2" y2="57.8" stroke="rgb(0,0,0)"  stroke-width="1.0"/>
<line x1="147.1" y1="78.4" x2="133.4" y2="54.8" stroke="rgb(0,0,0)"  stroke-width="1.0"/>
<line x1="74.8" y1="80.3" x2="51.2" y2="94.0" stroke="rgb(0,0,0)"  stroke-width="1.0"/>
<line x1="71.8" y1="80.3" x2="71.6" y2="53.0" stroke="rgb(0,0,0)"  stroke-width="1.0"/>
<line x1="77.8" y1="80.3" x2="77.6" y2="53.0" stroke="rgb(0,0,0)"  stroke-width="1.0"/>
<line x1="102.4" y1="96.9" x2="103.1" y2="95.5" stroke="rgb(0,0,0)"  stroke-width="1.0"/>
<line x1="96.4" y1="94.3" x2="97.9" y2="91.8" stroke="rgb(0,0,0)"  stroke-width="1.0"/>
<line x1="90.5" y1="91.7" x2="92.6" y2="88.0" stroke="rgb(0,0,0)"  stroke-width="1.0"/>
<line x1="84.6" y1="89.0" x2="87.3" y2="84.3" stroke="rgb(0,0,0)"  stroke-width="1.0"/>
<line x1="78.7" y1="86.4" x2="82.0" y2="80.5" stroke="rgb(0,0,0)"  stroke-width="1.0"/>
<line x1="72.8" y1="83.7" x2="76.8" y2="76.8" stroke="rgb(0,0,0)"  stroke-width="1.0"/>
<line x1="263.2" y1="75.6" x2="249.7" y2="99.2" stroke="rgb(0,0,0)"  stroke-width="1.0"/>
<line x1="229.0" y1="224.5" x2="221.8" y2="212.1" stroke="rgb(0,0,0)"  stroke-width="1.0"/>
<line x1="355.3" y1="174.8" x2="354.6" y2="176.3" stroke="rgb(0,0,0)"  stroke-width="1.0"/>
<line x1="359.5" y1="176.0" x2="358.3" y2="178.6" stroke="rgb(0,0,0)"  stroke-width="1.0"/>
<line x1="363.7" y1="177.1" x2="362.1" y2="180.9" stroke="rgb(0,0,0)"  stroke-width="1.0"/>
<line x1="368.0" y1="178.3" x2="365.8" y2="183.3" stroke="rgb(0,0,0)"  stroke-width="1.0"/>
<line x1="372.2" y1="179.4" x2="369.5" y2="185.6" stroke="rgb(0,0,0)"  stroke-width="1.0"/>
<line x1="376.4" y1="180.6" x2="373.2" y2="187.9" stroke="rgb(0,0,0)"  stroke-width="1.0"/>
<polygon points="329.865453 208.571143 331.144777 236.002566 323.184406 235.207270 " stroke-width="1.000000" fill="rgb(0,0,0)"  stroke="rgb(0,0,0)" />
<line x1="300.7" y1="260.3" x2="314.0" y2="254.3" stroke="rgb(0,0,0)"  stroke-width="1.0"/>
<line x1="348.2" y1="265.0" x2="336.4" y2="256.5" stroke="rgb(0,0,0)"  stroke-width="1.0"/>
<line x1="145.3" y1="173.8" x2="145.5" y2="201.3" stroke="rgb(0,0,0)"  stroke-width="1.0"/>
<line x1="145.5" y1="201.3" x2="110.2" y2="201.5" stroke="rgb(0,0,0)"  stroke-width="1.0"/>
<line x1="139.4" y1="194.1" x2="116.2" y2="194.3" stroke="rgb(0,0,0)"  stroke-width="1.0"/>
<line x1="110.2" y1="201.5" x2="99.0" y2="182.3" stroke="rgb(0,0,0)"  stroke-width="1.0"/>
<line x1="98.2" y1="161.0" x2="109.9" y2="140.5" stroke="rgb(0,0,0)"  stroke-width="1.0"/>
<line x1="105.7" y1="162.4" x2="113.2" y2="149.3" stroke="rgb(0,0,0)"  stroke-width="1.0"/>
<line x1="109.9" y1="140.5" x2="133.9" y2="154.3" stroke="rgb(0,0,0)"  stroke-width="1.0"/>
<line x1="287.1" y1="173.0" x2="290.2" y2="200.3" stroke="rgb(0,0,0)"  stroke-width="1.0"/>
<line x1="290.2" y1="200.3" x2="329.9" y2="208.6" stroke="rgb(0,0,0)"  stroke-width="1.0"/>
<line x1="329.9" y1="208.6" x2="350.0" y2="173.4" stroke="rgb(0,0,0)"  stroke-width="1.0"/>
<line x1="350.0" y1="173.4" x2="322.7" y2="143.4" stroke="rgb(0,0,0)"  stroke-width="1.0"/>
<line x1="322.7" y1="143.4" x2="297.6" y2="154.7" stroke="rgb(0,0,0)"  stroke-width="1.0"/>
<line x1="250.5" y1="139.9" x2="249.7" y2="99.2" stroke="rgb(0,0,0)"  stroke-width="1.0"/>
<line x1="249.7" y1="99.2" x2="215.0" y2="79.1" stroke="rgb(0,0,0)"  stroke-width="1.0"/>
<line x1="241.0" y1="102.4" x2="216.6" y2="88.4" stroke="rgb(0,0,0)"  stroke-width="1.0"/>
<line x1="215.0" y1="79.1" x2="179.9" y2="99.6" stroke="rgb(0,0,0)"  stroke-width="1.0"/>
<line x1="179.9" y1="99.6" x2="180.0" y2="140.5" stroke="rgb(0,0,0)"  stroke-width="1.0"/>
<line x1="187.1" y1="105.6" x2="187.2" y2="134.5" stroke="rgb(0,0,0)"  stroke-width="1.0"/>
<line x1="180.0" y1="140.5" x2="215.5" y2="160.4" stroke="rgb(0,0,0)"  stroke-width="1.0"/>
<line x1="215.5" y1="160.4" x2="250.5" y2="139.9" stroke="rgb(0,0,0)"  stroke-width="1.0"/>
<line x1="217.0" y1="151.2" x2="241.7" y2="136.8" stroke="rgb(0,0,0)"  stroke-width="1.0"/>
<line x1="144.6" y1="79.9" x2="109.7" y2="100.2" stroke="rgb(0,0,0)"  stroke-width="1.0"/>
<line x1="109.7" y1="100.2" x2="109.9" y2="140.5" stroke="rgb(0,0,0)"  stroke-width="1.0"/>
<line x1="156.4" y1="154.3" x2="180.0" y2="140.5" stroke="rgb(0,0,0)"  stroke-width="1.0"/>
<line x1="179.9" y1="99.6" x2="144.6" y2="79.9" stroke="rgb(0,0,0)"  stroke-width="1.0"/>
<line x1="180.4" y1="221.2" x2="204.0" y2="207.5" stroke="rgb(0,0,0)"  stroke-width="1.0"/>
<line x1="215.3" y1="187.9" x2="215.5" y2="160.4" stroke="rgb(0,0,0)"  stroke-width="1.0"/>
<line x1="145.5" y1="201.3" x2="180.4" y2="221.2" stroke="rgb(0,0,0)"  stroke-width="1.0"/>
<text x="279.712973" y="168.039163" fill="rgb(12,12,255)"  stroke="rgb(12,12,255)" stroke-width="1" font-size="16" >N</text>
<text x="139.157711" y="168.834618" fill="rgb(12,12,255)"  stroke="rgb(12,12,255)" stroke-width="1" font-size="16" >N</text>
<text x="68.562690" y="48.000000" fill="rgb(255,12,12)"  stroke="rgb(255,12,12)" stroke-width="1" font-size="16" >O</text>
<text x="22.000000" y="108.581793" fill="rgb(255,12,12)"  stroke="rgb(255,12,12)" stroke-width="1" font-size="16" >HO</text>
<text x="118.217470" y="53.084663" fill="rgb(255,12,12)"  stroke="rgb(255,12,12)" stroke-width="1" font-size="16" >O</text>
<text x="86.469935" y="179.082329" fill="rgb(178,178,0)"  stroke="rgb(178,178,0)" stroke-width="1" font-size="16" >S</text>
<text x="263.639587" y="72.301950" fill="rgb(127,178,255)"  stroke="rgb(127,178,255)" stroke-width="1" font-size="16" >F</text>
<text x="209.244722" y="208.892298" fill="rgb(12,12,255)"  stroke="rgb(12,12,255)" stroke-width="1" font-size="16" >N</text>
<text x="231.578546" y="243.696875" fill="rgb(102,102,102)"  stroke="rgb(102,102,102)" stroke-width="1" font-size="16" >CH</text>
<text x="255.578546" y="247.376875" fill="rgb(102,102,102)"  stroke="rgb(102,102,102)" stroke-width="1" font-size="13" >3</text>
<text x="381.087873" y="197.652523" fill="rgb(255,12,12)"  stroke="rgb(255,12,12)" stroke-width="1" font-size="16" >OH</text>
<text x="319.834317" y="256.920061" fill="rgb(12,12,255)"  stroke="rgb(12,12,255)" stroke-width="1" font-size="16" >N</text>
<text x="262.875561" y="273.603454" fill="rgb(102,102,102)"  stroke="rgb(102,102,102)" stroke-width="1" font-size="16" >H</text>
<text x="274.875561" y="277.283454" fill="rgb(102,102,102)"  stroke="rgb(102,102,102)" stroke-width="1" font-size="13" >3</text>
<text x="281.375561" y="273.603454" fill="rgb(102,102,102)"  stroke="rgb(102,102,102)" stroke-width="1" font-size="16" >C</text>
<text x="354.761937" y="280.585586" fill="rgb(102,102,102)"  stroke="rgb(102,102,102)" stroke-width="1" font-size="16" >CH</text>
<text x="378.761937" y="284.265586" fill="rgb(102,102,102)"  stroke="rgb(102,102,102)" stroke-width="1" font-size="13" >3</text>
<text font-size="18.000000" fill ="black" font-family="sans-serif"
x="10.000000" y="20.000000" ></text>
<title> - OBDepict</title>
</svg>
