<?xml version="1.0"?>
<svg xmlns="http://www.w3.org/2000/svg"
xmlns:xlink="http://www.w3.org/1999/xlink" xmlns:cml="http://www.xml-cml.org/schema" width="691.987" height="305.617" x="0" y="0" font-family="sans-serif" stroke="rgb(0,0,0)" stroke-width="1"  stroke-linecap="round">
<rect x="0%" y="0%" width="100%" height="100%" stroke-width="0" fill="rgb(255,255,255)"  />
<polygon points="347.942 63.879 350.552 49.9453 357.68 53.5772 " stroke-width="1" fill="rgb(0,0,0)"  stroke="rgb(0,0,0)" />
<line x1="332.4" y1="66.4" x2="324.7" y2="54.6" stroke="rgb(0,0,0)"  stroke-width="1.0"/>
<line x1="337.4" y1="63.1" x2="329.8" y2="51.4" stroke="rgb(0,0,0)"  stroke-width="1.0"/>
<line x1="343.5" y1="244.5" x2="342.1" y2="243.8" stroke="rgb(0,0,0)"  stroke-width="1.0"/>
<line x1="343.1" y1="246.8" x2="340.5" y2="245.4" stroke="rgb(0,0,0)"  stroke-width="1.0"/>
<line x1="342.7" y1="249.0" x2="339.0" y2="247.1" stroke="rgb(0,0,0)"  stroke-width="1.0"/>
<line x1="342.3" y1="251.2" x2="337.4" y2="248.7" stroke="rgb(0,0,0)"  stroke-width="1.0"/>
<line x1="341.9" y1="253.4" x2="335.9" y2="250.4" stroke="rgb(0,0,0)"  stroke-width="1.0"/>
<line x1="341.4" y1="255.7" x2="334.3" y2="252.0" stroke="rgb(0,0,0)"  stroke-width="1.0"/>
<line x1="359.6" y1="239.2" x2="367.3" y2="251.0" stroke="rgb(0,0,0)"  stroke-width="1.0"/>
<line x1="354.6" y1="242.5" x2="362.2" y2="254.3" stroke="rgb(0,0,0)"  stroke-width="1.0"/>
<polygon points="423.161416 148.764214 406.996511 111.958021 414.604963 109.485885 " stroke-width="1.000000" fill="rgb(0,0,0)"  stroke="rgb(0,0,0)" />
<polygon points="479.211758 181.124893 464.657034 158.268822 471.965398 155.014928 " stroke-width="1.000000" fill="rgb(0,0,0)"  stroke="rgb(0,0,0)" />
<line x1="411.9" y1="192.4" x2="410.7" y2="191.3" stroke="rgb(0,0,0)"  stroke-width="1.0"/>
<line x1="409.5" y1="196.0" x2="407.3" y2="194.1" stroke="rgb(0,0,0)"  stroke-width="1.0"/>
<line x1="407.1" y1="199.6" x2="404.0" y2="196.9" stroke="rgb(0,0,0)"  stroke-width="1.0"/>
<line x1="404.7" y1="203.3" x2="400.6" y2="199.6" stroke="rgb(0,0,0)"  stroke-width="1.0"/>
<line x1="402.3" y1="206.9" x2="397.3" y2="202.4" stroke="rgb(0,0,0)"  stroke-width="1.0"/>
<line x1="399.9" y1="210.5" x2="393.9" y2="205.1" stroke="rgb(0,0,0)"  stroke-width="1.0"/>
<line x1="450.8" y1="213.1" x2="449.3" y2="213.3" stroke="rgb(0,0,0)"  stroke-width="1.0"/>
<line x1="451.9" y1="217.3" x2="449.1" y2="217.6" stroke="rgb(0,0,0)"  stroke-width="1.0"/>
<line x1="453.0" y1="221.5" x2="448.9" y2="222.0" stroke="rgb(0,0,0)"  stroke-width="1.0"/>
<line x1="454.1" y1="225.7" x2="448.7" y2="226.3" stroke="rgb(0,0,0)"  stroke-width="1.0"/>
<line x1="455.2" y1="229.9" x2="448.5" y2="230.6" stroke="rgb(0,0,0)"  stroke-width="1.0"/>
<line x1="456.3" y1="234.1" x2="448.3" y2="235.0" stroke="rgb(0,0,0)"  stroke-width="1.0"/>
<line x1="479.2" y1="181.1" x2="505.6" y2="186.7" stroke="rgb(0,0,0)"  stroke-width="1.0"/>
<line x1="212.8" y1="124.5" x2="186.4" y2="118.9" stroke="rgb(0,0,0)"  stroke-width="1.0"/>
<line x1="581.9" y1="97.3" x2="583.5" y2="97.3" stroke="rgb(0,0,0)"  stroke-width="1.0"/>
<line x1="581.3" y1="93.0" x2="584.1" y2="93.0" stroke="rgb(0,0,0)"  stroke-width="1.0"/>
<line x1="580.6" y1="88.7" x2="584.8" y2="88.7" stroke="rgb(0,0,0)"  stroke-width="1.0"/>
<line x1="580.0" y1="84.5" x2="585.4" y2="84.5" stroke="rgb(0,0,0)"  stroke-width="1.0"/>
<line x1="579.3" y1="80.2" x2="586.1" y2="80.2" stroke="rgb(0,0,0)"  stroke-width="1.0"/>
<line x1="578.7" y1="75.9" x2="586.7" y2="75.9" stroke="rgb(0,0,0)"  stroke-width="1.0"/>
<line x1="241.1" y1="92.5" x2="242.7" y2="92.3" stroke="rgb(0,0,0)"  stroke-width="1.0"/>
<line x1="240.1" y1="88.3" x2="242.9" y2="88.0" stroke="rgb(0,0,0)"  stroke-width="1.0"/>
<line x1="239.0" y1="84.1" x2="243.1" y2="83.6" stroke="rgb(0,0,0)"  stroke-width="1.0"/>
<line x1="237.9" y1="79.9" x2="243.3" y2="79.3" stroke="rgb(0,0,0)"  stroke-width="1.0"/>
<line x1="236.8" y1="75.7" x2="243.5" y2="75.0" stroke="rgb(0,0,0)"  stroke-width="1.0"/>
<line x1="235.7" y1="71.5" x2="243.7" y2="70.7" stroke="rgb(0,0,0)"  stroke-width="1.0"/>
<line x1="280.1" y1="113.2" x2="281.3" y2="114.3" stroke="rgb(0,0,0)"  stroke-width="1.0"/>
<line x1="282.5" y1="109.6" x2="284.7" y2="111.5" stroke="rgb(0,0,0)"  stroke-width="1.0"/>
<line x1="284.9" y1="106.0" x2="288.0" y2="108.8" stroke="rgb(0,0,0)"  stroke-width="1.0"/>
<line x1="287.3" y1="102.4" x2="291.4" y2="106.0" stroke="rgb(0,0,0)"  stroke-width="1.0"/>
<line x1="289.7" y1="98.7" x2="294.7" y2="103.2" stroke="rgb(0,0,0)"  stroke-width="1.0"/>
<line x1="292.1" y1="95.1" x2="298.0" y2="100.5" stroke="rgb(0,0,0)"  stroke-width="1.0"/>
<line x1="547.3" y1="157.3" x2="548.9" y2="157.3" stroke="rgb(0,0,0)"  stroke-width="1.0"/>
<line x1="546.6" y1="153.0" x2="549.5" y2="153.0" stroke="rgb(0,0,0)"  stroke-width="1.0"/>
<line x1="546.0" y1="148.7" x2="550.1" y2="148.7" stroke="rgb(0,0,0)"  stroke-width="1.0"/>
<line x1="545.3" y1="144.5" x2="550.8" y2="144.5" stroke="rgb(0,0,0)"  stroke-width="1.0"/>
<line x1="544.7" y1="140.2" x2="551.4" y2="140.2" stroke="rgb(0,0,0)"  stroke-width="1.0"/>
<line x1="544.1" y1="135.9" x2="552.1" y2="135.9" stroke="rgb(0,0,0)"  stroke-width="1.0"/>
<polygon points="268.825087 156.852638 242.590014 163.632088 241.753786 155.675913 " stroke-width="1.000000" fill="rgb(0,0,0)"  stroke="rgb(0,0,0)" />
<polygon points="212.774746 124.491958 227.329469 147.348030 220.021106 150.601923 " stroke-width="1.000000" fill="rgb(0,0,0)"  stroke="rgb(0,0,0)" />
<line x1="589.2" y1="178.0" x2="590.0" y2="179.4" stroke="rgb(0,0,0)"  stroke-width="1.0"/>
<line x1="594.5" y1="174.2" x2="595.9" y2="176.7" stroke="rgb(0,0,0)"  stroke-width="1.0"/>
<line x1="599.7" y1="170.5" x2="601.8" y2="174.1" stroke="rgb(0,0,0)"  stroke-width="1.0"/>
<line x1="604.9" y1="166.7" x2="607.6" y2="171.4" stroke="rgb(0,0,0)"  stroke-width="1.0"/>
<line x1="610.1" y1="163.0" x2="613.5" y2="168.8" stroke="rgb(0,0,0)"  stroke-width="1.0"/>
<line x1="615.3" y1="159.2" x2="619.3" y2="166.1" stroke="rgb(0,0,0)"  stroke-width="1.0"/>
<line x1="618.8" y1="160.1" x2="642.2" y2="173.6" stroke="rgb(0,0,0)"  stroke-width="1.0"/>
<line x1="615.8" y1="165.3" x2="639.2" y2="178.8" stroke="rgb(0,0,0)"  stroke-width="1.0"/>
<polygon points="523.706586 201.500161 538.261310 224.356233 530.952946 227.610126 " stroke-width="1.000000" fill="rgb(0,0,0)"  stroke="rgb(0,0,0)" />
<polygon points="109.282032 202.940715 113.282032 229.740715 105.282032 229.740715 " stroke-width="1.000000" fill="rgb(0,0,0)"  stroke="rgb(0,0,0)" />
<polygon points="143.923048 142.940715 147.923048 169.740715 139.923048 169.740715 " stroke-width="1.000000" fill="rgb(0,0,0)"  stroke="rgb(0,0,0)" />
<polygon points="109.282032 122.940715 76.641016 146.404816 72.641016 139.476613 " stroke-width="1.000000" fill="rgb(0,0,0)"  stroke="rgb(0,0,0)" />
<line x1="73.1" y1="145.5" x2="49.8" y2="132.0" stroke="rgb(0,0,0)"  stroke-width="1.0"/>
<line x1="76.1" y1="140.3" x2="52.8" y2="126.8" stroke="rgb(0,0,0)"  stroke-width="1.0"/>
<line x1="165.4" y1="99.5" x2="166.8" y2="98.9" stroke="rgb(0,0,0)"  stroke-width="1.0"/>
<line x1="163.0" y1="95.9" x2="165.7" y2="94.7" stroke="rgb(0,0,0)"  stroke-width="1.0"/>
<line x1="160.7" y1="92.2" x2="164.5" y2="90.5" stroke="rgb(0,0,0)"  stroke-width="1.0"/>
<line x1="158.4" y1="88.6" x2="163.4" y2="86.4" stroke="rgb(0,0,0)"  stroke-width="1.0"/>
<line x1="156.1" y1="84.9" x2="162.2" y2="82.2" stroke="rgb(0,0,0)"  stroke-width="1.0"/>
<line x1="153.7" y1="81.3" x2="161.0" y2="78.0" stroke="rgb(0,0,0)"  stroke-width="1.0"/>
<line x1="479.2" y1="181.1" x2="449.5" y2="207.9" stroke="rgb(0,0,0)"  stroke-width="1.0"/>
<line x1="449.5" y1="207.9" x2="414.8" y2="187.9" stroke="rgb(0,0,0)"  stroke-width="1.0"/>
<line x1="414.8" y1="187.9" x2="423.2" y2="148.8" stroke="rgb(0,0,0)"  stroke-width="1.0"/>
<line x1="423.2" y1="148.8" x2="450.0" y2="145.9" stroke="rgb(0,0,0)"  stroke-width="1.0"/>
<line x1="468.2" y1="156.5" x2="479.2" y2="181.1" stroke="rgb(0,0,0)"  stroke-width="1.0"/>
<line x1="212.8" y1="124.5" x2="242.5" y2="97.7" stroke="rgb(0,0,0)"  stroke-width="1.0"/>
<line x1="242.5" y1="97.7" x2="277.1" y2="117.7" stroke="rgb(0,0,0)"  stroke-width="1.0"/>
<line x1="277.1" y1="117.7" x2="268.8" y2="156.9" stroke="rgb(0,0,0)"  stroke-width="1.0"/>
<line x1="268.8" y1="156.9" x2="242.0" y2="159.7" stroke="rgb(0,0,0)"  stroke-width="1.0"/>
<line x1="223.8" y1="149.2" x2="212.8" y2="124.5" stroke="rgb(0,0,0)"  stroke-width="1.0"/>
<line x1="534.6" y1="226.0" x2="523.6" y2="201.3" stroke="rgb(0,0,0)"  stroke-width="1.0"/>
<line x1="528.0" y1="180.7" x2="548.1" y2="162.7" stroke="rgb(0,0,0)"  stroke-width="1.0"/>
<line x1="548.1" y1="162.7" x2="582.7" y2="182.7" stroke="rgb(0,0,0)"  stroke-width="1.0"/>
<line x1="582.7" y1="182.7" x2="577.1" y2="209.1" stroke="rgb(0,0,0)"  stroke-width="1.0"/>
<line x1="561.5" y1="223.2" x2="534.6" y2="226.0" stroke="rgb(0,0,0)"  stroke-width="1.0"/>
<line x1="157.4" y1="79.6" x2="168.4" y2="104.3" stroke="rgb(0,0,0)"  stroke-width="1.0"/>
<line x1="164.0" y1="124.9" x2="143.9" y2="142.9" stroke="rgb(0,0,0)"  stroke-width="1.0"/>
<line x1="143.9" y1="142.9" x2="109.3" y2="122.9" stroke="rgb(0,0,0)"  stroke-width="1.0"/>
<line x1="109.3" y1="122.9" x2="114.9" y2="96.5" stroke="rgb(0,0,0)"  stroke-width="1.0"/>
<line x1="130.5" y1="82.5" x2="157.4" y2="79.6" stroke="rgb(0,0,0)"  stroke-width="1.0"/>
<line x1="582.7" y1="102.7" x2="606.1" y2="116.2" stroke="rgb(0,0,0)"  stroke-width="1.0"/>
<line x1="617.3" y1="135.7" x2="617.3" y2="162.7" stroke="rgb(0,0,0)"  stroke-width="1.0"/>
<line x1="617.3" y1="162.7" x2="582.7" y2="182.7" stroke="rgb(0,0,0)"  stroke-width="1.0"/>
<line x1="548.1" y1="162.7" x2="548.1" y2="135.7" stroke="rgb(0,0,0)"  stroke-width="1.0"/>
<line x1="559.3" y1="116.2" x2="582.7" y2="102.7" stroke="rgb(0,0,0)"  stroke-width="1.0"/>
<line x1="109.3" y1="202.9" x2="85.9" y2="189.4" stroke="rgb(0,0,0)"  stroke-width="1.0"/>
<line x1="74.6" y1="169.9" x2="74.6" y2="142.9" stroke="rgb(0,0,0)"  stroke-width="1.0"/>
<line x1="74.6" y1="142.9" x2="109.3" y2="122.9" stroke="rgb(0,0,0)"  stroke-width="1.0"/>
<line x1="143.9" y1="142.9" x2="143.9" y2="169.9" stroke="rgb(0,0,0)"  stroke-width="1.0"/>
<line x1="132.7" y1="189.4" x2="109.3" y2="202.9" stroke="rgb(0,0,0)"  stroke-width="1.0"/>
<line x1="354.7" y1="78.3" x2="368.4" y2="81.3" stroke="rgb(0,0,0)"  stroke-width="1.0"/>
<line x1="390.7" y1="92.7" x2="410.8" y2="110.7" stroke="rgb(0,0,0)"  stroke-width="1.0"/>
<line x1="410.8" y1="110.7" x2="423.2" y2="148.8" stroke="rgb(0,0,0)"  stroke-width="1.0"/>
<line x1="414.8" y1="187.9" x2="396.8" y2="208.0" stroke="rgb(0,0,0)"  stroke-width="1.0"/>
<line x1="375.7" y1="221.6" x2="362.4" y2="226.0" stroke="rgb(0,0,0)"  stroke-width="1.0"/>
<line x1="337.3" y1="227.3" x2="323.6" y2="224.4" stroke="rgb(0,0,0)"  stroke-width="1.0"/>
<line x1="301.3" y1="213.0" x2="281.2" y2="194.9" stroke="rgb(0,0,0)"  stroke-width="1.0"/>
<line x1="281.2" y1="194.9" x2="268.8" y2="156.9" stroke="rgb(0,0,0)"  stroke-width="1.0"/>
<line x1="277.1" y1="117.7" x2="295.2" y2="97.7" stroke="rgb(0,0,0)"  stroke-width="1.0"/>
<line x1="316.3" y1="84.0" x2="329.6" y2="79.7" stroke="rgb(0,0,0)"  stroke-width="1.0"/>
<text x="335.949040" y="83.640261" fill="rgb(255,127,0)"  stroke="rgb(255,127,0)" stroke-width="1" font-size="16" >P</text>
<text x="344.037464" y="237.976590" fill="rgb(255,127,0)"  stroke="rgb(255,127,0)" stroke-width="1" font-size="16" >P</text>
<text x="364.908660" y="35.968000" fill="rgb(255,12,12)"  stroke="rgb(255,12,12)" stroke-width="1" font-size="32" >-</text>
<text x="354.108660" y="48.000000" fill="rgb(255,12,12)"  stroke="rgb(255,12,12)" stroke-width="1" font-size="16" >O</text>
<text x="314.163478" y="50.093438" fill="rgb(255,12,12)"  stroke="rgb(255,12,12)" stroke-width="1" font-size="16" >O</text>
<text x="375.074944" y="91.956729" fill="rgb(255,12,12)"  stroke="rgb(255,12,12)" stroke-width="1" font-size="16" >O</text>
<text x="456.942292" y="152.583075" fill="rgb(255,12,12)"  stroke="rgb(255,12,12)" stroke-width="1" font-size="16" >O</text>
<text x="382.079725" y="225.615911" fill="rgb(255,12,12)"  stroke="rgb(255,12,12)" stroke-width="1" font-size="16" >O</text>
<text x="447.667103" y="255.670993" fill="rgb(255,12,12)"  stroke="rgb(255,12,12)" stroke-width="1" font-size="16" >OH</text>
<text x="611.345487" y="130.676137" fill="rgb(12,12,255)"  stroke="rgb(12,12,255)" stroke-width="1" font-size="16" >NH</text>
<text x="578.704471" y="70.676137" fill="rgb(12,12,255)"  stroke="rgb(12,12,255)" stroke-width="1" font-size="16" >NH</text>
<text x="602.704471" y="74.356137" fill="rgb(12,12,255)"  stroke="rgb(12,12,255)" stroke-width="1" font-size="13" >2</text>
<text x="220.319400" y="65.945858" fill="rgb(255,12,12)"  stroke="rgb(255,12,12)" stroke-width="1" font-size="16" >HO</text>
<text x="530.063455" y="130.676137" fill="rgb(12,12,255)"  stroke="rgb(12,12,255)" stroke-width="1" font-size="16" >HN</text>
<text x="297.906779" y="96.000941" fill="rgb(255,12,12)"  stroke="rgb(255,12,12)" stroke-width="1" font-size="16" >O</text>
<text x="223.044211" y="169.033776" fill="rgb(255,12,12)"  stroke="rgb(255,12,12)" stroke-width="1" font-size="16" >O</text>
<text x="304.911560" y="229.660123" fill="rgb(255,12,12)"  stroke="rgb(255,12,12)" stroke-width="1" font-size="16" >O</text>
<text x="645.986503" y="190.676137" fill="rgb(255,12,12)"  stroke="rgb(255,12,12)" stroke-width="1" font-size="16" >O</text>
<text x="568.388004" y="229.802041" fill="rgb(12,12,255)"  stroke="rgb(12,12,255)" stroke-width="1" font-size="16" >N</text>
<text x="568.388004" y="245.802041" fill="rgb(12,12,255)"  stroke="rgb(12,12,255)" stroke-width="1" font-size="16" >H</text>
<text x="512.337662" y="197.441361" fill="rgb(12,12,255)"  stroke="rgb(12,12,255)" stroke-width="1" font-size="16" >N</text>
<text x="56.641016" y="190.940715" fill="rgb(12,12,255)"  stroke="rgb(12,12,255)" stroke-width="1" font-size="16" >HN</text>
<text x="336.677844" y="261.584851" fill="rgb(255,12,12)"  stroke="rgb(255,12,12)" stroke-width="1" font-size="32" >-</text>
<text x="325.877844" y="273.616851" fill="rgb(255,12,12)"  stroke="rgb(255,12,12)" stroke-width="1" font-size="16" >O</text>
<text x="105.282032" y="250.940715" fill="rgb(12,12,255)"  stroke="rgb(12,12,255)" stroke-width="1" font-size="16" >NH</text>
<text x="129.282032" y="254.620715" fill="rgb(12,12,255)"  stroke="rgb(12,12,255)" stroke-width="1" font-size="13" >2</text>
<text x="365.823025" y="271.523413" fill="rgb(255,12,12)"  stroke="rgb(255,12,12)" stroke-width="1" font-size="16" >O</text>
<text x="137.923048" y="190.940715" fill="rgb(12,12,255)"  stroke="rgb(12,12,255)" stroke-width="1" font-size="16" >NH</text>
<text x="34.000000" y="130.940715" fill="rgb(255,12,12)"  stroke="rgb(255,12,12)" stroke-width="1" font-size="16" >O</text>
<text x="111.598500" y="91.814811" fill="rgb(12,12,255)"  stroke="rgb(12,12,255)" stroke-width="1" font-size="16" >N</text>
<text x="111.598500" y="75.814811" fill="rgb(12,12,255)"  stroke="rgb(12,12,255)" stroke-width="1" font-size="16" >H</text>
<text x="167.648841" y="124.175490" fill="rgb(12,12,255)"  stroke="rgb(12,12,255)" stroke-width="1" font-size="16" >N</text>
<text font-size="18.000000" fill ="black" font-family="sans-serif"
x="10.000000" y="20.000000" ></text>
<title> - OBDepict</title>
</svg>
