<?xml version="1.0"?>
<svg xmlns="http://www.w3.org/2000/svg"
xmlns:xlink="http://www.w3.org/1999/xlink" xmlns:cml="http://www.xml-cml.org/schema" width="253.205" height="200" x="0" y="0" font-family="sans-serif" stroke="rgb(0,0,0)" stroke-width="1"  stroke-linecap="round">
<rect x="0%" y="0%" width="100%" height="100%" stroke-width="0" fill="rgb(255,255,255)"  />
<line x1="74.6" y1="60.0" x2="51.3" y2="46.5" stroke="rgb(0,0,0)"  stroke-width="1.0"/>
<line x1="109.3" y1="120.0" x2="109.3" y2="147.0" stroke="rgb(0,0,0)"  stroke-width="1.0"/>
<line x1="74.6" y1="60.0" x2="74.6" y2="87.0" stroke="rgb(0,0,0)"  stroke-width="1.0"/>
<line x1="86.1" y1="106.6" x2="109.3" y2="120.0" stroke="rgb(0,0,0)"  stroke-width="1.0"/>
<line x1="91.4" y1="101.4" x2="107.7" y2="110.8" stroke="rgb(0,0,0)"  stroke-width="1.0"/>
<line x1="109.3" y1="120.0" x2="143.9" y2="100.0" stroke="rgb(0,0,0)"  stroke-width="1.0"/>
<line x1="143.9" y1="100.0" x2="143.9" y2="60.0" stroke="rgb(0,0,0)"  stroke-width="1.0"/>
<line x1="143.9" y1="60.0" x2="120.5" y2="46.5" stroke="rgb(0,0,0)"  stroke-width="1.0"/>
<line x1="97.9" y1="46.6" x2="74.6" y2="60.0" stroke="rgb(0,0,0)"  stroke-width="1.0"/>
<line x1="99.7" y1="53.8" x2="83.4" y2="63.2" stroke="rgb(0,0,0)"  stroke-width="1.0"/>
<line x1="167.1" y1="46.6" x2="143.9" y2="60.0" stroke="rgb(0,0,0)"  stroke-width="1.0"/>
<line x1="169.0" y1="53.8" x2="152.7" y2="63.2" stroke="rgb(0,0,0)"  stroke-width="1.0"/>
<line x1="143.9" y1="100.0" x2="178.6" y2="120.0" stroke="rgb(0,0,0)"  stroke-width="1.0"/>
<line x1="152.7" y1="96.8" x2="177.0" y2="110.8" stroke="rgb(0,0,0)"  stroke-width="1.0"/>
<line x1="178.6" y1="120.0" x2="201.9" y2="106.5" stroke="rgb(0,0,0)"  stroke-width="1.0"/>
<line x1="213.2" y1="86.8" x2="213.2" y2="60.0" stroke="rgb(0,0,0)"  stroke-width="1.0"/>
<line x1="206.0" y1="84.8" x2="206.0" y2="66.0" stroke="rgb(0,0,0)"  stroke-width="1.0"/>
<line x1="213.2" y1="60.0" x2="189.8" y2="46.5" stroke="rgb(0,0,0)"  stroke-width="1.0"/>
<text x="14.000000" y="48.000000" fill="rgb(12,12,255)"  stroke="rgb(12,12,255)" stroke-width="1" font-size="16" >H</text>
<text x="26.000000" y="51.680000" fill="rgb(12,12,255)"  stroke="rgb(12,12,255)" stroke-width="1" font-size="13" >2</text>
<text x="32.500000" y="48.000000" fill="rgb(12,12,255)"  stroke="rgb(12,12,255)" stroke-width="1" font-size="16" >N</text>
<text x="105.282032" y="168.000000" fill="rgb(12,12,255)"  stroke="rgb(12,12,255)" stroke-width="1" font-size="16" >NH</text>
<text x="129.282032" y="171.680000" fill="rgb(12,12,255)"  stroke="rgb(12,12,255)" stroke-width="1" font-size="13" >2</text>
<text x="68.641016" y="108.000000" fill="rgb(12,12,255)"  stroke="rgb(12,12,255)" stroke-width="1" font-size="16" >N</text>
<text x="103.282032" y="48.000000" fill="rgb(12,12,255)"  stroke="rgb(12,12,255)" stroke-width="1" font-size="16" >N</text>
<text x="207.205081" y="108.000000" fill="rgb(12,12,255)"  stroke="rgb(12,12,255)" stroke-width="1" font-size="16" >N</text>
<text x="172.564065" y="48.000000" fill="rgb(12,12,255)"  stroke="rgb(12,12,255)" stroke-width="1" font-size="16" >N</text>
<text font-size="18.000000" fill ="black" font-family="sans-serif"
x="10.000000" y="20.000000" ></text>
<title> - OBDepict</title>
</svg>
