<?xml version="1.0"?>
<svg xmlns="http://www.w3.org/2000/svg"
xmlns:xlink="http://www.w3.org/1999/xlink" xmlns:cml="http://www.xml-cml.org/schema" width="400" height="403.923" x="0" y="0" font-family="sans-serif" stroke="rgb(0,0,0)" stroke-width="1"  stroke-linecap="round">
<rect x="0%" y="0%" width="100%" height="100%" stroke-width="0" fill="rgb(255,255,255)"  />
<line x1="180.0" y1="143.9" x2="207.0" y2="143.9" stroke="rgb(0,0,0)"  stroke-width="1.0"/>
<line x1="226.5" y1="63.4" x2="240.0" y2="40.0" stroke="rgb(0,0,0)"  stroke-width="1.0"/>
<line x1="240.0" y1="40.0" x2="280.0" y2="40.0" stroke="rgb(0,0,0)"  stroke-width="1.0"/>
<line x1="220.0" y1="156.9" x2="220.0" y2="183.9" stroke="rgb(0,0,0)"  stroke-width="1.0"/>
<line x1="280.0" y1="40.0" x2="293.5" y2="63.4" stroke="rgb(0,0,0)"  stroke-width="1.0"/>
<line x1="220.0" y1="183.9" x2="185.4" y2="203.9" stroke="rgb(0,0,0)"  stroke-width="1.0"/>
<line x1="185.4" y1="203.9" x2="185.4" y2="243.9" stroke="rgb(0,0,0)"  stroke-width="1.0"/>
<line x1="313.0" y1="74.6" x2="340.0" y2="74.6" stroke="rgb(0,0,0)"  stroke-width="1.0"/>
<line x1="340.0" y1="74.6" x2="353.5" y2="51.3" stroke="rgb(0,0,0)"  stroke-width="1.0"/>
<line x1="340.0" y1="74.6" x2="353.5" y2="98.0" stroke="rgb(0,0,0)"  stroke-width="1.0"/>
<line x1="185.4" y1="243.9" x2="150.7" y2="263.9" stroke="rgb(0,0,0)"  stroke-width="1.0"/>
<line x1="150.7" y1="263.9" x2="150.7" y2="290.9" stroke="rgb(0,0,0)"  stroke-width="1.0"/>
<line x1="162.0" y1="310.4" x2="185.4" y2="323.9" stroke="rgb(0,0,0)"  stroke-width="1.0"/>
<line x1="185.4" y1="323.9" x2="208.7" y2="310.4" stroke="rgb(0,0,0)"  stroke-width="1.0"/>
<line x1="185.4" y1="323.9" x2="185.4" y2="350.9" stroke="rgb(0,0,0)"  stroke-width="1.0"/>
<line x1="180.0" y1="74.6" x2="207.0" y2="74.6" stroke="rgb(0,0,0)"  stroke-width="1.0"/>
<line x1="53.5" y1="85.9" x2="46.5" y2="98.0" stroke="rgb(0,0,0)"  stroke-width="1.0"/>
<line x1="160.0" y1="109.3" x2="180.0" y2="143.9" stroke="rgb(0,0,0)"  stroke-width="1.0"/>
<line x1="100.0" y1="74.6" x2="73.0" y2="74.6" stroke="rgb(0,0,0)"  stroke-width="1.0"/>
<line x1="180.0" y1="74.6" x2="160.0" y2="109.3" stroke="rgb(0,0,0)"  stroke-width="1.0"/>
<line x1="170.8" y1="76.2" x2="156.8" y2="100.5" stroke="rgb(0,0,0)"  stroke-width="1.0"/>
<line x1="160.0" y1="109.3" x2="120.0" y2="109.3" stroke="rgb(0,0,0)"  stroke-width="1.0"/>
<line x1="120.0" y1="109.3" x2="100.0" y2="74.6" stroke="rgb(0,0,0)"  stroke-width="1.0"/>
<line x1="123.2" y1="100.5" x2="109.2" y2="76.2" stroke="rgb(0,0,0)"  stroke-width="1.0"/>
<line x1="100.0" y1="74.6" x2="120.0" y2="40.0" stroke="rgb(0,0,0)"  stroke-width="1.0"/>
<line x1="120.0" y1="40.0" x2="160.0" y2="40.0" stroke="rgb(0,0,0)"  stroke-width="1.0"/>
<line x1="126.0" y1="47.2" x2="154.0" y2="47.2" stroke="rgb(0,0,0)"  stroke-width="1.0"/>
<line x1="160.0" y1="40.0" x2="180.0" y2="74.6" stroke="rgb(0,0,0)"  stroke-width="1.0"/>
<text x="214.000000" y="82.641016" fill="rgb(255,12,12)"  stroke="rgb(255,12,12)" stroke-width="1" font-size="16" >O</text>
<text x="214.000000" y="151.923048" fill="rgb(12,12,255)"  stroke="rgb(12,12,255)" stroke-width="1" font-size="16" >NH</text>
<text x="294.000000" y="82.641016" fill="rgb(12,12,255)"  stroke="rgb(12,12,255)" stroke-width="1" font-size="16" >N</text>
<text x="294.000000" y="98.641016" fill="rgb(12,12,255)"  stroke="rgb(12,12,255)" stroke-width="1" font-size="16" >H</text>
<text x="356.000000" y="48.000000" fill="rgb(12,12,255)"  stroke="rgb(12,12,255)" stroke-width="1" font-size="16" >NH</text>
<text x="380.000000" y="51.680000" fill="rgb(12,12,255)"  stroke="rgb(12,12,255)" stroke-width="1" font-size="13" >2</text>
<text x="356.000000" y="117.282032" fill="rgb(12,12,255)"  stroke="rgb(12,12,255)" stroke-width="1" font-size="16" >NH</text>
<text x="380.000000" y="120.962032" fill="rgb(12,12,255)"  stroke="rgb(12,12,255)" stroke-width="1" font-size="13" >2</text>
<text x="132.717968" y="311.923048" fill="rgb(12,12,255)"  stroke="rgb(12,12,255)" stroke-width="1" font-size="16" >HN</text>
<text x="216.000000" y="311.923048" fill="rgb(12,12,255)"  stroke="rgb(12,12,255)" stroke-width="1" font-size="16" >NH</text>
<text x="240.000000" y="315.603048" fill="rgb(12,12,255)"  stroke="rgb(12,12,255)" stroke-width="1" font-size="13" >2</text>
<text x="181.358984" y="371.923048" fill="rgb(12,12,255)"  stroke="rgb(12,12,255)" stroke-width="1" font-size="16" >NH</text>
<text x="205.358984" y="375.603048" fill="rgb(12,12,255)"  stroke="rgb(12,12,255)" stroke-width="1" font-size="13" >2</text>
<text x="54.000000" y="82.641016" fill="rgb(255,12,12)"  stroke="rgb(255,12,12)" stroke-width="1" font-size="16" >O</text>
<text x="14.000000" y="117.282032" fill="rgb(102,102,102)"  stroke="rgb(102,102,102)" stroke-width="1" font-size="16" >H</text>
<text x="26.000000" y="120.962032" fill="rgb(102,102,102)"  stroke="rgb(102,102,102)" stroke-width="1" font-size="13" >3</text>
<text x="32.500000" y="117.282032" fill="rgb(102,102,102)"  stroke="rgb(102,102,102)" stroke-width="1" font-size="16" >C</text>
<text font-size="18.000000" fill ="black" font-family="sans-serif"
x="10.000000" y="20.000000" ></text>
<title> - OBDepict</title>
</svg>
