<?xml version="1.0"?>
<svg xmlns="http://www.w3.org/2000/svg"
xmlns:xlink="http://www.w3.org/1999/xlink" xmlns:cml="http://www.xml-cml.org/schema" width="322.487" height="200" x="0" y="0" font-family="sans-serif" stroke="rgb(0,0,0)" stroke-width="1"  stroke-linecap="round">
<rect x="0%" y="0%" width="100%" height="100%" stroke-width="0" fill="rgb(255,255,255)"  />
<line x1="102.0" y1="96.7" x2="102.8" y2="95.3" stroke="rgb(0,0,0)"  stroke-width="1.0"/>
<line x1="96.1" y1="94.0" x2="97.5" y2="91.6" stroke="rgb(0,0,0)"  stroke-width="1.0"/>
<line x1="90.2" y1="91.4" x2="92.3" y2="87.8" stroke="rgb(0,0,0)"  stroke-width="1.0"/>
<line x1="84.4" y1="88.8" x2="87.1" y2="84.0" stroke="rgb(0,0,0)"  stroke-width="1.0"/>
<line x1="78.5" y1="86.1" x2="81.9" y2="80.3" stroke="rgb(0,0,0)"  stroke-width="1.0"/>
<line x1="72.6" y1="83.5" x2="76.6" y2="76.5" stroke="rgb(0,0,0)"  stroke-width="1.0"/>
<line x1="74.6" y1="80.0" x2="74.6" y2="53.0" stroke="rgb(0,0,0)"  stroke-width="1.0"/>
<line x1="76.1" y1="82.6" x2="52.8" y2="96.1" stroke="rgb(0,0,0)"  stroke-width="1.0"/>
<line x1="73.1" y1="77.4" x2="49.8" y2="90.9" stroke="rgb(0,0,0)"  stroke-width="1.0"/>
<line x1="109.3" y1="100.0" x2="143.9" y2="80.0" stroke="rgb(0,0,0)"  stroke-width="1.0"/>
<line x1="109.3" y1="100.0" x2="109.3" y2="127.0" stroke="rgb(0,0,0)"  stroke-width="1.0"/>
<line x1="143.9" y1="80.0" x2="178.6" y2="100.0" stroke="rgb(0,0,0)"  stroke-width="1.0"/>
<line x1="178.6" y1="100.0" x2="178.6" y2="140.0" stroke="rgb(0,0,0)"  stroke-width="1.0"/>
<line x1="178.6" y1="140.0" x2="201.9" y2="153.5" stroke="rgb(0,0,0)"  stroke-width="1.0"/>
<line x1="224.5" y1="153.5" x2="247.8" y2="140.0" stroke="rgb(0,0,0)"  stroke-width="1.0"/>
<line x1="247.8" y1="140.0" x2="247.8" y2="113.0" stroke="rgb(0,0,0)"  stroke-width="1.0"/>
<line x1="249.3" y1="137.4" x2="272.7" y2="150.9" stroke="rgb(0,0,0)"  stroke-width="1.0"/>
<line x1="246.3" y1="142.6" x2="269.7" y2="156.1" stroke="rgb(0,0,0)"  stroke-width="1.0"/>
<text x="79.441016" y="35.968000" fill="rgb(255,12,12)"  stroke="rgb(255,12,12)" stroke-width="1" font-size="32" >-</text>
<text x="68.641016" y="48.000000" fill="rgb(255,12,12)"  stroke="rgb(255,12,12)" stroke-width="1" font-size="16" >O</text>
<text x="34.000000" y="108.000000" fill="rgb(255,12,12)"  stroke="rgb(255,12,12)" stroke-width="1" font-size="16" >O</text>
<text x="114.082032" y="135.968000" fill="rgb(12,12,255)"  stroke="rgb(12,12,255)" stroke-width="1" font-size="16" >+</text>
<text x="105.282032" y="148.000000" fill="rgb(12,12,255)"  stroke="rgb(12,12,255)" stroke-width="1" font-size="16" >NH</text>
<text x="129.282032" y="151.680000" fill="rgb(12,12,255)"  stroke="rgb(12,12,255)" stroke-width="1" font-size="13" >3</text>
<text x="207.205081" y="168.000000" fill="rgb(12,12,255)"  stroke="rgb(12,12,255)" stroke-width="1" font-size="16" >N</text>
<text x="207.205081" y="184.000000" fill="rgb(12,12,255)"  stroke="rgb(12,12,255)" stroke-width="1" font-size="16" >H</text>
<text x="276.487113" y="168.000000" fill="rgb(255,12,12)"  stroke="rgb(255,12,12)" stroke-width="1" font-size="16" >O</text>
<text x="243.846097" y="108.000000" fill="rgb(12,12,255)"  stroke="rgb(12,12,255)" stroke-width="1" font-size="16" >NH</text>
<text x="267.846097" y="111.680000" fill="rgb(12,12,255)"  stroke="rgb(12,12,255)" stroke-width="1" font-size="13" >2</text>
<text font-size="18.000000" fill ="black" font-family="sans-serif"
x="10.000000" y="20.000000" ></text>
<title> - OBDepict</title>
</svg>
