<?xml version="1.0"?>
<svg xmlns="http://www.w3.org/2000/svg"
xmlns:xlink="http://www.w3.org/1999/xlink" xmlns:cml="http://www.xml-cml.org/schema" width="422.533" height="408.721" x="0" y="0" font-family="sans-serif" stroke="rgb(0,0,0)" stroke-width="1"  stroke-linecap="round">
<rect x="0%" y="0%" width="100%" height="100%" stroke-width="0" fill="rgb(255,255,255)"  />
<line x1="72.4" y1="40.0" x2="98.2" y2="40.0" stroke="rgb(0,0,0)"  stroke-width="1.0"/>
<line x1="117.6" y1="73.6" x2="156.5" y2="73.6" stroke="rgb(0,0,0)"  stroke-width="1.0"/>
<line x1="214.7" y1="174.5" x2="227.6" y2="152.1" stroke="rgb(0,0,0)"  stroke-width="1.0"/>
<line x1="156.5" y1="73.6" x2="169.4" y2="96.0" stroke="rgb(0,0,0)"  stroke-width="1.0"/>
<line x1="98.2" y1="40.0" x2="117.6" y2="73.6" stroke="rgb(0,0,0)"  stroke-width="1.0"/>
<line x1="245.4" y1="147.4" x2="267.7" y2="160.3" stroke="rgb(0,0,0)"  stroke-width="1.0"/>
<line x1="267.7" y1="160.3" x2="267.7" y2="199.1" stroke="rgb(0,0,0)"  stroke-width="1.0"/>
<line x1="267.7" y1="199.1" x2="323.7" y2="231.4" stroke="rgb(0,0,0)"  stroke-width="1.0"/>
<line x1="117.6" y1="208.1" x2="98.2" y2="241.7" stroke="rgb(0,0,0)"  stroke-width="1.0"/>
<line x1="175.9" y1="174.5" x2="214.7" y2="174.5" stroke="rgb(0,0,0)"  stroke-width="1.0"/>
<line x1="156.5" y1="140.9" x2="169.4" y2="118.5" stroke="rgb(0,0,0)"  stroke-width="1.0"/>
<line x1="110.2" y1="345.9" x2="98.2" y2="309.0" stroke="rgb(0,0,0)"  stroke-width="1.0"/>
<line x1="98.2" y1="309.0" x2="59.4" y2="309.0" stroke="rgb(0,0,0)"  stroke-width="1.0"/>
<line x1="92.2" y1="316.2" x2="65.4" y2="316.2" stroke="rgb(0,0,0)"  stroke-width="1.0"/>
<line x1="59.4" y1="309.0" x2="51.4" y2="333.5" stroke="rgb(0,0,0)"  stroke-width="1.0"/>
<line x1="57.9" y1="353.5" x2="78.8" y2="368.7" stroke="rgb(0,0,0)"  stroke-width="1.0"/>
<line x1="78.8" y1="368.7" x2="110.2" y2="345.9" stroke="rgb(0,0,0)"  stroke-width="1.0"/>
<line x1="79.4" y1="359.4" x2="101.1" y2="343.6" stroke="rgb(0,0,0)"  stroke-width="1.0"/>
<line x1="347.5" y1="241.3" x2="372.5" y2="248.0" stroke="rgb(0,0,0)"  stroke-width="1.0"/>
<line x1="372.5" y1="248.0" x2="382.5" y2="285.5" stroke="rgb(0,0,0)"  stroke-width="1.0"/>
<line x1="382.5" y1="285.5" x2="364.3" y2="303.7" stroke="rgb(0,0,0)"  stroke-width="1.0"/>
<line x1="342.5" y1="309.6" x2="317.6" y2="302.9" stroke="rgb(0,0,0)"  stroke-width="1.0"/>
<line x1="317.6" y1="302.9" x2="307.5" y2="265.4" stroke="rgb(0,0,0)"  stroke-width="1.0"/>
<line x1="307.5" y1="265.4" x2="325.8" y2="247.1" stroke="rgb(0,0,0)"  stroke-width="1.0"/>
<line x1="156.5" y1="208.1" x2="175.9" y2="174.5" stroke="rgb(0,0,0)"  stroke-width="1.0"/>
<line x1="153.2" y1="199.3" x2="166.6" y2="176.1" stroke="rgb(0,0,0)"  stroke-width="1.0"/>
<line x1="175.9" y1="174.5" x2="156.5" y2="140.9" stroke="rgb(0,0,0)"  stroke-width="1.0"/>
<line x1="156.5" y1="140.9" x2="117.6" y2="140.9" stroke="rgb(0,0,0)"  stroke-width="1.0"/>
<line x1="150.5" y1="148.1" x2="123.6" y2="148.1" stroke="rgb(0,0,0)"  stroke-width="1.0"/>
<line x1="117.6" y1="140.9" x2="98.2" y2="174.5" stroke="rgb(0,0,0)"  stroke-width="1.0"/>
<line x1="98.2" y1="174.5" x2="117.6" y2="208.1" stroke="rgb(0,0,0)"  stroke-width="1.0"/>
<line x1="107.5" y1="176.1" x2="120.9" y2="199.3" stroke="rgb(0,0,0)"  stroke-width="1.0"/>
<line x1="117.6" y1="208.1" x2="156.5" y2="208.1" stroke="rgb(0,0,0)"  stroke-width="1.0"/>
<line x1="59.4" y1="241.7" x2="40.0" y2="275.4" stroke="rgb(0,0,0)"  stroke-width="1.0"/>
<line x1="62.6" y1="250.5" x2="49.2" y2="273.8" stroke="rgb(0,0,0)"  stroke-width="1.0"/>
<line x1="40.0" y1="275.4" x2="59.4" y2="309.0" stroke="rgb(0,0,0)"  stroke-width="1.0"/>
<line x1="98.2" y1="309.0" x2="117.6" y2="275.4" stroke="rgb(0,0,0)"  stroke-width="1.0"/>
<line x1="117.6" y1="275.4" x2="98.2" y2="241.7" stroke="rgb(0,0,0)"  stroke-width="1.0"/>
<line x1="108.4" y1="273.8" x2="95.0" y2="250.5" stroke="rgb(0,0,0)"  stroke-width="1.0"/>
<line x1="98.2" y1="241.7" x2="59.4" y2="241.7" stroke="rgb(0,0,0)"  stroke-width="1.0"/>
<text x="33.411765" y="48.000000" fill="rgb(12,12,255)"  stroke="rgb(12,12,255)" stroke-width="1" font-size="16" >H</text>
<text x="45.411765" y="51.680000" fill="rgb(12,12,255)"  stroke="rgb(12,12,255)" stroke-width="1" font-size="13" >2</text>
<text x="51.911765" y="48.000000" fill="rgb(12,12,255)"  stroke="rgb(12,12,255)" stroke-width="1" font-size="16" >N</text>
<text x="169.882353" y="115.244325" fill="rgb(255,12,12)"  stroke="rgb(255,12,12)" stroke-width="1" font-size="16" >O</text>
<text x="228.117647" y="148.866488" fill="rgb(12,12,255)"  stroke="rgb(12,12,255)" stroke-width="1" font-size="16" >N</text>
<text x="228.117647" y="132.866488" fill="rgb(12,12,255)"  stroke="rgb(12,12,255)" stroke-width="1" font-size="16" >H</text>
<text x="328.984135" y="245.925312" fill="rgb(12,12,255)"  stroke="rgb(12,12,255)" stroke-width="1" font-size="16" >N</text>
<text x="349.080673" y="320.926611" fill="rgb(12,12,255)"  stroke="rgb(12,12,255)" stroke-width="1" font-size="16" >N</text>
<text x="349.080673" y="336.926611" fill="rgb(12,12,255)"  stroke="rgb(12,12,255)" stroke-width="1" font-size="16" >H</text>
<text x="29.414634" y="353.900673" fill="rgb(12,12,255)"  stroke="rgb(12,12,255)" stroke-width="1" font-size="16" >HN</text>
<text font-size="18.000000" fill ="black" font-family="sans-serif"
x="10.000000" y="20.000000" ></text>
<title> - OBDepict</title>
</svg>
