<?xml version="1.0"?>
<svg xmlns="http://www.w3.org/2000/svg"
xmlns:xlink="http://www.w3.org/1999/xlink" xmlns:cml="http://www.xml-cml.org/schema" width="360" height="293.205" x="0" y="0" font-family="sans-serif" stroke="rgb(0,0,0)" stroke-width="1"  stroke-linecap="round">
<rect x="0%" y="0%" width="100%" height="100%" stroke-width="0" fill="rgb(255,255,255)"  />
<line x1="193.5" y1="138.0" x2="180.0" y2="114.6" stroke="rgb(0,0,0)"  stroke-width="1.0"/>
<line x1="120.0" y1="218.6" x2="80.0" y2="218.6" stroke="rgb(0,0,0)"  stroke-width="1.0"/>
<line x1="180.0" y1="114.6" x2="140.0" y2="114.6" stroke="rgb(0,0,0)"  stroke-width="1.0"/>
<line x1="140.0" y1="114.6" x2="120.0" y2="80.0" stroke="rgb(0,0,0)"  stroke-width="1.0"/>
<line x1="120.0" y1="80.0" x2="93.0" y2="80.0" stroke="rgb(0,0,0)"  stroke-width="1.0"/>
<line x1="67.0" y1="80.0" x2="53.0" y2="80.0" stroke="rgb(0,0,0)"  stroke-width="1.0"/>
<line x1="80.0" y1="67.0" x2="80.0" y2="53.0" stroke="rgb(0,0,0)"  stroke-width="1.0"/>
<line x1="80.0" y1="218.6" x2="66.5" y2="195.2" stroke="rgb(0,0,0)"  stroke-width="1.0"/>
<line x1="82.6" y1="220.1" x2="69.1" y2="243.4" stroke="rgb(0,0,0)"  stroke-width="1.0"/>
<line x1="77.4" y1="217.1" x2="63.9" y2="240.4" stroke="rgb(0,0,0)"  stroke-width="1.0"/>
<line x1="227.0" y1="218.6" x2="200.0" y2="218.6" stroke="rgb(0,0,0)"  stroke-width="1.0"/>
<line x1="200.0" y1="218.6" x2="180.0" y2="183.9" stroke="rgb(0,0,0)"  stroke-width="1.0"/>
<line x1="203.2" y1="209.8" x2="189.2" y2="185.5" stroke="rgb(0,0,0)"  stroke-width="1.0"/>
<line x1="180.0" y1="183.9" x2="193.5" y2="160.5" stroke="rgb(0,0,0)"  stroke-width="1.0"/>
<line x1="213.0" y1="149.3" x2="240.0" y2="149.3" stroke="rgb(0,0,0)"  stroke-width="1.0"/>
<line x1="240.0" y1="149.3" x2="260.0" y2="183.9" stroke="rgb(0,0,0)"  stroke-width="1.0"/>
<line x1="260.0" y1="183.9" x2="246.5" y2="207.3" stroke="rgb(0,0,0)"  stroke-width="1.0"/>
<line x1="140.0" y1="253.2" x2="120.0" y2="218.6" stroke="rgb(0,0,0)"  stroke-width="1.0"/>
<line x1="120.0" y1="218.6" x2="140.0" y2="183.9" stroke="rgb(0,0,0)"  stroke-width="1.0"/>
<line x1="129.2" y1="217.0" x2="143.2" y2="192.7" stroke="rgb(0,0,0)"  stroke-width="1.0"/>
<line x1="140.0" y1="183.9" x2="180.0" y2="183.9" stroke="rgb(0,0,0)"  stroke-width="1.0"/>
<line x1="200.0" y1="218.6" x2="180.0" y2="253.2" stroke="rgb(0,0,0)"  stroke-width="1.0"/>
<line x1="180.0" y1="253.2" x2="140.0" y2="253.2" stroke="rgb(0,0,0)"  stroke-width="1.0"/>
<line x1="174.0" y1="246.0" x2="146.0" y2="246.0" stroke="rgb(0,0,0)"  stroke-width="1.0"/>
<line x1="300.0" y1="114.6" x2="320.0" y2="149.3" stroke="rgb(0,0,0)"  stroke-width="1.0"/>
<line x1="296.8" y1="123.4" x2="310.8" y2="147.7" stroke="rgb(0,0,0)"  stroke-width="1.0"/>
<line x1="320.0" y1="149.3" x2="300.0" y2="183.9" stroke="rgb(0,0,0)"  stroke-width="1.0"/>
<line x1="300.0" y1="183.9" x2="260.0" y2="183.9" stroke="rgb(0,0,0)"  stroke-width="1.0"/>
<line x1="294.0" y1="176.7" x2="266.0" y2="176.7" stroke="rgb(0,0,0)"  stroke-width="1.0"/>
<line x1="240.0" y1="149.3" x2="260.0" y2="114.6" stroke="rgb(0,0,0)"  stroke-width="1.0"/>
<line x1="249.2" y1="147.7" x2="263.2" y2="123.4" stroke="rgb(0,0,0)"  stroke-width="1.0"/>
<line x1="260.0" y1="114.6" x2="300.0" y2="114.6" stroke="rgb(0,0,0)"  stroke-width="1.0"/>
<text x="234.000000" y="226.564065" fill="rgb(178,178,0)"  stroke="rgb(178,178,0)" stroke-width="1" font-size="16" >S</text>
<text x="194.000000" y="157.282032" fill="rgb(12,12,255)"  stroke="rgb(12,12,255)" stroke-width="1" font-size="16" >N</text>
<text x="84.800000" y="75.968000" fill="rgb(12,12,255)"  stroke="rgb(12,12,255)" stroke-width="1" font-size="16" >+</text>
<text x="74.000000" y="88.000000" fill="rgb(12,12,255)"  stroke="rgb(12,12,255)" stroke-width="1" font-size="16" >NH</text>
<text x="14.000000" y="88.000000" fill="rgb(102,102,102)"  stroke="rgb(102,102,102)" stroke-width="1" font-size="16" >H</text>
<text x="26.000000" y="91.680000" fill="rgb(102,102,102)"  stroke="rgb(102,102,102)" stroke-width="1" font-size="13" >3</text>
<text x="32.500000" y="88.000000" fill="rgb(102,102,102)"  stroke="rgb(102,102,102)" stroke-width="1" font-size="16" >C</text>
<text x="76.000000" y="48.000000" fill="rgb(102,102,102)"  stroke="rgb(102,102,102)" stroke-width="1" font-size="16" >CH</text>
<text x="100.000000" y="51.680000" fill="rgb(102,102,102)"  stroke="rgb(102,102,102)" stroke-width="1" font-size="13" >3</text>
<text x="34.000000" y="191.923048" fill="rgb(102,102,102)"  stroke="rgb(102,102,102)" stroke-width="1" font-size="16" >H</text>
<text x="46.000000" y="195.603048" fill="rgb(102,102,102)"  stroke="rgb(102,102,102)" stroke-width="1" font-size="13" >3</text>
<text x="52.500000" y="191.923048" fill="rgb(102,102,102)"  stroke="rgb(102,102,102)" stroke-width="1" font-size="16" >C</text>
<text x="54.000000" y="261.205081" fill="rgb(255,12,12)"  stroke="rgb(255,12,12)" stroke-width="1" font-size="16" >O</text>
<text font-size="18.000000" fill ="black" font-family="sans-serif"
x="10.000000" y="20.000000" ></text>
<title> - OBDepict</title>
</svg>
