<?xml version="1.0"?>
<svg xmlns="http://www.w3.org/2000/svg"
xmlns:xlink="http://www.w3.org/1999/xlink" xmlns:cml="http://www.xml-cml.org/schema" width="495.692" height="260" x="0" y="0" font-family="sans-serif" stroke="rgb(0,0,0)" stroke-width="1"  stroke-linecap="round">
<rect x="0%" y="0%" width="100%" height="100%" stroke-width="0" fill="rgb(255,255,255)"  />
<line x1="420.3" y1="92.0" x2="421.9" y2="92.0" stroke="rgb(0,0,0)"  stroke-width="1.0"/>
<line x1="419.6" y1="85.6" x2="422.5" y2="85.6" stroke="rgb(0,0,0)"  stroke-width="1.0"/>
<line x1="419.0" y1="79.2" x2="423.1" y2="79.2" stroke="rgb(0,0,0)"  stroke-width="1.0"/>
<line x1="418.3" y1="72.8" x2="423.8" y2="72.8" stroke="rgb(0,0,0)"  stroke-width="1.0"/>
<line x1="417.7" y1="66.4" x2="424.4" y2="66.4" stroke="rgb(0,0,0)"  stroke-width="1.0"/>
<line x1="417.1" y1="60.0" x2="425.1" y2="60.0" stroke="rgb(0,0,0)"  stroke-width="1.0"/>
<polygon points="386.410162 160.000000 365.200681 176.864102 361.200681 169.935898 " stroke-width="1.000000" fill="rgb(0,0,0)"  stroke="rgb(0,0,0)" />
<polygon points="317.128129 160.000000 342.337610 169.935898 338.337610 176.864102 " stroke-width="1.000000" fill="rgb(0,0,0)"  stroke="rgb(0,0,0)" />
<polygon points="421.051178 180.000000 425.051178 206.800000 417.051178 206.800000 " stroke-width="1.000000" fill="rgb(0,0,0)"  stroke="rgb(0,0,0)" />
<line x1="421.1" y1="60.0" x2="397.7" y2="46.5" stroke="rgb(0,0,0)"  stroke-width="1.0"/>
<line x1="321.4" y1="116.6" x2="322.2" y2="118.0" stroke="rgb(0,0,0)"  stroke-width="1.0"/>
<line x1="324.8" y1="113.9" x2="326.2" y2="116.4" stroke="rgb(0,0,0)"  stroke-width="1.0"/>
<line x1="328.2" y1="111.2" x2="330.2" y2="114.8" stroke="rgb(0,0,0)"  stroke-width="1.0"/>
<line x1="331.6" y1="108.5" x2="334.3" y2="113.2" stroke="rgb(0,0,0)"  stroke-width="1.0"/>
<line x1="334.9" y1="105.8" x2="338.3" y2="111.7" stroke="rgb(0,0,0)"  stroke-width="1.0"/>
<line x1="338.3" y1="103.1" x2="342.3" y2="110.1" stroke="rgb(0,0,0)"  stroke-width="1.0"/>
<line x1="242.8" y1="118.0" x2="243.6" y2="116.6" stroke="rgb(0,0,0)"  stroke-width="1.0"/>
<line x1="238.8" y1="116.4" x2="240.2" y2="113.9" stroke="rgb(0,0,0)"  stroke-width="1.0"/>
<line x1="234.7" y1="114.8" x2="236.8" y2="111.2" stroke="rgb(0,0,0)"  stroke-width="1.0"/>
<line x1="230.7" y1="113.2" x2="233.4" y2="108.5" stroke="rgb(0,0,0)"  stroke-width="1.0"/>
<line x1="226.7" y1="111.7" x2="230.0" y2="105.8" stroke="rgb(0,0,0)"  stroke-width="1.0"/>
<line x1="222.6" y1="110.1" x2="226.6" y2="103.1" stroke="rgb(0,0,0)"  stroke-width="1.0"/>
<polygon points="247.846097 160.000000 226.636616 176.864102 222.636616 169.935898 " stroke-width="1.000000" fill="rgb(0,0,0)"  stroke="rgb(0,0,0)" />
<line x1="283.3" y1="185.4" x2="281.7" y2="185.4" stroke="rgb(0,0,0)"  stroke-width="1.0"/>
<line x1="283.9" y1="189.6" x2="281.0" y2="189.6" stroke="rgb(0,0,0)"  stroke-width="1.0"/>
<line x1="284.6" y1="193.9" x2="280.4" y2="193.9" stroke="rgb(0,0,0)"  stroke-width="1.0"/>
<line x1="285.2" y1="198.2" x2="279.8" y2="198.2" stroke="rgb(0,0,0)"  stroke-width="1.0"/>
<line x1="285.8" y1="202.5" x2="279.1" y2="202.5" stroke="rgb(0,0,0)"  stroke-width="1.0"/>
<line x1="286.5" y1="206.8" x2="278.5" y2="206.8" stroke="rgb(0,0,0)"  stroke-width="1.0"/>
<line x1="105.9" y1="115.8" x2="107.3" y2="115.0" stroke="rgb(0,0,0)"  stroke-width="1.0"/>
<line x1="103.2" y1="112.4" x2="105.7" y2="110.9" stroke="rgb(0,0,0)"  stroke-width="1.0"/>
<line x1="100.5" y1="109.0" x2="104.1" y2="106.9" stroke="rgb(0,0,0)"  stroke-width="1.0"/>
<line x1="97.8" y1="105.6" x2="102.5" y2="102.9" stroke="rgb(0,0,0)"  stroke-width="1.0"/>
<line x1="95.1" y1="102.2" x2="100.9" y2="98.8" stroke="rgb(0,0,0)"  stroke-width="1.0"/>
<line x1="92.4" y1="98.8" x2="99.3" y2="94.8" stroke="rgb(0,0,0)"  stroke-width="1.0"/>
<line x1="109.3" y1="120.0" x2="82.3" y2="120.0" stroke="rgb(0,0,0)"  stroke-width="1.0"/>
<polygon points="109.282032 160.000000 88.072551 176.864102 84.072551 169.935898 " stroke-width="1.000000" fill="rgb(0,0,0)"  stroke="rgb(0,0,0)" />
<line x1="144.7" y1="185.4" x2="143.1" y2="185.4" stroke="rgb(0,0,0)"  stroke-width="1.0"/>
<line x1="145.4" y1="189.6" x2="142.5" y2="189.6" stroke="rgb(0,0,0)"  stroke-width="1.0"/>
<line x1="146.0" y1="193.9" x2="141.8" y2="193.9" stroke="rgb(0,0,0)"  stroke-width="1.0"/>
<line x1="146.6" y1="198.2" x2="141.2" y2="198.2" stroke="rgb(0,0,0)"  stroke-width="1.0"/>
<line x1="147.3" y1="202.5" x2="140.6" y2="202.5" stroke="rgb(0,0,0)"  stroke-width="1.0"/>
<line x1="147.9" y1="206.8" x2="139.9" y2="206.8" stroke="rgb(0,0,0)"  stroke-width="1.0"/>
<line x1="183.6" y1="162.0" x2="182.8" y2="163.4" stroke="rgb(0,0,0)"  stroke-width="1.0"/>
<line x1="187.6" y1="163.6" x2="186.2" y2="166.1" stroke="rgb(0,0,0)"  stroke-width="1.0"/>
<line x1="191.7" y1="165.2" x2="189.6" y2="168.8" stroke="rgb(0,0,0)"  stroke-width="1.0"/>
<line x1="195.7" y1="166.8" x2="193.0" y2="171.5" stroke="rgb(0,0,0)"  stroke-width="1.0"/>
<line x1="199.7" y1="168.3" x2="196.4" y2="174.2" stroke="rgb(0,0,0)"  stroke-width="1.0"/>
<line x1="203.8" y1="169.9" x2="199.8" y2="176.9" stroke="rgb(0,0,0)"  stroke-width="1.0"/>
<line x1="63.4" y1="186.5" x2="51.3" y2="193.5" stroke="rgb(0,0,0)"  stroke-width="1.0"/>
<line x1="421.1" y1="100.0" x2="397.7" y2="113.5" stroke="rgb(0,0,0)"  stroke-width="1.0"/>
<line x1="386.4" y1="133.0" x2="386.4" y2="160.0" stroke="rgb(0,0,0)"  stroke-width="1.0"/>
<line x1="386.4" y1="160.0" x2="421.1" y2="180.0" stroke="rgb(0,0,0)"  stroke-width="1.0"/>
<line x1="421.1" y1="180.0" x2="455.7" y2="160.0" stroke="rgb(0,0,0)"  stroke-width="1.0"/>
<line x1="455.7" y1="160.0" x2="455.7" y2="120.0" stroke="rgb(0,0,0)"  stroke-width="1.0"/>
<line x1="455.7" y1="120.0" x2="421.1" y2="100.0" stroke="rgb(0,0,0)"  stroke-width="1.0"/>
<line x1="317.1" y1="120.0" x2="282.5" y2="100.0" stroke="rgb(0,0,0)"  stroke-width="1.0"/>
<line x1="282.5" y1="100.0" x2="247.8" y2="120.0" stroke="rgb(0,0,0)"  stroke-width="1.0"/>
<line x1="247.8" y1="120.0" x2="247.8" y2="160.0" stroke="rgb(0,0,0)"  stroke-width="1.0"/>
<line x1="247.8" y1="160.0" x2="282.5" y2="180.0" stroke="rgb(0,0,0)"  stroke-width="1.0"/>
<line x1="282.5" y1="180.0" x2="317.1" y2="160.0" stroke="rgb(0,0,0)"  stroke-width="1.0"/>
<line x1="317.1" y1="160.0" x2="317.1" y2="120.0" stroke="rgb(0,0,0)"  stroke-width="1.0"/>
<line x1="109.3" y1="160.0" x2="143.9" y2="180.0" stroke="rgb(0,0,0)"  stroke-width="1.0"/>
<line x1="143.9" y1="180.0" x2="178.6" y2="160.0" stroke="rgb(0,0,0)"  stroke-width="1.0"/>
<line x1="178.6" y1="160.0" x2="178.6" y2="133.0" stroke="rgb(0,0,0)"  stroke-width="1.0"/>
<line x1="167.3" y1="113.5" x2="143.9" y2="100.0" stroke="rgb(0,0,0)"  stroke-width="1.0"/>
<line x1="143.9" y1="100.0" x2="109.3" y2="120.0" stroke="rgb(0,0,0)"  stroke-width="1.0"/>
<line x1="109.3" y1="120.0" x2="109.3" y2="160.0" stroke="rgb(0,0,0)"  stroke-width="1.0"/>
<text x="380.410162" y="128.000000" fill="rgb(255,12,12)"  stroke="rgb(255,12,12)" stroke-width="1" font-size="16" >O</text>
<text x="345.769145" y="188.000000" fill="rgb(255,12,12)"  stroke="rgb(255,12,12)" stroke-width="1" font-size="16" >O</text>
<text x="425.851178" y="215.968000" fill="rgb(12,12,255)"  stroke="rgb(12,12,255)" stroke-width="1" font-size="16" >+</text>
<text x="417.051178" y="228.000000" fill="rgb(12,12,255)"  stroke="rgb(12,12,255)" stroke-width="1" font-size="16" >NH</text>
<text x="441.051178" y="231.680000" fill="rgb(12,12,255)"  stroke="rgb(12,12,255)" stroke-width="1" font-size="13" >3</text>
<text x="390.310162" y="36.724000" fill="rgb(12,12,255)"  stroke="rgb(12,12,255)" stroke-width="1" font-size="13" >+</text>
<text x="360.410162" y="48.000000" fill="rgb(12,12,255)"  stroke="rgb(12,12,255)" stroke-width="1" font-size="16" >H</text>
<text x="372.410162" y="51.680000" fill="rgb(12,12,255)"  stroke="rgb(12,12,255)" stroke-width="1" font-size="13" >3</text>
<text x="378.910162" y="48.000000" fill="rgb(12,12,255)"  stroke="rgb(12,12,255)" stroke-width="1" font-size="16" >N</text>
<text x="218.005081" y="95.968000" fill="rgb(12,12,255)"  stroke="rgb(12,12,255)" stroke-width="1" font-size="16" >+</text>
<text x="187.205081" y="108.000000" fill="rgb(12,12,255)"  stroke="rgb(12,12,255)" stroke-width="1" font-size="16" >H</text>
<text x="199.205081" y="111.680000" fill="rgb(12,12,255)"  stroke="rgb(12,12,255)" stroke-width="1" font-size="13" >3</text>
<text x="205.705081" y="108.000000" fill="rgb(12,12,255)"  stroke="rgb(12,12,255)" stroke-width="1" font-size="16" >N</text>
<text x="276.487113" y="228.000000" fill="rgb(255,12,12)"  stroke="rgb(255,12,12)" stroke-width="1" font-size="16" >OH</text>
<text x="356.569145" y="95.968000" fill="rgb(12,12,255)"  stroke="rgb(12,12,255)" stroke-width="1" font-size="16" >+</text>
<text x="347.769145" y="108.000000" fill="rgb(12,12,255)"  stroke="rgb(12,12,255)" stroke-width="1" font-size="16" >NH</text>
<text x="371.769145" y="111.680000" fill="rgb(12,12,255)"  stroke="rgb(12,12,255)" stroke-width="1" font-size="13" >3</text>
<text x="51.282032" y="128.000000" fill="rgb(255,12,12)"  stroke="rgb(255,12,12)" stroke-width="1" font-size="16" >HO</text>
<text x="207.205081" y="188.000000" fill="rgb(255,12,12)"  stroke="rgb(255,12,12)" stroke-width="1" font-size="16" >O</text>
<text x="172.564065" y="128.000000" fill="rgb(255,12,12)"  stroke="rgb(255,12,12)" stroke-width="1" font-size="16" >O</text>
<text x="137.923048" y="228.000000" fill="rgb(255,12,12)"  stroke="rgb(255,12,12)" stroke-width="1" font-size="16" >OH</text>
<text x="79.441016" y="175.968000" fill="rgb(12,12,255)"  stroke="rgb(12,12,255)" stroke-width="1" font-size="16" >+</text>
<text x="70.641016" y="188.000000" fill="rgb(12,12,255)"  stroke="rgb(12,12,255)" stroke-width="1" font-size="16" >NH</text>
<text x="94.641016" y="191.680000" fill="rgb(12,12,255)"  stroke="rgb(12,12,255)" stroke-width="1" font-size="13" >2</text>
<text x="14.000000" y="208.000000" fill="rgb(102,102,102)"  stroke="rgb(102,102,102)" stroke-width="1" font-size="16" >H</text>
<text x="26.000000" y="211.680000" fill="rgb(102,102,102)"  stroke="rgb(102,102,102)" stroke-width="1" font-size="13" >3</text>
<text x="32.500000" y="208.000000" fill="rgb(102,102,102)"  stroke="rgb(102,102,102)" stroke-width="1" font-size="16" >C</text>
<text x="63.282032" y="93.358984" fill="rgb(102,102,102)"  stroke="rgb(102,102,102)" stroke-width="1" font-size="16" >H</text>
<text x="75.282032" y="97.038984" fill="rgb(102,102,102)"  stroke="rgb(102,102,102)" stroke-width="1" font-size="13" >3</text>
<text x="81.782032" y="93.358984" fill="rgb(102,102,102)"  stroke="rgb(102,102,102)" stroke-width="1" font-size="16" >C</text>
<text font-size="18.000000" fill ="black" font-family="sans-serif"
x="10.000000" y="20.000000" ></text>
<title> - OBDepict</title>
</svg>
