<?xml version="1.0"?>
<svg xmlns="http://www.w3.org/2000/svg"
xmlns:xlink="http://www.w3.org/1999/xlink" xmlns:cml="http://www.xml-cml.org/schema" width="403.443" height="318.281" x="0" y="0" font-family="sans-serif" stroke="rgb(0,0,0)" stroke-width="1"  stroke-linecap="round">
<rect x="0%" y="0%" width="100%" height="100%" stroke-width="0" fill="rgb(255,255,255)"  />
<polygon points="161.89 134.641 142.559 153.63 137.857 147.158 " stroke-width="1" fill="rgb(0,0,0)"  stroke="rgb(0,0,0)" />
<polygon points="223.443 114.641 263.443 110.641 263.443 118.641 " stroke-width="1" fill="rgb(0,0,0)"  stroke="rgb(0,0,0)" />
<polygon points="323.443 93.2 327.443 106.8 319.443 106.8 " stroke-width="1" fill="rgb(0,0,0)"  stroke="rgb(0,0,0)" />
<line x1="336.4" y1="80.0" x2="350.4" y2="80.0" stroke="rgb(0,0,0)"  stroke-width="1.0"/>
<line x1="320.4" y1="67.0" x2="320.4" y2="53.0" stroke="rgb(0,0,0)"  stroke-width="1.0"/>
<line x1="326.4" y1="67.0" x2="326.4" y2="53.0" stroke="rgb(0,0,0)"  stroke-width="1.0"/>
<line x1="157.1" y1="92.1" x2="158.0" y2="90.8" stroke="rgb(0,0,0)"  stroke-width="1.0"/>
<line x1="153.2" y1="90.1" x2="154.9" y2="87.8" stroke="rgb(0,0,0)"  stroke-width="1.0"/>
<line x1="149.4" y1="88.1" x2="151.8" y2="84.8" stroke="rgb(0,0,0)"  stroke-width="1.0"/>
<line x1="145.5" y1="86.1" x2="148.7" y2="81.7" stroke="rgb(0,0,0)"  stroke-width="1.0"/>
<line x1="141.7" y1="84.1" x2="145.7" y2="78.7" stroke="rgb(0,0,0)"  stroke-width="1.0"/>
<line x1="137.9" y1="82.1" x2="142.6" y2="75.7" stroke="rgb(0,0,0)"  stroke-width="1.0"/>
<line x1="200.8" y1="76.9" x2="202.3" y2="77.4" stroke="rgb(0,0,0)"  stroke-width="1.0"/>
<line x1="201.5" y1="72.7" x2="204.3" y2="73.5" stroke="rgb(0,0,0)"  stroke-width="1.0"/>
<line x1="202.3" y1="68.4" x2="206.2" y2="69.7" stroke="rgb(0,0,0)"  stroke-width="1.0"/>
<line x1="203.0" y1="64.1" x2="208.2" y2="65.8" stroke="rgb(0,0,0)"  stroke-width="1.0"/>
<line x1="203.7" y1="59.8" x2="210.1" y2="61.9" stroke="rgb(0,0,0)"  stroke-width="1.0"/>
<line x1="204.4" y1="55.6" x2="212.0" y2="58.0" stroke="rgb(0,0,0)"  stroke-width="1.0"/>
<line x1="310.4" y1="80.0" x2="296.4" y2="80.0" stroke="rgb(0,0,0)"  stroke-width="1.0"/>
<line x1="276.9" y1="91.3" x2="263.4" y2="114.6" stroke="rgb(0,0,0)"  stroke-width="1.0"/>
<line x1="95.0" y1="270.6" x2="76.9" y2="250.6" stroke="rgb(0,0,0)"  stroke-width="1.0"/>
<line x1="99.4" y1="266.6" x2="81.4" y2="246.5" stroke="rgb(0,0,0)"  stroke-width="1.0"/>
<line x1="52.7" y1="254.2" x2="79.1" y2="248.6" stroke="rgb(0,0,0)"  stroke-width="1.0"/>
<line x1="91.5" y1="210.5" x2="79.1" y2="248.6" stroke="rgb(0,0,0)"  stroke-width="1.0"/>
<line x1="151.4" y1="214.0" x2="129.5" y2="198.2" stroke="rgb(0,0,0)"  stroke-width="1.0"/>
<line x1="207.6" y1="136.5" x2="223.4" y2="114.6" stroke="rgb(0,0,0)"  stroke-width="1.0"/>
<line x1="223.4" y1="114.6" x2="199.9" y2="82.3" stroke="rgb(0,0,0)"  stroke-width="1.0"/>
<line x1="199.9" y1="82.3" x2="161.9" y2="94.6" stroke="rgb(0,0,0)"  stroke-width="1.0"/>
<line x1="161.9" y1="94.6" x2="161.9" y2="134.6" stroke="rgb(0,0,0)"  stroke-width="1.0"/>
<line x1="161.9" y1="134.6" x2="187.6" y2="143.0" stroke="rgb(0,0,0)"  stroke-width="1.0"/>
<line x1="117.2" y1="154.1" x2="91.5" y2="145.8" stroke="rgb(0,0,0)"  stroke-width="1.0"/>
<line x1="91.5" y1="145.8" x2="75.7" y2="167.5" stroke="rgb(0,0,0)"  stroke-width="1.0"/>
<line x1="93.8" y1="154.9" x2="82.7" y2="170.1" stroke="rgb(0,0,0)"  stroke-width="1.0"/>
<line x1="75.6" y1="188.7" x2="91.5" y2="210.5" stroke="rgb(0,0,0)"  stroke-width="1.0"/>
<line x1="91.5" y1="210.5" x2="129.5" y2="198.2" stroke="rgb(0,0,0)"  stroke-width="1.0"/>
<line x1="95.0" y1="201.8" x2="121.6" y2="193.2" stroke="rgb(0,0,0)"  stroke-width="1.0"/>
<line x1="129.5" y1="198.2" x2="129.5" y2="171.2" stroke="rgb(0,0,0)"  stroke-width="1.0"/>
<text x="123.528844" y="166.152426" fill="rgb(12,12,255)"  stroke="rgb(12,12,255)" stroke-width="1" font-size="16" >N</text>
<text x="193.931785" y="155.001696" fill="rgb(255,12,12)"  stroke="rgb(255,12,12)" stroke-width="1" font-size="16" >O</text>
<text x="317.443195" y="88.000000" fill="rgb(255,127,0)"  stroke="rgb(255,127,0)" stroke-width="1" font-size="16" >P</text>
<text x="61.975174" y="186.152426" fill="rgb(12,12,255)"  stroke="rgb(12,12,255)" stroke-width="1" font-size="16" >N</text>
<text x="111.528844" y="79.129606" fill="rgb(255,12,12)"  stroke="rgb(255,12,12)" stroke-width="1" font-size="16" >HO</text>
<text x="14.000000" y="264.871834" fill="rgb(12,12,255)"  stroke="rgb(12,12,255)" stroke-width="1" font-size="16" >H</text>
<text x="26.000000" y="268.551834" fill="rgb(12,12,255)"  stroke="rgb(12,12,255)" stroke-width="1" font-size="13" >2</text>
<text x="32.500000" y="264.871834" fill="rgb(12,12,255)"  stroke="rgb(12,12,255)" stroke-width="1" font-size="16" >N</text>
<text x="206.292465" y="52.238076" fill="rgb(255,12,12)"  stroke="rgb(255,12,12)" stroke-width="1" font-size="16" >OH</text>
<text x="157.889524" y="229.663836" fill="rgb(12,12,255)"  stroke="rgb(12,12,255)" stroke-width="1" font-size="16" >NH</text>
<text x="181.889524" y="233.343836" fill="rgb(12,12,255)"  stroke="rgb(12,12,255)" stroke-width="1" font-size="13" >2</text>
<text x="277.443195" y="88.000000" fill="rgb(255,12,12)"  stroke="rgb(255,12,12)" stroke-width="1" font-size="16" >O</text>
<text x="317.443195" y="128.000000" fill="rgb(255,12,12)"  stroke="rgb(255,12,12)" stroke-width="1" font-size="16" >OH</text>
<text x="99.891128" y="286.281160" fill="rgb(255,12,12)"  stroke="rgb(255,12,12)" stroke-width="1" font-size="16" >O</text>
<text x="368.243195" y="75.968000" fill="rgb(255,12,12)"  stroke="rgb(255,12,12)" stroke-width="1" font-size="32" >-</text>
<text x="357.443195" y="88.000000" fill="rgb(255,12,12)"  stroke="rgb(255,12,12)" stroke-width="1" font-size="16" >O</text>
<text x="317.443195" y="48.000000" fill="rgb(255,12,12)"  stroke="rgb(255,12,12)" stroke-width="1" font-size="16" >O</text>
<text font-size="18.000000" fill ="black" font-family="sans-serif"
x="10.000000" y="20.000000" ></text>
<title> - OBDepict</title>
</svg>
