<?xml version="1.0"?>
<svg xmlns="http://www.w3.org/2000/svg"
xmlns:xlink="http://www.w3.org/1999/xlink" xmlns:cml="http://www.xml-cml.org/schema" width="480" height="322.487" x="0" y="0" font-family="sans-serif" stroke="rgb(0,0,0)" stroke-width="1"  stroke-linecap="round">
<rect x="0%" y="0%" width="100%" height="100%" stroke-width="0" fill="rgb(255,255,255)"  />
<polygon points="140 143.923 149.936 118.714 156.864 122.714 " stroke-width="1" fill="rgb(0,0,0)"  stroke="rgb(0,0,0)" />
<polygon points="100 143.923 83.1359 122.714 90.0641 118.714 " stroke-width="1" fill="rgb(0,0,0)"  stroke="rgb(0,0,0)" />
<line x1="74.6" y1="179.4" x2="74.6" y2="177.8" stroke="rgb(0,0,0)"  stroke-width="1.0"/>
<line x1="70.4" y1="180.0" x2="70.4" y2="177.1" stroke="rgb(0,0,0)"  stroke-width="1.0"/>
<line x1="66.1" y1="180.6" x2="66.1" y2="176.5" stroke="rgb(0,0,0)"  stroke-width="1.0"/>
<line x1="61.8" y1="181.3" x2="61.8" y2="175.8" stroke="rgb(0,0,0)"  stroke-width="1.0"/>
<line x1="57.5" y1="181.9" x2="57.5" y2="175.2" stroke="rgb(0,0,0)"  stroke-width="1.0"/>
<line x1="53.2" y1="182.6" x2="53.2" y2="174.6" stroke="rgb(0,0,0)"  stroke-width="1.0"/>
<polygon points="100.000000 213.205081 90.064102 238.414562 83.135898 234.414562 " stroke-width="1.000000" fill="rgb(0,0,0)"  stroke="rgb(0,0,0)" />
<line x1="144.7" y1="219.7" x2="143.3" y2="220.5" stroke="rgb(0,0,0)"  stroke-width="1.0"/>
<line x1="148.4" y1="225.0" x2="146.0" y2="226.4" stroke="rgb(0,0,0)"  stroke-width="1.0"/>
<line x1="152.2" y1="230.2" x2="148.6" y2="232.3" stroke="rgb(0,0,0)"  stroke-width="1.0"/>
<line x1="156.0" y1="235.4" x2="151.2" y2="238.1" stroke="rgb(0,0,0)"  stroke-width="1.0"/>
<line x1="159.7" y1="240.6" x2="153.9" y2="244.0" stroke="rgb(0,0,0)"  stroke-width="1.0"/>
<line x1="163.5" y1="245.8" x2="156.5" y2="249.8" stroke="rgb(0,0,0)"  stroke-width="1.0"/>
<line x1="160.0" y1="247.8" x2="146.5" y2="271.2" stroke="rgb(0,0,0)"  stroke-width="1.0"/>
<line x1="216.6" y1="70.4" x2="218.0" y2="69.6" stroke="rgb(0,0,0)"  stroke-width="1.0"/>
<line x1="213.9" y1="67.0" x2="216.4" y2="65.6" stroke="rgb(0,0,0)"  stroke-width="1.0"/>
<line x1="211.2" y1="63.6" x2="214.8" y2="61.5" stroke="rgb(0,0,0)"  stroke-width="1.0"/>
<line x1="208.5" y1="60.2" x2="213.2" y2="57.5" stroke="rgb(0,0,0)"  stroke-width="1.0"/>
<line x1="205.8" y1="56.8" x2="211.7" y2="53.5" stroke="rgb(0,0,0)"  stroke-width="1.0"/>
<line x1="203.1" y1="53.4" x2="210.1" y2="49.4" stroke="rgb(0,0,0)"  stroke-width="1.0"/>
<line x1="285.4" y1="108.5" x2="285.4" y2="110.1" stroke="rgb(0,0,0)"  stroke-width="1.0"/>
<line x1="289.6" y1="107.8" x2="289.6" y2="110.7" stroke="rgb(0,0,0)"  stroke-width="1.0"/>
<line x1="293.9" y1="107.2" x2="293.9" y2="111.4" stroke="rgb(0,0,0)"  stroke-width="1.0"/>
<line x1="298.2" y1="106.6" x2="298.2" y2="112.0" stroke="rgb(0,0,0)"  stroke-width="1.0"/>
<line x1="302.5" y1="105.9" x2="302.5" y2="112.6" stroke="rgb(0,0,0)"  stroke-width="1.0"/>
<line x1="306.8" y1="105.3" x2="306.8" y2="113.3" stroke="rgb(0,0,0)"  stroke-width="1.0"/>
<polygon points="260.000000 143.923048 276.864102 165.132529 269.935898 169.132529 " stroke-width="1.000000" fill="rgb(0,0,0)"  stroke="rgb(0,0,0)" />
<line x1="218.0" y1="149.0" x2="216.6" y2="148.2" stroke="rgb(0,0,0)"  stroke-width="1.0"/>
<line x1="216.4" y1="153.0" x2="213.9" y2="151.6" stroke="rgb(0,0,0)"  stroke-width="1.0"/>
<line x1="214.8" y1="157.0" x2="211.2" y2="155.0" stroke="rgb(0,0,0)"  stroke-width="1.0"/>
<line x1="213.2" y1="161.1" x2="208.5" y2="158.3" stroke="rgb(0,0,0)"  stroke-width="1.0"/>
<line x1="211.7" y1="165.1" x2="205.8" y2="161.7" stroke="rgb(0,0,0)"  stroke-width="1.0"/>
<line x1="210.1" y1="169.1" x2="203.1" y2="165.1" stroke="rgb(0,0,0)"  stroke-width="1.0"/>
<polygon points="200.000000 109.282032 173.200000 113.282032 173.200000 105.282032 " stroke-width="1.000000" fill="rgb(0,0,0)"  stroke="rgb(0,0,0)" />
<polygon points="320.000000 178.564065 293.200000 182.564065 293.200000 174.564065 " stroke-width="1.000000" fill="rgb(0,0,0)"  stroke="rgb(0,0,0)" />
<polygon points="340.000000 213.205081 330.064102 238.414562 323.135898 234.414562 " stroke-width="1.000000" fill="rgb(0,0,0)"  stroke="rgb(0,0,0)" />
<polygon points="400.000000 178.564065 426.800000 174.564065 426.800000 182.564065 " stroke-width="1.000000" fill="rgb(0,0,0)"  stroke="rgb(0,0,0)" />
<line x1="383.3" y1="136.6" x2="384.7" y2="137.4" stroke="rgb(0,0,0)"  stroke-width="1.0"/>
<line x1="386.0" y1="130.7" x2="388.4" y2="132.2" stroke="rgb(0,0,0)"  stroke-width="1.0"/>
<line x1="388.6" y1="124.9" x2="392.2" y2="126.9" stroke="rgb(0,0,0)"  stroke-width="1.0"/>
<line x1="391.2" y1="119.0" x2="396.0" y2="121.7" stroke="rgb(0,0,0)"  stroke-width="1.0"/>
<line x1="393.9" y1="113.1" x2="399.7" y2="116.5" stroke="rgb(0,0,0)"  stroke-width="1.0"/>
<line x1="396.5" y1="107.3" x2="403.5" y2="111.3" stroke="rgb(0,0,0)"  stroke-width="1.0"/>
<line x1="400.0" y1="109.3" x2="427.0" y2="109.3" stroke="rgb(0,0,0)"  stroke-width="1.0"/>
<line x1="140.0" y1="143.9" x2="100.0" y2="143.9" stroke="rgb(0,0,0)"  stroke-width="1.0"/>
<line x1="100.0" y1="143.9" x2="80.0" y2="178.6" stroke="rgb(0,0,0)"  stroke-width="1.0"/>
<line x1="80.0" y1="178.6" x2="100.0" y2="213.2" stroke="rgb(0,0,0)"  stroke-width="1.0"/>
<line x1="100.0" y1="213.2" x2="140.0" y2="213.2" stroke="rgb(0,0,0)"  stroke-width="1.0"/>
<line x1="140.0" y1="213.2" x2="153.5" y2="189.8" stroke="rgb(0,0,0)"  stroke-width="1.0"/>
<line x1="153.5" y1="167.3" x2="140.0" y2="143.9" stroke="rgb(0,0,0)"  stroke-width="1.0"/>
<line x1="220.0" y1="74.6" x2="260.0" y2="74.6" stroke="rgb(0,0,0)"  stroke-width="1.0"/>
<line x1="260.0" y1="74.6" x2="280.0" y2="109.3" stroke="rgb(0,0,0)"  stroke-width="1.0"/>
<line x1="280.0" y1="109.3" x2="260.0" y2="143.9" stroke="rgb(0,0,0)"  stroke-width="1.0"/>
<line x1="260.0" y1="143.9" x2="220.0" y2="143.9" stroke="rgb(0,0,0)"  stroke-width="1.0"/>
<line x1="220.0" y1="143.9" x2="200.0" y2="109.3" stroke="rgb(0,0,0)"  stroke-width="1.0"/>
<line x1="200.0" y1="109.3" x2="220.0" y2="74.6" stroke="rgb(0,0,0)"  stroke-width="1.0"/>
<line x1="320.0" y1="178.6" x2="340.0" y2="213.2" stroke="rgb(0,0,0)"  stroke-width="1.0"/>
<line x1="340.0" y1="213.2" x2="380.0" y2="213.2" stroke="rgb(0,0,0)"  stroke-width="1.0"/>
<line x1="380.0" y1="213.2" x2="400.0" y2="178.6" stroke="rgb(0,0,0)"  stroke-width="1.0"/>
<line x1="400.0" y1="178.6" x2="380.0" y2="143.9" stroke="rgb(0,0,0)"  stroke-width="1.0"/>
<line x1="380.0" y1="143.9" x2="353.0" y2="143.9" stroke="rgb(0,0,0)"  stroke-width="1.0"/>
<line x1="333.5" y1="155.2" x2="320.0" y2="178.6" stroke="rgb(0,0,0)"  stroke-width="1.0"/>
<text x="62.000000" y="117.282032" fill="rgb(255,12,12)"  stroke="rgb(255,12,12)" stroke-width="1" font-size="16" >HO</text>
<text x="44.800000" y="174.532065" fill="rgb(12,12,255)"  stroke="rgb(12,12,255)" stroke-width="1" font-size="16" >+</text>
<text x="14.000000" y="186.564065" fill="rgb(12,12,255)"  stroke="rgb(12,12,255)" stroke-width="1" font-size="16" >H</text>
<text x="26.000000" y="190.244065" fill="rgb(12,12,255)"  stroke="rgb(12,12,255)" stroke-width="1" font-size="13" >3</text>
<text x="32.500000" y="186.564065" fill="rgb(12,12,255)"  stroke="rgb(12,12,255)" stroke-width="1" font-size="16" >N</text>
<text x="62.000000" y="255.846097" fill="rgb(255,12,12)"  stroke="rgb(255,12,12)" stroke-width="1" font-size="16" >HO</text>
<text x="154.000000" y="186.564065" fill="rgb(255,12,12)"  stroke="rgb(255,12,12)" stroke-width="1" font-size="16" >O</text>
<text x="122.000000" y="290.487113" fill="rgb(255,12,12)"  stroke="rgb(255,12,12)" stroke-width="1" font-size="16" >HO</text>
<text x="204.800000" y="35.968000" fill="rgb(12,12,255)"  stroke="rgb(12,12,255)" stroke-width="1" font-size="16" >+</text>
<text x="174.000000" y="48.000000" fill="rgb(12,12,255)"  stroke="rgb(12,12,255)" stroke-width="1" font-size="16" >H</text>
<text x="186.000000" y="51.680000" fill="rgb(12,12,255)"  stroke="rgb(12,12,255)" stroke-width="1" font-size="13" >3</text>
<text x="192.500000" y="48.000000" fill="rgb(12,12,255)"  stroke="rgb(12,12,255)" stroke-width="1" font-size="16" >N</text>
<text x="324.800000" y="105.250032" fill="rgb(12,12,255)"  stroke="rgb(12,12,255)" stroke-width="1" font-size="16" >+</text>
<text x="316.000000" y="117.282032" fill="rgb(12,12,255)"  stroke="rgb(12,12,255)" stroke-width="1" font-size="16" >NH</text>
<text x="340.000000" y="120.962032" fill="rgb(12,12,255)"  stroke="rgb(12,12,255)" stroke-width="1" font-size="13" >3</text>
<text x="182.000000" y="186.564065" fill="rgb(255,12,12)"  stroke="rgb(255,12,12)" stroke-width="1" font-size="16" >HO</text>
<text x="154.000000" y="117.282032" fill="rgb(255,12,12)"  stroke="rgb(255,12,12)" stroke-width="1" font-size="16" >O</text>
<text x="324.800000" y="243.814097" fill="rgb(12,12,255)"  stroke="rgb(12,12,255)" stroke-width="1" font-size="16" >+</text>
<text x="294.000000" y="255.846097" fill="rgb(12,12,255)"  stroke="rgb(12,12,255)" stroke-width="1" font-size="16" >H</text>
<text x="306.000000" y="259.526097" fill="rgb(12,12,255)"  stroke="rgb(12,12,255)" stroke-width="1" font-size="13" >3</text>
<text x="312.500000" y="255.846097" fill="rgb(12,12,255)"  stroke="rgb(12,12,255)" stroke-width="1" font-size="16" >N</text>
<text x="444.800000" y="105.250032" fill="rgb(12,12,255)"  stroke="rgb(12,12,255)" stroke-width="1" font-size="16" >+</text>
<text x="436.000000" y="117.282032" fill="rgb(12,12,255)"  stroke="rgb(12,12,255)" stroke-width="1" font-size="16" >NH</text>
<text x="460.000000" y="120.962032" fill="rgb(12,12,255)"  stroke="rgb(12,12,255)" stroke-width="1" font-size="13" >3</text>
<text x="274.000000" y="186.564065" fill="rgb(255,12,12)"  stroke="rgb(255,12,12)" stroke-width="1" font-size="16" >O</text>
<text x="434.000000" y="186.564065" fill="rgb(255,12,12)"  stroke="rgb(255,12,12)" stroke-width="1" font-size="16" >OH</text>
<text x="334.000000" y="151.923048" fill="rgb(255,12,12)"  stroke="rgb(255,12,12)" stroke-width="1" font-size="16" >O</text>
<text font-size="18.000000" fill ="black" font-family="sans-serif"
x="10.000000" y="20.000000" ></text>
<title> - OBDepict</title>
</svg>
