<?xml version="1.0"?>
<svg xmlns="http://www.w3.org/2000/svg"
xmlns:xlink="http://www.w3.org/1999/xlink" xmlns:cml="http://www.xml-cml.org/schema" width="240" height="278.564" x="0" y="0" font-family="sans-serif" stroke="rgb(0,0,0)" stroke-width="1"  stroke-linecap="round">
<rect x="0%" y="0%" width="100%" height="100%" stroke-width="0" fill="rgb(255,255,255)"  />
<polygon points="160 100 186.8 96 186.8 104 " stroke-width="1" fill="rgb(0,0,0)"  stroke="rgb(0,0,0)" />
<line x1="160.0" y1="100.0" x2="160.0" y2="60.0" stroke="rgb(0,0,0)"  stroke-width="1.0"/>
<line x1="160.0" y1="100.0" x2="120.0" y2="100.0" stroke="rgb(0,0,0)"  stroke-width="1.0"/>
<line x1="160.0" y1="60.0" x2="183.4" y2="46.5" stroke="rgb(0,0,0)"  stroke-width="1.0"/>
<line x1="120.0" y1="100.0" x2="100.0" y2="134.6" stroke="rgb(0,0,0)"  stroke-width="1.0"/>
<line x1="100.0" y1="134.6" x2="60.0" y2="134.6" stroke="rgb(0,0,0)"  stroke-width="1.0"/>
<line x1="60.0" y1="134.6" x2="46.5" y2="158.0" stroke="rgb(0,0,0)"  stroke-width="1.0"/>
<line x1="46.5" y1="180.5" x2="60.0" y2="203.9" stroke="rgb(0,0,0)"  stroke-width="1.0"/>
<line x1="60.0" y1="203.9" x2="87.0" y2="203.9" stroke="rgb(0,0,0)"  stroke-width="1.0"/>
<line x1="60.0" y1="203.9" x2="46.5" y2="227.3" stroke="rgb(0,0,0)"  stroke-width="1.0"/>
<text x="196.000000" y="108.000000" fill="rgb(12,12,255)"  stroke="rgb(12,12,255)" stroke-width="1" font-size="16" >NH</text>
<text x="220.000000" y="111.680000" fill="rgb(12,12,255)"  stroke="rgb(12,12,255)" stroke-width="1" font-size="13" >2</text>
<text x="188.641016" y="48.000000" fill="rgb(255,12,12)"  stroke="rgb(255,12,12)" stroke-width="1" font-size="16" >OH</text>
<text x="22.000000" y="177.282032" fill="rgb(12,12,255)"  stroke="rgb(12,12,255)" stroke-width="1" font-size="16" >HN</text>
<text x="96.000000" y="211.923048" fill="rgb(12,12,255)"  stroke="rgb(12,12,255)" stroke-width="1" font-size="16" >NH</text>
<text x="120.000000" y="215.603048" fill="rgb(12,12,255)"  stroke="rgb(12,12,255)" stroke-width="1" font-size="13" >2</text>
<text x="14.000000" y="246.564065" fill="rgb(12,12,255)"  stroke="rgb(12,12,255)" stroke-width="1" font-size="16" >H</text>
<text x="26.000000" y="250.244065" fill="rgb(12,12,255)"  stroke="rgb(12,12,255)" stroke-width="1" font-size="13" >2</text>
<text x="32.500000" y="246.564065" fill="rgb(12,12,255)"  stroke="rgb(12,12,255)" stroke-width="1" font-size="16" >N</text>
<text font-size="18.000000" fill ="black" font-family="sans-serif"
x="10.000000" y="20.000000" ></text>
<title> - OBDepict</title>
</svg>
