<?xml version="1.0"?>
<svg xmlns="http://www.w3.org/2000/svg"
xmlns:xlink="http://www.w3.org/1999/xlink" xmlns:cml="http://www.xml-cml.org/schema" width="357.128" height="280" x="0" y="0" font-family="sans-serif" stroke="rgb(0,0,0)" stroke-width="1"  stroke-linecap="round">
<rect x="0%" y="0%" width="100%" height="100%" stroke-width="0" fill="rgb(255,255,255)"  />
<line x1="305.9" y1="106.5" x2="282.5" y2="120.0" stroke="rgb(0,0,0)"  stroke-width="1.0"/>
<line x1="155.2" y1="233.5" x2="178.6" y2="220.0" stroke="rgb(0,0,0)"  stroke-width="1.0"/>
<line x1="250.8" y1="180.0" x2="250.8" y2="207.0" stroke="rgb(0,0,0)"  stroke-width="1.0"/>
<line x1="244.8" y1="180.0" x2="244.8" y2="207.0" stroke="rgb(0,0,0)"  stroke-width="1.0"/>
<line x1="178.6" y1="193.0" x2="178.6" y2="220.0" stroke="rgb(0,0,0)"  stroke-width="1.0"/>
<polygon points="143.923048 160.000000 111.282032 183.464102 107.282032 176.535898 " stroke-width="1.000000" fill="rgb(0,0,0)"  stroke="rgb(0,0,0)" />
<line x1="109.3" y1="180.0" x2="85.9" y2="166.5" stroke="rgb(0,0,0)"  stroke-width="1.0"/>
<line x1="74.6" y1="147.0" x2="74.6" y2="120.0" stroke="rgb(0,0,0)"  stroke-width="1.0"/>
<line x1="259.3" y1="106.6" x2="282.5" y2="120.0" stroke="rgb(0,0,0)"  stroke-width="1.0"/>
<line x1="257.4" y1="113.8" x2="273.7" y2="123.2" stroke="rgb(0,0,0)"  stroke-width="1.0"/>
<line x1="282.5" y1="120.0" x2="282.5" y2="147.0" stroke="rgb(0,0,0)"  stroke-width="1.0"/>
<line x1="271.2" y1="166.5" x2="247.8" y2="180.0" stroke="rgb(0,0,0)"  stroke-width="1.0"/>
<line x1="247.8" y1="180.0" x2="213.2" y2="160.0" stroke="rgb(0,0,0)"  stroke-width="1.0"/>
<line x1="213.2" y1="160.0" x2="213.2" y2="120.0" stroke="rgb(0,0,0)"  stroke-width="1.0"/>
<line x1="220.4" y1="154.0" x2="220.4" y2="126.0" stroke="rgb(0,0,0)"  stroke-width="1.0"/>
<line x1="213.2" y1="120.0" x2="236.6" y2="106.5" stroke="rgb(0,0,0)"  stroke-width="1.0"/>
<line x1="167.3" y1="173.5" x2="143.9" y2="160.0" stroke="rgb(0,0,0)"  stroke-width="1.0"/>
<line x1="143.9" y1="160.0" x2="143.9" y2="120.0" stroke="rgb(0,0,0)"  stroke-width="1.0"/>
<line x1="143.9" y1="120.0" x2="167.3" y2="106.5" stroke="rgb(0,0,0)"  stroke-width="1.0"/>
<line x1="189.8" y1="106.5" x2="213.2" y2="120.0" stroke="rgb(0,0,0)"  stroke-width="1.0"/>
<line x1="213.2" y1="160.0" x2="189.8" y2="173.5" stroke="rgb(0,0,0)"  stroke-width="1.0"/>
<line x1="109.3" y1="60.0" x2="74.6" y2="40.0" stroke="rgb(0,0,0)"  stroke-width="1.0"/>
<line x1="100.5" y1="63.2" x2="76.2" y2="49.2" stroke="rgb(0,0,0)"  stroke-width="1.0"/>
<line x1="74.6" y1="40.0" x2="40.0" y2="60.0" stroke="rgb(0,0,0)"  stroke-width="1.0"/>
<line x1="40.0" y1="60.0" x2="40.0" y2="100.0" stroke="rgb(0,0,0)"  stroke-width="1.0"/>
<line x1="47.2" y1="66.0" x2="47.2" y2="94.0" stroke="rgb(0,0,0)"  stroke-width="1.0"/>
<line x1="40.0" y1="100.0" x2="74.6" y2="120.0" stroke="rgb(0,0,0)"  stroke-width="1.0"/>
<line x1="74.6" y1="120.0" x2="109.3" y2="100.0" stroke="rgb(0,0,0)"  stroke-width="1.0"/>
<line x1="76.2" y1="110.8" x2="100.5" y2="96.8" stroke="rgb(0,0,0)"  stroke-width="1.0"/>
<line x1="109.3" y1="100.0" x2="109.3" y2="60.0" stroke="rgb(0,0,0)"  stroke-width="1.0"/>
<text x="313.128129" y="108.000000" fill="rgb(12,12,255)"  stroke="rgb(12,12,255)" stroke-width="1" font-size="16" >NH</text>
<text x="337.128129" y="111.680000" fill="rgb(12,12,255)"  stroke="rgb(12,12,255)" stroke-width="1" font-size="13" >2</text>
<text x="241.846097" y="108.000000" fill="rgb(12,12,255)"  stroke="rgb(12,12,255)" stroke-width="1" font-size="16" >N</text>
<text x="276.487113" y="168.000000" fill="rgb(12,12,255)"  stroke="rgb(12,12,255)" stroke-width="1" font-size="16" >NH</text>
<text x="125.923048" y="248.000000" fill="rgb(255,12,12)"  stroke="rgb(255,12,12)" stroke-width="1" font-size="16" >HO</text>
<text x="241.846097" y="228.000000" fill="rgb(255,12,12)"  stroke="rgb(255,12,12)" stroke-width="1" font-size="16" >O</text>
<text x="172.564065" y="188.000000" fill="rgb(12,12,255)"  stroke="rgb(12,12,255)" stroke-width="1" font-size="16" >N</text>
<text x="172.564065" y="108.000000" fill="rgb(12,12,255)"  stroke="rgb(12,12,255)" stroke-width="1" font-size="16" >N</text>
<text x="172.564065" y="92.000000" fill="rgb(12,12,255)"  stroke="rgb(12,12,255)" stroke-width="1" font-size="16" >H</text>
<text x="56.641016" y="168.000000" fill="rgb(12,12,255)"  stroke="rgb(12,12,255)" stroke-width="1" font-size="16" >HN</text>
<text font-size="18.000000" fill ="black" font-family="sans-serif"
x="10.000000" y="20.000000" ></text>
<title> - OBDepict</title>
</svg>
