<?xml version="1.0"?>
<svg xmlns="http://www.w3.org/2000/svg"
xmlns:xlink="http://www.w3.org/1999/xlink" xmlns:cml="http://www.xml-cml.org/schema" width="409.75" height="364.827" x="0" y="0" font-family="sans-serif" stroke="rgb(0,0,0)" stroke-width="1"  stroke-linecap="round">
<rect x="0%" y="0%" width="100%" height="100%" stroke-width="0" fill="rgb(255,255,255)"  />
<line x1="325.2" y1="158.6" x2="350.6" y2="158.6" stroke="rgb(0,0,0)"  stroke-width="1.0"/>
<line x1="241.9" y1="302.8" x2="248.1" y2="313.6" stroke="rgb(0,0,0)"  stroke-width="1.0"/>
<line x1="350.6" y1="158.6" x2="369.8" y2="125.3" stroke="rgb(0,0,0)"  stroke-width="1.0"/>
<line x1="171.6" y1="158.6" x2="235.4" y2="158.6" stroke="rgb(0,0,0)"  stroke-width="1.0"/>
<line x1="369.8" y1="125.3" x2="350.6" y2="92.0" stroke="rgb(0,0,0)"  stroke-width="1.0"/>
<line x1="350.6" y1="92.0" x2="325.2" y2="92.0" stroke="rgb(0,0,0)"  stroke-width="1.0"/>
<line x1="95.1" y1="95.1" x2="77.1" y2="77.1" stroke="rgb(0,0,0)"  stroke-width="1.0"/>
<line x1="77.1" y1="77.1" x2="83.7" y2="52.6" stroke="rgb(0,0,0)"  stroke-width="1.0"/>
<line x1="77.1" y1="77.1" x2="52.6" y2="83.7" stroke="rgb(0,0,0)"  stroke-width="1.0"/>
<line x1="293.0" y1="191.8" x2="305.7" y2="169.8" stroke="rgb(0,0,0)"  stroke-width="1.0"/>
<line x1="254.6" y1="191.8" x2="235.4" y2="158.6" stroke="rgb(0,0,0)"  stroke-width="1.0"/>
<line x1="254.6" y1="258.3" x2="241.9" y2="280.3" stroke="rgb(0,0,0)"  stroke-width="1.0"/>
<line x1="146.0" y1="161.9" x2="121.5" y2="168.5" stroke="rgb(0,0,0)"  stroke-width="1.0"/>
<line x1="121.5" y1="168.5" x2="94.3" y2="141.3" stroke="rgb(0,0,0)"  stroke-width="1.0"/>
<line x1="94.3" y1="141.3" x2="100.9" y2="116.8" stroke="rgb(0,0,0)"  stroke-width="1.0"/>
<line x1="116.8" y1="100.9" x2="141.3" y2="94.3" stroke="rgb(0,0,0)"  stroke-width="1.0"/>
<line x1="141.3" y1="94.3" x2="168.5" y2="121.5" stroke="rgb(0,0,0)"  stroke-width="1.0"/>
<line x1="168.5" y1="121.5" x2="161.9" y2="146.0" stroke="rgb(0,0,0)"  stroke-width="1.0"/>
<line x1="293.0" y1="191.8" x2="312.2" y2="225.1" stroke="rgb(0,0,0)"  stroke-width="1.0"/>
<line x1="289.7" y1="200.6" x2="302.9" y2="223.5" stroke="rgb(0,0,0)"  stroke-width="1.0"/>
<line x1="312.2" y1="225.1" x2="293.0" y2="258.3" stroke="rgb(0,0,0)"  stroke-width="1.0"/>
<line x1="293.0" y1="258.3" x2="254.6" y2="258.3" stroke="rgb(0,0,0)"  stroke-width="1.0"/>
<line x1="287.0" y1="251.1" x2="260.6" y2="251.1" stroke="rgb(0,0,0)"  stroke-width="1.0"/>
<line x1="254.6" y1="258.3" x2="235.4" y2="225.1" stroke="rgb(0,0,0)"  stroke-width="1.0"/>
<line x1="235.4" y1="225.1" x2="254.6" y2="191.8" stroke="rgb(0,0,0)"  stroke-width="1.0"/>
<line x1="244.6" y1="223.5" x2="257.8" y2="200.6" stroke="rgb(0,0,0)"  stroke-width="1.0"/>
<line x1="254.6" y1="191.8" x2="293.0" y2="191.8" stroke="rgb(0,0,0)"  stroke-width="1.0"/>
<text x="306.150253" y="166.550253" fill="rgb(255,12,12)"  stroke="rgb(255,12,12)" stroke-width="1" font-size="16" >O</text>
<text x="229.350253" y="299.571755" fill="rgb(255,12,12)"  stroke="rgb(255,12,12)" stroke-width="1" font-size="16" >O</text>
<text x="250.550253" y="332.827130" fill="rgb(102,102,102)"  stroke="rgb(102,102,102)" stroke-width="1" font-size="16" >CH</text>
<text x="274.550253" y="336.507130" fill="rgb(102,102,102)"  stroke="rgb(102,102,102)" stroke-width="1" font-size="13" >3</text>
<text x="152.550253" y="166.550253" fill="rgb(12,12,255)"  stroke="rgb(12,12,255)" stroke-width="1" font-size="16" >N</text>
<text x="286.150253" y="100.039502" fill="rgb(12,12,255)"  stroke="rgb(12,12,255)" stroke-width="1" font-size="16" >H</text>
<text x="298.150253" y="103.719502" fill="rgb(12,12,255)"  stroke="rgb(12,12,255)" stroke-width="1" font-size="13" >2</text>
<text x="304.650253" y="100.039502" fill="rgb(12,12,255)"  stroke="rgb(12,12,255)" stroke-width="1" font-size="16" >N</text>
<text x="98.244452" y="112.244452" fill="rgb(12,12,255)"  stroke="rgb(12,12,255)" stroke-width="1" font-size="16" >N</text>
<text x="83.030203" y="48.000000" fill="rgb(12,12,255)"  stroke="rgb(12,12,255)" stroke-width="1" font-size="16" >NH</text>
<text x="107.030203" y="51.680000" fill="rgb(12,12,255)"  stroke="rgb(12,12,255)" stroke-width="1" font-size="13" >2</text>
<text x="14.000000" y="95.030203" fill="rgb(12,12,255)"  stroke="rgb(12,12,255)" stroke-width="1" font-size="16" >H</text>
<text x="26.000000" y="98.710203" fill="rgb(12,12,255)"  stroke="rgb(12,12,255)" stroke-width="1" font-size="13" >2</text>
<text x="32.500000" y="95.030203" fill="rgb(12,12,255)"  stroke="rgb(12,12,255)" stroke-width="1" font-size="16" >N</text>
<text font-size="18.000000" fill ="black" font-family="sans-serif"
x="10.000000" y="20.000000" ></text>
<title> - OBDepict</title>
</svg>
