<?xml version="1.0"?>
<svg xmlns="http://www.w3.org/2000/svg"
xmlns:xlink="http://www.w3.org/1999/xlink" xmlns:cml="http://www.xml-cml.org/schema" width="650.424" height="386.425" x="0" y="0" font-family="sans-serif" stroke="rgb(0,0,0)" stroke-width="1"  stroke-linecap="round">
<rect x="0%" y="0%" width="100%" height="100%" stroke-width="0" fill="rgb(255,255,255)"  />
<line x1="506.5" y1="145.1" x2="505.4" y2="143.9" stroke="rgb(0,0,0)"  stroke-width="1.0"/>
<line x1="504.3" y1="148.2" x2="502.2" y2="146.2" stroke="rgb(0,0,0)"  stroke-width="1.0"/>
<line x1="502.0" y1="151.3" x2="499.1" y2="148.4" stroke="rgb(0,0,0)"  stroke-width="1.0"/>
<line x1="499.8" y1="154.4" x2="496.0" y2="150.6" stroke="rgb(0,0,0)"  stroke-width="1.0"/>
<line x1="497.6" y1="157.6" x2="492.8" y2="152.8" stroke="rgb(0,0,0)"  stroke-width="1.0"/>
<line x1="495.4" y1="160.7" x2="489.7" y2="155.0" stroke="rgb(0,0,0)"  stroke-width="1.0"/>
<polygon points="416.130835 147.840968 462.848721 156.217883 460.778169 163.945290 " stroke-width="1.000000" fill="rgb(0,0,0)"  stroke="rgb(0,0,0)" />
<line x1="526.1" y1="101.1" x2="527.7" y2="101.1" stroke="rgb(0,0,0)"  stroke-width="1.0"/>
<line x1="525.5" y1="93.6" x2="528.4" y2="93.6" stroke="rgb(0,0,0)"  stroke-width="1.0"/>
<line x1="524.8" y1="86.0" x2="529.0" y2="86.0" stroke="rgb(0,0,0)"  stroke-width="1.0"/>
<line x1="524.2" y1="78.4" x2="529.6" y2="78.4" stroke="rgb(0,0,0)"  stroke-width="1.0"/>
<line x1="523.6" y1="70.9" x2="530.3" y2="70.9" stroke="rgb(0,0,0)"  stroke-width="1.0"/>
<line x1="522.9" y1="63.3" x2="530.9" y2="63.3" stroke="rgb(0,0,0)"  stroke-width="1.0"/>
<polygon points="562.211721 110.588235 580.690675 95.300604 584.690675 102.228807 " stroke-width="1.000000" fill="rgb(0,0,0)"  stroke="rgb(0,0,0)" />
<line x1="584.4" y1="142.8" x2="583.6" y2="144.2" stroke="rgb(0,0,0)"  stroke-width="1.0"/>
<line x1="588.0" y1="144.2" x2="586.5" y2="146.7" stroke="rgb(0,0,0)"  stroke-width="1.0"/>
<line x1="591.5" y1="145.5" x2="589.5" y2="149.1" stroke="rgb(0,0,0)"  stroke-width="1.0"/>
<line x1="595.1" y1="146.8" x2="592.4" y2="151.5" stroke="rgb(0,0,0)"  stroke-width="1.0"/>
<line x1="598.7" y1="148.2" x2="595.4" y2="154.0" stroke="rgb(0,0,0)"  stroke-width="1.0"/>
<line x1="602.3" y1="149.5" x2="598.3" y2="156.4" stroke="rgb(0,0,0)"  stroke-width="1.0"/>
<polygon points="562.211721 171.719440 566.211721 207.013558 558.211721 207.013558 " stroke-width="1.000000" fill="rgb(0,0,0)"  stroke="rgb(0,0,0)" />
<line x1="562.2" y1="207.0" x2="542.9" y2="218.2" stroke="rgb(0,0,0)"  stroke-width="1.0"/>
<line x1="356.9" y1="96.3" x2="357.3" y2="94.7" stroke="rgb(0,0,0)"  stroke-width="1.0"/>
<line x1="349.4" y1="94.9" x2="350.1" y2="92.1" stroke="rgb(0,0,0)"  stroke-width="1.0"/>
<line x1="341.9" y1="93.6" x2="343.0" y2="89.6" stroke="rgb(0,0,0)"  stroke-width="1.0"/>
<line x1="334.4" y1="92.2" x2="335.9" y2="87.0" stroke="rgb(0,0,0)"  stroke-width="1.0"/>
<line x1="327.0" y1="90.9" x2="328.7" y2="84.4" stroke="rgb(0,0,0)"  stroke-width="1.0"/>
<line x1="319.5" y1="89.6" x2="321.6" y2="81.8" stroke="rgb(0,0,0)"  stroke-width="1.0"/>
<polygon points="357.082625 132.019048 343.190057 151.568471 337.533203 145.911616 " stroke-width="1.000000" fill="rgb(0,0,0)"  stroke="rgb(0,0,0)" />
<line x1="378.3" y1="160.0" x2="377.5" y2="158.6" stroke="rgb(0,0,0)"  stroke-width="1.0"/>
<line x1="375.4" y1="162.5" x2="373.9" y2="160.0" stroke="rgb(0,0,0)"  stroke-width="1.0"/>
<line x1="372.4" y1="164.9" x2="370.4" y2="161.3" stroke="rgb(0,0,0)"  stroke-width="1.0"/>
<line x1="369.5" y1="167.4" x2="366.8" y2="162.7" stroke="rgb(0,0,0)"  stroke-width="1.0"/>
<line x1="366.5" y1="169.8" x2="363.2" y2="164.0" stroke="rgb(0,0,0)"  stroke-width="1.0"/>
<line x1="363.6" y1="172.3" x2="359.6" y2="165.3" stroke="rgb(0,0,0)"  stroke-width="1.0"/>
<line x1="350.7" y1="205.2" x2="352.3" y2="205.2" stroke="rgb(0,0,0)"  stroke-width="1.0"/>
<line x1="350.0" y1="201.4" x2="352.9" y2="201.4" stroke="rgb(0,0,0)"  stroke-width="1.0"/>
<line x1="349.4" y1="197.6" x2="353.6" y2="197.6" stroke="rgb(0,0,0)"  stroke-width="1.0"/>
<line x1="348.8" y1="193.8" x2="354.2" y2="193.8" stroke="rgb(0,0,0)"  stroke-width="1.0"/>
<line x1="348.1" y1="190.1" x2="354.8" y2="190.1" stroke="rgb(0,0,0)"  stroke-width="1.0"/>
<line x1="347.5" y1="186.3" x2="355.5" y2="186.3" stroke="rgb(0,0,0)"  stroke-width="1.0"/>
<line x1="428.0" y1="109.8" x2="429.2" y2="111.0" stroke="rgb(0,0,0)"  stroke-width="1.0"/>
<line x1="430.3" y1="106.7" x2="432.3" y2="108.7" stroke="rgb(0,0,0)"  stroke-width="1.0"/>
<line x1="432.5" y1="103.6" x2="435.4" y2="106.5" stroke="rgb(0,0,0)"  stroke-width="1.0"/>
<line x1="434.7" y1="100.5" x2="438.6" y2="104.3" stroke="rgb(0,0,0)"  stroke-width="1.0"/>
<line x1="436.9" y1="97.3" x2="441.7" y2="102.1" stroke="rgb(0,0,0)"  stroke-width="1.0"/>
<line x1="439.2" y1="94.2" x2="444.8" y2="99.9" stroke="rgb(0,0,0)"  stroke-width="1.0"/>
<polygon points="316.372960 213.606174 292.647203 210.103057 295.119339 202.494605 " stroke-width="1.000000" fill="rgb(0,0,0)"  stroke="rgb(0,0,0)" />
<polygon points="309.034900 248.129031 298.371576 269.611044 291.899440 264.908762 " stroke-width="1.000000" fill="rgb(0,0,0)"  stroke="rgb(0,0,0)" />
<line x1="344.4" y1="271.0" x2="343.1" y2="272.0" stroke="rgb(0,0,0)"  stroke-width="1.0"/>
<line x1="348.2" y1="275.2" x2="345.9" y2="276.9" stroke="rgb(0,0,0)"  stroke-width="1.0"/>
<line x1="352.1" y1="279.4" x2="348.7" y2="281.8" stroke="rgb(0,0,0)"  stroke-width="1.0"/>
<line x1="355.9" y1="283.6" x2="351.5" y2="286.8" stroke="rgb(0,0,0)"  stroke-width="1.0"/>
<line x1="359.7" y1="287.8" x2="354.3" y2="291.7" stroke="rgb(0,0,0)"  stroke-width="1.0"/>
<line x1="363.6" y1="292.0" x2="357.1" y2="296.7" stroke="rgb(0,0,0)"  stroke-width="1.0"/>
<line x1="360.3" y1="294.3" x2="382.5" y2="292.0" stroke="rgb(0,0,0)"  stroke-width="1.0"/>
<line x1="92.1" y1="311.1" x2="90.6" y2="310.5" stroke="rgb(0,0,0)"  stroke-width="1.0"/>
<line x1="91.3" y1="314.8" x2="88.6" y2="313.8" stroke="rgb(0,0,0)"  stroke-width="1.0"/>
<line x1="90.6" y1="318.6" x2="86.7" y2="317.1" stroke="rgb(0,0,0)"  stroke-width="1.0"/>
<line x1="89.8" y1="322.3" x2="84.7" y2="320.4" stroke="rgb(0,0,0)"  stroke-width="1.0"/>
<line x1="89.0" y1="326.1" x2="82.8" y2="323.7" stroke="rgb(0,0,0)"  stroke-width="1.0"/>
<line x1="88.3" y1="329.9" x2="80.8" y2="327.0" stroke="rgb(0,0,0)"  stroke-width="1.0"/>
<polygon points="125.978983 318.996509 143.969143 334.856443 137.751975 339.891006 " stroke-width="1.000000" fill="rgb(0,0,0)"  stroke="rgb(0,0,0)" />
<line x1="158.0" y1="295.3" x2="158.2" y2="296.8" stroke="rgb(0,0,0)"  stroke-width="1.0"/>
<line x1="161.6" y1="294.0" x2="162.0" y2="296.9" stroke="rgb(0,0,0)"  stroke-width="1.0"/>
<line x1="165.2" y1="292.8" x2="165.9" y2="296.9" stroke="rgb(0,0,0)"  stroke-width="1.0"/>
<line x1="168.9" y1="291.6" x2="169.7" y2="297.0" stroke="rgb(0,0,0)"  stroke-width="1.0"/>
<line x1="172.5" y1="290.4" x2="173.6" y2="297.0" stroke="rgb(0,0,0)"  stroke-width="1.0"/>
<line x1="176.1" y1="289.1" x2="177.4" y2="297.0" stroke="rgb(0,0,0)"  stroke-width="1.0"/>
<line x1="166.8" y1="263.1" x2="166.6" y2="264.7" stroke="rgb(0,0,0)"  stroke-width="1.0"/>
<line x1="181.9" y1="264.1" x2="181.6" y2="266.9" stroke="rgb(0,0,0)"  stroke-width="1.0"/>
<line x1="197.0" y1="265.0" x2="196.6" y2="269.1" stroke="rgb(0,0,0)"  stroke-width="1.0"/>
<line x1="212.1" y1="265.9" x2="211.6" y2="271.4" stroke="rgb(0,0,0)"  stroke-width="1.0"/>
<line x1="227.3" y1="266.9" x2="226.6" y2="273.6" stroke="rgb(0,0,0)"  stroke-width="1.0"/>
<line x1="242.4" y1="267.8" x2="241.5" y2="275.8" stroke="rgb(0,0,0)"  stroke-width="1.0"/>
<line x1="80.7" y1="273.4" x2="80.4" y2="271.8" stroke="rgb(0,0,0)"  stroke-width="1.0"/>
<line x1="75.2" y1="274.9" x2="74.7" y2="272.1" stroke="rgb(0,0,0)"  stroke-width="1.0"/>
<line x1="69.7" y1="276.4" x2="69.1" y2="272.3" stroke="rgb(0,0,0)"  stroke-width="1.0"/>
<line x1="64.2" y1="277.9" x2="63.4" y2="272.6" stroke="rgb(0,0,0)"  stroke-width="1.0"/>
<line x1="58.8" y1="279.4" x2="57.7" y2="272.8" stroke="rgb(0,0,0)"  stroke-width="1.0"/>
<line x1="53.3" y1="281.0" x2="52.0" y2="273.1" stroke="rgb(0,0,0)"  stroke-width="1.0"/>
<line x1="52.6" y1="277.0" x2="44.7" y2="297.8" stroke="rgb(0,0,0)"  stroke-width="1.0"/>
<line x1="351.5" y1="209.9" x2="316.4" y2="213.6" stroke="rgb(0,0,0)"  stroke-width="1.0"/>
<line x1="316.4" y1="213.6" x2="309.0" y2="248.1" stroke="rgb(0,0,0)"  stroke-width="1.0"/>
<line x1="309.0" y1="248.1" x2="339.6" y2="265.8" stroke="rgb(0,0,0)"  stroke-width="1.0"/>
<line x1="339.6" y1="265.8" x2="356.2" y2="250.9" stroke="rgb(0,0,0)"  stroke-width="1.0"/>
<line x1="360.5" y1="230.3" x2="351.5" y2="209.9" stroke="rgb(0,0,0)"  stroke-width="1.0"/>
<line x1="509.3" y1="141.2" x2="526.9" y2="110.6" stroke="rgb(0,0,0)"  stroke-width="1.0"/>
<line x1="526.9" y1="110.6" x2="562.2" y2="110.6" stroke="rgb(0,0,0)"  stroke-width="1.0"/>
<line x1="562.2" y1="110.6" x2="579.9" y2="141.2" stroke="rgb(0,0,0)"  stroke-width="1.0"/>
<line x1="579.9" y1="141.2" x2="562.2" y2="171.7" stroke="rgb(0,0,0)"  stroke-width="1.0"/>
<line x1="562.2" y1="171.7" x2="539.9" y2="171.7" stroke="rgb(0,0,0)"  stroke-width="1.0"/>
<line x1="520.4" y1="160.5" x2="509.3" y2="141.2" stroke="rgb(0,0,0)"  stroke-width="1.0"/>
<line x1="357.1" y1="132.0" x2="366.2" y2="97.9" stroke="rgb(0,0,0)"  stroke-width="1.0"/>
<line x1="366.2" y1="97.9" x2="400.3" y2="88.8" stroke="rgb(0,0,0)"  stroke-width="1.0"/>
<line x1="400.3" y1="88.8" x2="425.3" y2="113.7" stroke="rgb(0,0,0)"  stroke-width="1.0"/>
<line x1="425.3" y1="113.7" x2="416.1" y2="147.8" stroke="rgb(0,0,0)"  stroke-width="1.0"/>
<line x1="416.1" y1="147.8" x2="382.0" y2="157.0" stroke="rgb(0,0,0)"  stroke-width="1.0"/>
<line x1="382.0" y1="157.0" x2="357.1" y2="132.0" stroke="rgb(0,0,0)"  stroke-width="1.0"/>
<line x1="126.0" y1="319.0" x2="93.0" y2="306.3" stroke="rgb(0,0,0)"  stroke-width="1.0"/>
<line x1="93.0" y1="306.3" x2="87.5" y2="271.5" stroke="rgb(0,0,0)"  stroke-width="1.0"/>
<line x1="87.5" y1="271.5" x2="104.8" y2="257.5" stroke="rgb(0,0,0)"  stroke-width="1.0"/>
<line x1="127.1" y1="253.9" x2="147.9" y2="261.9" stroke="rgb(0,0,0)"  stroke-width="1.0"/>
<line x1="147.9" y1="261.9" x2="153.4" y2="296.8" stroke="rgb(0,0,0)"  stroke-width="1.0"/>
<line x1="153.4" y1="296.8" x2="126.0" y2="319.0" stroke="rgb(0,0,0)"  stroke-width="1.0"/>
<text x="478.313835" y="174.110548" fill="rgb(255,12,12)"  stroke="rgb(255,12,12)" stroke-width="1" font-size="16" >O</text>
<text x="531.717603" y="35.968000" fill="rgb(12,12,255)"  stroke="rgb(12,12,255)" stroke-width="1" font-size="16" >+</text>
<text x="522.917603" y="48.000000" fill="rgb(12,12,255)"  stroke="rgb(12,12,255)" stroke-width="1" font-size="16" >NH</text>
<text x="546.917603" y="51.680000" fill="rgb(12,12,255)"  stroke="rgb(12,12,255)" stroke-width="1" font-size="13" >3</text>
<text x="586.777323" y="100.941176" fill="rgb(255,12,12)"  stroke="rgb(255,12,12)" stroke-width="1" font-size="16" >OH</text>
<text x="604.424382" y="166.800897" fill="rgb(255,12,12)"  stroke="rgb(255,12,12)" stroke-width="1" font-size="16" >OH</text>
<text x="520.917603" y="179.719440" fill="rgb(255,12,12)"  stroke="rgb(255,12,12)" stroke-width="1" font-size="16" >O</text>
<text x="302.834416" y="75.625969" fill="rgb(12,12,255)"  stroke="rgb(12,12,255)" stroke-width="1" font-size="16" >+</text>
<text x="272.034416" y="87.657969" fill="rgb(12,12,255)"  stroke="rgb(12,12,255)" stroke-width="1" font-size="16" >H</text>
<text x="284.034416" y="91.337969" fill="rgb(12,12,255)"  stroke="rgb(12,12,255)" stroke-width="1" font-size="13" >3</text>
<text x="290.534416" y="87.657969" fill="rgb(12,12,255)"  stroke="rgb(12,12,255)" stroke-width="1" font-size="16" >N</text>
<text x="345.473733" y="182.622817" fill="rgb(255,12,12)"  stroke="rgb(255,12,12)" stroke-width="1" font-size="16" >O</text>
<text x="455.022335" y="84.760758" fill="rgb(12,12,255)"  stroke="rgb(12,12,255)" stroke-width="1" font-size="16" >+</text>
<text x="446.222335" y="96.792758" fill="rgb(12,12,255)"  stroke="rgb(12,12,255)" stroke-width="1" font-size="16" >NH</text>
<text x="470.222335" y="100.472758" fill="rgb(12,12,255)"  stroke="rgb(12,12,255)" stroke-width="1" font-size="13" >3</text>
<text x="359.829144" y="250.159715" fill="rgb(255,12,12)"  stroke="rgb(255,12,12)" stroke-width="1" font-size="16" >O</text>
<text x="282.289539" y="284.682572" fill="rgb(255,12,12)"  stroke="rgb(255,12,12)" stroke-width="1" font-size="16" >O</text>
<text x="108.936550" y="257.277332" fill="rgb(255,12,12)"  stroke="rgb(255,12,12)" stroke-width="1" font-size="16" >O</text>
<text x="536.446119" y="220.628617" fill="rgb(12,12,255)"  stroke="rgb(12,12,255)" stroke-width="1" font-size="16" >+</text>
<text x="505.646119" y="232.660617" fill="rgb(12,12,255)"  stroke="rgb(12,12,255)" stroke-width="1" font-size="16" >H</text>
<text x="517.646119" y="236.340617" fill="rgb(12,12,255)"  stroke="rgb(12,12,255)" stroke-width="1" font-size="13" >3</text>
<text x="524.146119" y="232.660617" fill="rgb(12,12,255)"  stroke="rgb(12,12,255)" stroke-width="1" font-size="16" >N</text>
<text x="264.806260" y="210.699692" fill="rgb(255,12,12)"  stroke="rgb(255,12,12)" stroke-width="1" font-size="16" >HO</text>
<text x="142.190291" y="354.425190" fill="rgb(255,12,12)"  stroke="rgb(255,12,12)" stroke-width="1" font-size="16" >OH</text>
<text x="62.380805" y="347.298125" fill="rgb(255,12,12)"  stroke="rgb(255,12,12)" stroke-width="1" font-size="16" >HO</text>
<text x="389.446638" y="298.640391" fill="rgb(255,12,12)"  stroke="rgb(255,12,12)" stroke-width="1" font-size="16" >OH</text>
<text x="314.125916" y="164.975758" fill="rgb(255,12,12)"  stroke="rgb(255,12,12)" stroke-width="1" font-size="16" >HO</text>
<text x="44.800000" y="305.927753" fill="rgb(12,12,255)"  stroke="rgb(12,12,255)" stroke-width="1" font-size="16" >+</text>
<text x="14.000000" y="317.959753" fill="rgb(12,12,255)"  stroke="rgb(12,12,255)" stroke-width="1" font-size="16" >H</text>
<text x="26.000000" y="321.639753" fill="rgb(12,12,255)"  stroke="rgb(12,12,255)" stroke-width="1" font-size="13" >3</text>
<text x="32.500000" y="317.959753" fill="rgb(12,12,255)"  stroke="rgb(12,12,255)" stroke-width="1" font-size="16" >N</text>
<text x="193.067252" y="287.231984" fill="rgb(12,12,255)"  stroke="rgb(12,12,255)" stroke-width="1" font-size="16" >+</text>
<text x="184.267252" y="299.263984" fill="rgb(12,12,255)"  stroke="rgb(12,12,255)" stroke-width="1" font-size="16" >NH</text>
<text x="208.267252" y="302.943984" fill="rgb(12,12,255)"  stroke="rgb(12,12,255)" stroke-width="1" font-size="13" >3</text>
<text font-size="18.000000" fill ="black" font-family="sans-serif"
x="10.000000" y="20.000000" ></text>
<title> - OBDepict</title>
</svg>
