<?xml version="1.0"?>
<svg xmlns="http://www.w3.org/2000/svg"
xmlns:xlink="http://www.w3.org/1999/xlink" xmlns:cml="http://www.xml-cml.org/schema" width="300" height="183.923" x="0" y="0" font-family="sans-serif" stroke="rgb(0,0,0)" stroke-width="1"  stroke-linecap="round">
<rect x="0%" y="0%" width="100%" height="100%" stroke-width="0" fill="rgb(255,255,255)"  />
<polygon points="220 109.282 246.8 105.282 246.8 113.282 " stroke-width="1" fill="rgb(0,0,0)"  stroke="rgb(0,0,0)" />
<line x1="220.0" y1="109.3" x2="200.0" y2="143.9" stroke="rgb(0,0,0)"  stroke-width="1.0"/>
<line x1="220.0" y1="109.3" x2="200.0" y2="74.6" stroke="rgb(0,0,0)"  stroke-width="1.0"/>
<line x1="200.0" y1="74.6" x2="213.5" y2="51.3" stroke="rgb(0,0,0)"  stroke-width="1.0"/>
<line x1="200.0" y1="77.6" x2="173.0" y2="77.6" stroke="rgb(0,0,0)"  stroke-width="1.0"/>
<line x1="200.0" y1="71.6" x2="173.0" y2="71.6" stroke="rgb(0,0,0)"  stroke-width="1.0"/>
<line x1="200.0" y1="143.9" x2="160.0" y2="143.9" stroke="rgb(0,0,0)"  stroke-width="1.0"/>
<line x1="160.0" y1="143.9" x2="140.0" y2="109.3" stroke="rgb(0,0,0)"  stroke-width="1.0"/>
<line x1="140.0" y1="109.3" x2="113.0" y2="109.3" stroke="rgb(0,0,0)"  stroke-width="1.0"/>
<line x1="93.5" y1="98.0" x2="80.0" y2="74.6" stroke="rgb(0,0,0)"  stroke-width="1.0"/>
<line x1="80.0" y1="74.6" x2="93.5" y2="51.3" stroke="rgb(0,0,0)"  stroke-width="1.0"/>
<line x1="80.0" y1="77.6" x2="53.0" y2="77.6" stroke="rgb(0,0,0)"  stroke-width="1.0"/>
<line x1="80.0" y1="71.6" x2="53.0" y2="71.6" stroke="rgb(0,0,0)"  stroke-width="1.0"/>
<text x="264.800000" y="105.250032" fill="rgb(12,12,255)"  stroke="rgb(12,12,255)" stroke-width="1" font-size="16" >+</text>
<text x="256.000000" y="117.282032" fill="rgb(12,12,255)"  stroke="rgb(12,12,255)" stroke-width="1" font-size="16" >NH</text>
<text x="280.000000" y="120.962032" fill="rgb(12,12,255)"  stroke="rgb(12,12,255)" stroke-width="1" font-size="13" >3</text>
<text x="223.900000" y="36.724000" fill="rgb(255,12,12)"  stroke="rgb(255,12,12)" stroke-width="1" font-size="26" >-</text>
<text x="214.000000" y="48.000000" fill="rgb(255,12,12)"  stroke="rgb(255,12,12)" stroke-width="1" font-size="16" >O</text>
<text x="94.000000" y="117.282032" fill="rgb(12,12,255)"  stroke="rgb(12,12,255)" stroke-width="1" font-size="16" >N</text>
<text x="94.000000" y="133.282032" fill="rgb(12,12,255)"  stroke="rgb(12,12,255)" stroke-width="1" font-size="16" >H</text>
<text x="96.000000" y="48.000000" fill="rgb(12,12,255)"  stroke="rgb(12,12,255)" stroke-width="1" font-size="16" >NH</text>
<text x="120.000000" y="51.680000" fill="rgb(12,12,255)"  stroke="rgb(12,12,255)" stroke-width="1" font-size="13" >2</text>
<text x="43.900000" y="71.365016" fill="rgb(12,12,255)"  stroke="rgb(12,12,255)" stroke-width="1" font-size="13" >+</text>
<text x="14.000000" y="82.641016" fill="rgb(12,12,255)"  stroke="rgb(12,12,255)" stroke-width="1" font-size="16" >H</text>
<text x="26.000000" y="86.321016" fill="rgb(12,12,255)"  stroke="rgb(12,12,255)" stroke-width="1" font-size="13" >2</text>
<text x="32.500000" y="82.641016" fill="rgb(12,12,255)"  stroke="rgb(12,12,255)" stroke-width="1" font-size="16" >N</text>
<text x="154.000000" y="82.641016" fill="rgb(255,12,12)"  stroke="rgb(255,12,12)" stroke-width="1" font-size="16" >O</text>
<text font-size="18.000000" fill ="black" font-family="sans-serif"
x="10.000000" y="20.000000" ></text>
<title> - OBDepict</title>
</svg>
