<?xml version="1.0"?>
<svg xmlns="http://www.w3.org/2000/svg"
xmlns:xlink="http://www.w3.org/1999/xlink" xmlns:cml="http://www.xml-cml.org/schema" width="548.429" height="446.085" x="0" y="0" font-family="sans-serif" stroke="rgb(0,0,0)" stroke-width="1"  stroke-linecap="round">
<rect x="0%" y="0%" width="100%" height="100%" stroke-width="0" fill="rgb(255,255,255)"  />
<polygon points="143.923 286.085 165.133 269.221 169.133 276.149 " stroke-width="1" fill="rgb(0,0,0)"  stroke="rgb(0,0,0)" />
<polygon points="213.205 286.085 187.996 276.149 191.996 269.221 " stroke-width="1" fill="rgb(0,0,0)"  stroke="rgb(0,0,0)" />
<polygon points="109.282 266.085 105.282 239.285 113.282 239.285 " stroke-width="1" fill="rgb(0,0,0)"  stroke="rgb(0,0,0)" />
<line x1="69.6" y1="284.1" x2="70.4" y2="282.7" stroke="rgb(0,0,0)"  stroke-width="1.0"/>
<line x1="65.6" y1="282.5" x2="67.0" y2="280.0" stroke="rgb(0,0,0)"  stroke-width="1.0"/>
<line x1="61.5" y1="280.9" x2="63.6" y2="277.3" stroke="rgb(0,0,0)"  stroke-width="1.0"/>
<line x1="57.5" y1="279.3" x2="60.2" y2="274.6" stroke="rgb(0,0,0)"  stroke-width="1.0"/>
<line x1="53.5" y1="277.7" x2="56.8" y2="271.9" stroke="rgb(0,0,0)"  stroke-width="1.0"/>
<line x1="49.4" y1="276.1" x2="53.4" y2="269.2" stroke="rgb(0,0,0)"  stroke-width="1.0"/>
<polygon points="74.641016 326.085075 53.431535 342.949177 49.431535 336.020974 " stroke-width="1.000000" fill="rgb(0,0,0)"  stroke="rgb(0,0,0)" />
<line x1="110.1" y1="354.1" x2="108.5" y2="354.1" stroke="rgb(0,0,0)"  stroke-width="1.0"/>
<line x1="110.7" y1="360.5" x2="107.8" y2="360.5" stroke="rgb(0,0,0)"  stroke-width="1.0"/>
<line x1="111.4" y1="366.9" x2="107.2" y2="366.9" stroke="rgb(0,0,0)"  stroke-width="1.0"/>
<line x1="112.0" y1="373.3" x2="106.6" y2="373.3" stroke="rgb(0,0,0)"  stroke-width="1.0"/>
<line x1="112.6" y1="379.7" x2="105.9" y2="379.7" stroke="rgb(0,0,0)"  stroke-width="1.0"/>
<line x1="113.3" y1="386.1" x2="105.3" y2="386.1" stroke="rgb(0,0,0)"  stroke-width="1.0"/>
<line x1="109.3" y1="386.1" x2="85.9" y2="399.6" stroke="rgb(0,0,0)"  stroke-width="1.0"/>
<line x1="287.5" y1="328.1" x2="286.7" y2="329.5" stroke="rgb(0,0,0)"  stroke-width="1.0"/>
<line x1="291.6" y1="329.7" x2="290.1" y2="332.2" stroke="rgb(0,0,0)"  stroke-width="1.0"/>
<line x1="295.6" y1="331.3" x2="293.5" y2="334.9" stroke="rgb(0,0,0)"  stroke-width="1.0"/>
<line x1="299.6" y1="332.8" x2="296.9" y2="337.6" stroke="rgb(0,0,0)"  stroke-width="1.0"/>
<line x1="303.7" y1="334.4" x2="300.3" y2="340.3" stroke="rgb(0,0,0)"  stroke-width="1.0"/>
<line x1="307.7" y1="336.0" x2="303.7" y2="342.9" stroke="rgb(0,0,0)"  stroke-width="1.0"/>
<polygon points="282.487113 286.085075 303.696594 269.220974 307.696594 276.149177 " stroke-width="1.000000" fill="rgb(0,0,0)"  stroke="rgb(0,0,0)" />
<line x1="247.0" y1="260.7" x2="248.6" y2="260.7" stroke="rgb(0,0,0)"  stroke-width="1.0"/>
<line x1="246.4" y1="256.4" x2="249.3" y2="256.4" stroke="rgb(0,0,0)"  stroke-width="1.0"/>
<line x1="245.8" y1="252.1" x2="249.9" y2="252.1" stroke="rgb(0,0,0)"  stroke-width="1.0"/>
<line x1="245.1" y1="247.9" x2="250.6" y2="247.9" stroke="rgb(0,0,0)"  stroke-width="1.0"/>
<line x1="244.5" y1="243.6" x2="251.2" y2="243.6" stroke="rgb(0,0,0)"  stroke-width="1.0"/>
<line x1="243.8" y1="239.3" x2="251.8" y2="239.3" stroke="rgb(0,0,0)"  stroke-width="1.0"/>
<polygon points="282.487113 206.085075 261.277632 222.949177 257.277632 216.020974 " stroke-width="1.000000" fill="rgb(0,0,0)"  stroke="rgb(0,0,0)" />
<line x1="209.0" y1="329.5" x2="208.2" y2="328.1" stroke="rgb(0,0,0)"  stroke-width="1.0"/>
<line x1="205.6" y1="332.2" x2="204.1" y2="329.7" stroke="rgb(0,0,0)"  stroke-width="1.0"/>
<line x1="202.2" y1="334.9" x2="200.1" y2="331.3" stroke="rgb(0,0,0)"  stroke-width="1.0"/>
<line x1="198.8" y1="337.6" x2="196.1" y2="332.8" stroke="rgb(0,0,0)"  stroke-width="1.0"/>
<line x1="195.4" y1="340.3" x2="192.0" y2="334.4" stroke="rgb(0,0,0)"  stroke-width="1.0"/>
<line x1="192.0" y1="342.9" x2="188.0" y2="336.0" stroke="rgb(0,0,0)"  stroke-width="1.0"/>
<line x1="282.1" y1="163.3" x2="283.2" y2="162.1" stroke="rgb(0,0,0)"  stroke-width="1.0"/>
<line x1="278.5" y1="160.9" x2="280.5" y2="158.8" stroke="rgb(0,0,0)"  stroke-width="1.0"/>
<line x1="274.9" y1="158.5" x2="277.7" y2="155.4" stroke="rgb(0,0,0)"  stroke-width="1.0"/>
<line x1="271.3" y1="156.1" x2="274.9" y2="152.1" stroke="rgb(0,0,0)"  stroke-width="1.0"/>
<line x1="267.7" y1="153.7" x2="272.2" y2="148.7" stroke="rgb(0,0,0)"  stroke-width="1.0"/>
<line x1="264.1" y1="151.3" x2="269.4" y2="145.4" stroke="rgb(0,0,0)"  stroke-width="1.0"/>
<line x1="327.2" y1="152.8" x2="328.7" y2="153.4" stroke="rgb(0,0,0)"  stroke-width="1.0"/>
<line x1="328.4" y1="148.6" x2="331.0" y2="149.8" stroke="rgb(0,0,0)"  stroke-width="1.0"/>
<line x1="329.6" y1="144.4" x2="333.4" y2="146.1" stroke="rgb(0,0,0)"  stroke-width="1.0"/>
<line x1="330.7" y1="140.2" x2="335.7" y2="142.4" stroke="rgb(0,0,0)"  stroke-width="1.0"/>
<line x1="331.9" y1="136.1" x2="338.0" y2="138.8" stroke="rgb(0,0,0)"  stroke-width="1.0"/>
<line x1="333.0" y1="131.9" x2="340.3" y2="135.1" stroke="rgb(0,0,0)"  stroke-width="1.0"/>
<polygon points="345.794156 192.628748 385.993145 192.831799 385.156918 200.787974 " stroke-width="1.000000" fill="rgb(0,0,0)"  stroke="rgb(0,0,0)" />
<line x1="385.6" y1="196.8" x2="396.6" y2="221.5" stroke="rgb(0,0,0)"  stroke-width="1.0"/>
<line x1="466.7" y1="107.5" x2="466.8" y2="109.1" stroke="rgb(0,0,0)"  stroke-width="1.0"/>
<line x1="470.9" y1="106.5" x2="471.2" y2="109.3" stroke="rgb(0,0,0)"  stroke-width="1.0"/>
<line x1="475.0" y1="105.4" x2="475.5" y2="109.5" stroke="rgb(0,0,0)"  stroke-width="1.0"/>
<line x1="479.2" y1="104.3" x2="479.8" y2="109.7" stroke="rgb(0,0,0)"  stroke-width="1.0"/>
<line x1="483.4" y1="103.2" x2="484.1" y2="109.9" stroke="rgb(0,0,0)"  stroke-width="1.0"/>
<line x1="487.6" y1="102.1" x2="488.5" y2="110.1" stroke="rgb(0,0,0)"  stroke-width="1.0"/>
<polygon points="437.894839 76.541818 445.141199 50.431853 452.449563 53.685747 " stroke-width="1.000000" fill="rgb(0,0,0)"  stroke="rgb(0,0,0)" />
<line x1="394.3" y1="76.9" x2="395.6" y2="75.9" stroke="rgb(0,0,0)"  stroke-width="1.0"/>
<line x1="391.3" y1="73.8" x2="393.6" y2="72.1" stroke="rgb(0,0,0)"  stroke-width="1.0"/>
<line x1="388.2" y1="70.7" x2="391.6" y2="68.2" stroke="rgb(0,0,0)"  stroke-width="1.0"/>
<line x1="385.2" y1="67.6" x2="389.6" y2="64.4" stroke="rgb(0,0,0)"  stroke-width="1.0"/>
<line x1="382.2" y1="64.5" x2="387.6" y2="60.5" stroke="rgb(0,0,0)"  stroke-width="1.0"/>
<line x1="379.1" y1="61.4" x2="385.6" y2="56.7" stroke="rgb(0,0,0)"  stroke-width="1.0"/>
<line x1="376.6" y1="118.6" x2="376.4" y2="117.0" stroke="rgb(0,0,0)"  stroke-width="1.0"/>
<line x1="372.4" y1="119.7" x2="372.1" y2="116.8" stroke="rgb(0,0,0)"  stroke-width="1.0"/>
<line x1="368.2" y1="120.8" x2="367.8" y2="116.7" stroke="rgb(0,0,0)"  stroke-width="1.0"/>
<line x1="364.0" y1="121.9" x2="363.4" y2="116.5" stroke="rgb(0,0,0)"  stroke-width="1.0"/>
<line x1="359.8" y1="123.0" x2="359.1" y2="116.3" stroke="rgb(0,0,0)"  stroke-width="1.0"/>
<line x1="355.6" y1="124.0" x2="354.8" y2="116.1" stroke="rgb(0,0,0)"  stroke-width="1.0"/>
<line x1="450.5" y1="151.4" x2="449.2" y2="152.4" stroke="rgb(0,0,0)"  stroke-width="1.0"/>
<line x1="454.8" y1="156.2" x2="452.4" y2="157.9" stroke="rgb(0,0,0)"  stroke-width="1.0"/>
<line x1="459.0" y1="161.0" x2="455.7" y2="163.5" stroke="rgb(0,0,0)"  stroke-width="1.0"/>
<line x1="463.3" y1="165.9" x2="458.9" y2="169.0" stroke="rgb(0,0,0)"  stroke-width="1.0"/>
<line x1="467.6" y1="170.7" x2="462.2" y2="174.6" stroke="rgb(0,0,0)"  stroke-width="1.0"/>
<line x1="471.9" y1="175.5" x2="465.4" y2="180.2" stroke="rgb(0,0,0)"  stroke-width="1.0"/>
<line x1="468.6" y1="177.8" x2="495.5" y2="175.0" stroke="rgb(0,0,0)"  stroke-width="1.0"/>
<line x1="282.5" y1="206.1" x2="286.7" y2="166.3" stroke="rgb(0,0,0)"  stroke-width="1.0"/>
<line x1="286.7" y1="166.3" x2="325.8" y2="158.0" stroke="rgb(0,0,0)"  stroke-width="1.0"/>
<line x1="325.8" y1="158.0" x2="345.8" y2="192.6" stroke="rgb(0,0,0)"  stroke-width="1.0"/>
<line x1="345.8" y1="192.6" x2="327.7" y2="212.7" stroke="rgb(0,0,0)"  stroke-width="1.0"/>
<line x1="307.2" y1="217.1" x2="282.5" y2="206.1" stroke="rgb(0,0,0)"  stroke-width="1.0"/>
<line x1="143.9" y1="286.1" x2="109.3" y2="266.1" stroke="rgb(0,0,0)"  stroke-width="1.0"/>
<line x1="109.3" y1="266.1" x2="74.6" y2="286.1" stroke="rgb(0,0,0)"  stroke-width="1.0"/>
<line x1="74.6" y1="286.1" x2="74.6" y2="326.1" stroke="rgb(0,0,0)"  stroke-width="1.0"/>
<line x1="74.6" y1="326.1" x2="109.3" y2="346.1" stroke="rgb(0,0,0)"  stroke-width="1.0"/>
<line x1="109.3" y1="346.1" x2="132.7" y2="332.6" stroke="rgb(0,0,0)"  stroke-width="1.0"/>
<line x1="143.9" y1="313.1" x2="143.9" y2="286.1" stroke="rgb(0,0,0)"  stroke-width="1.0"/>
<line x1="282.5" y1="286.1" x2="282.5" y2="326.1" stroke="rgb(0,0,0)"  stroke-width="1.0"/>
<line x1="282.5" y1="326.1" x2="247.8" y2="346.1" stroke="rgb(0,0,0)"  stroke-width="1.0"/>
<line x1="247.8" y1="346.1" x2="213.2" y2="326.1" stroke="rgb(0,0,0)"  stroke-width="1.0"/>
<line x1="213.2" y1="326.1" x2="213.2" y2="286.1" stroke="rgb(0,0,0)"  stroke-width="1.0"/>
<line x1="213.2" y1="286.1" x2="247.8" y2="266.1" stroke="rgb(0,0,0)"  stroke-width="1.0"/>
<line x1="247.8" y1="266.1" x2="282.5" y2="286.1" stroke="rgb(0,0,0)"  stroke-width="1.0"/>
<line x1="437.9" y1="76.5" x2="461.4" y2="108.9" stroke="rgb(0,0,0)"  stroke-width="1.0"/>
<line x1="461.4" y1="108.9" x2="445.1" y2="145.4" stroke="rgb(0,0,0)"  stroke-width="1.0"/>
<line x1="445.1" y1="145.4" x2="418.3" y2="148.3" stroke="rgb(0,0,0)"  stroke-width="1.0"/>
<line x1="397.7" y1="139.1" x2="381.8" y2="117.3" stroke="rgb(0,0,0)"  stroke-width="1.0"/>
<line x1="381.8" y1="117.3" x2="398.1" y2="80.7" stroke="rgb(0,0,0)"  stroke-width="1.0"/>
<line x1="398.1" y1="80.7" x2="437.9" y2="76.5" stroke="rgb(0,0,0)"  stroke-width="1.0"/>
<text x="172.564065" y="274.085075" fill="rgb(255,12,12)"  stroke="rgb(255,12,12)" stroke-width="1" font-size="16" >O</text>
<text x="114.082032" y="222.053075" fill="rgb(12,12,255)"  stroke="rgb(12,12,255)" stroke-width="1" font-size="16" >+</text>
<text x="105.282032" y="234.085075" fill="rgb(12,12,255)"  stroke="rgb(12,12,255)" stroke-width="1" font-size="16" >NH</text>
<text x="129.282032" y="237.765075" fill="rgb(12,12,255)"  stroke="rgb(12,12,255)" stroke-width="1" font-size="13" >3</text>
<text x="22.000000" y="274.085075" fill="rgb(255,12,12)"  stroke="rgb(255,12,12)" stroke-width="1" font-size="16" >HO</text>
<text x="22.000000" y="354.085075" fill="rgb(255,12,12)"  stroke="rgb(255,12,12)" stroke-width="1" font-size="16" >HO</text>
<text x="137.923048" y="334.085075" fill="rgb(255,12,12)"  stroke="rgb(255,12,12)" stroke-width="1" font-size="16" >O</text>
<text x="56.641016" y="414.085075" fill="rgb(255,12,12)"  stroke="rgb(255,12,12)" stroke-width="1" font-size="16" >HO</text>
<text x="321.928129" y="342.053075" fill="rgb(12,12,255)"  stroke="rgb(12,12,255)" stroke-width="1" font-size="16" >+</text>
<text x="313.128129" y="354.085075" fill="rgb(12,12,255)"  stroke="rgb(12,12,255)" stroke-width="1" font-size="16" >NH</text>
<text x="337.128129" y="357.765075" fill="rgb(12,12,255)"  stroke="rgb(12,12,255)" stroke-width="1" font-size="13" >3</text>
<text x="311.128129" y="274.085075" fill="rgb(255,12,12)"  stroke="rgb(255,12,12)" stroke-width="1" font-size="16" >OH</text>
<text x="241.846097" y="234.085075" fill="rgb(255,12,12)"  stroke="rgb(255,12,12)" stroke-width="1" font-size="16" >O</text>
<text x="183.364065" y="342.053075" fill="rgb(12,12,255)"  stroke="rgb(12,12,255)" stroke-width="1" font-size="16" >+</text>
<text x="152.564065" y="354.085075" fill="rgb(12,12,255)"  stroke="rgb(12,12,255)" stroke-width="1" font-size="16" >H</text>
<text x="164.564065" y="357.765075" fill="rgb(12,12,255)"  stroke="rgb(12,12,255)" stroke-width="1" font-size="13" >3</text>
<text x="171.064065" y="354.085075" fill="rgb(12,12,255)"  stroke="rgb(12,12,255)" stroke-width="1" font-size="16" >N</text>
<text x="238.942459" y="147.538975" fill="rgb(255,12,12)"  stroke="rgb(255,12,12)" stroke-width="1" font-size="16" >HO</text>
<text x="313.028931" y="230.354541" fill="rgb(255,12,12)"  stroke="rgb(255,12,12)" stroke-width="1" font-size="16" >O</text>
<text x="395.844497" y="241.351705" fill="rgb(255,12,12)"  stroke="rgb(255,12,12)" stroke-width="1" font-size="16" >OH</text>
<text x="495.187125" y="112.721360" fill="rgb(255,12,12)"  stroke="rgb(255,12,12)" stroke-width="1" font-size="16" >OH</text>
<text x="448.164304" y="48.000000" fill="rgb(255,12,12)"  stroke="rgb(255,12,12)" stroke-width="1" font-size="16" >OH</text>
<text x="379.402553" y="44.330277" fill="rgb(12,12,255)"  stroke="rgb(12,12,255)" stroke-width="1" font-size="16" >+</text>
<text x="348.602553" y="56.362277" fill="rgb(12,12,255)"  stroke="rgb(12,12,255)" stroke-width="1" font-size="16" >H</text>
<text x="360.602553" y="60.042277" fill="rgb(12,12,255)"  stroke="rgb(12,12,255)" stroke-width="1" font-size="13" >3</text>
<text x="367.102553" y="56.362277" fill="rgb(12,12,255)"  stroke="rgb(12,12,255)" stroke-width="1" font-size="16" >N</text>
<text x="336.063621" y="129.445914" fill="rgb(255,12,12)"  stroke="rgb(255,12,12)" stroke-width="1" font-size="16" >O</text>
<text x="399.355907" y="157.625455" fill="rgb(255,12,12)"  stroke="rgb(255,12,12)" stroke-width="1" font-size="16" >O</text>
<text x="513.229069" y="169.591858" fill="rgb(12,12,255)"  stroke="rgb(12,12,255)" stroke-width="1" font-size="16" >+</text>
<text x="504.429069" y="181.623858" fill="rgb(12,12,255)"  stroke="rgb(12,12,255)" stroke-width="1" font-size="16" >NH</text>
<text x="528.429069" y="185.303858" fill="rgb(12,12,255)"  stroke="rgb(12,12,255)" stroke-width="1" font-size="13" >3</text>
<text font-size="18.000000" fill ="black" font-family="sans-serif"
x="10.000000" y="20.000000" ></text>
<title> - OBDepict</title>
</svg>
