<?xml version="1.0"?>
<svg xmlns="http://www.w3.org/2000/svg"
xmlns:xlink="http://www.w3.org/1999/xlink" xmlns:cml="http://www.xml-cml.org/schema" width="183.923" height="200" x="0" y="0" font-family="sans-serif" stroke="rgb(0,0,0)" stroke-width="1"  stroke-linecap="round">
<rect x="0%" y="0%" width="100%" height="100%" stroke-width="0" fill="rgb(255,255,255)"  />
<line x1="107.8" y1="57.4" x2="131.2" y2="43.9" stroke="rgb(0,0,0)"  stroke-width="1.0"/>
<line x1="110.8" y1="62.6" x2="134.2" y2="49.1" stroke="rgb(0,0,0)"  stroke-width="1.0"/>
<line x1="74.6" y1="120.0" x2="74.6" y2="147.0" stroke="rgb(0,0,0)"  stroke-width="1.0"/>
<line x1="109.3" y1="60.0" x2="109.3" y2="87.0" stroke="rgb(0,0,0)"  stroke-width="1.0"/>
<line x1="98.0" y1="106.5" x2="74.6" y2="120.0" stroke="rgb(0,0,0)"  stroke-width="1.0"/>
<line x1="74.6" y1="120.0" x2="51.4" y2="106.6" stroke="rgb(0,0,0)"  stroke-width="1.0"/>
<line x1="73.0" y1="110.8" x2="56.8" y2="101.4" stroke="rgb(0,0,0)"  stroke-width="1.0"/>
<line x1="40.0" y1="87.0" x2="40.0" y2="60.0" stroke="rgb(0,0,0)"  stroke-width="1.0"/>
<line x1="40.0" y1="60.0" x2="63.2" y2="46.6" stroke="rgb(0,0,0)"  stroke-width="1.0"/>
<line x1="48.8" y1="63.2" x2="65.1" y2="53.8" stroke="rgb(0,0,0)"  stroke-width="1.0"/>
<line x1="85.9" y1="46.5" x2="109.3" y2="60.0" stroke="rgb(0,0,0)"  stroke-width="1.0"/>
<text x="103.282032" y="108.000000" fill="rgb(12,12,255)"  stroke="rgb(12,12,255)" stroke-width="1" font-size="16" >NH</text>
<text x="34.000000" y="108.000000" fill="rgb(12,12,255)"  stroke="rgb(12,12,255)" stroke-width="1" font-size="16" >N</text>
<text x="68.641016" y="48.000000" fill="rgb(12,12,255)"  stroke="rgb(12,12,255)" stroke-width="1" font-size="16" >N</text>
<text x="70.641016" y="168.000000" fill="rgb(12,12,255)"  stroke="rgb(12,12,255)" stroke-width="1" font-size="16" >NH</text>
<text x="94.641016" y="171.680000" fill="rgb(12,12,255)"  stroke="rgb(12,12,255)" stroke-width="1" font-size="13" >2</text>
<text x="137.923048" y="48.000000" fill="rgb(255,12,12)"  stroke="rgb(255,12,12)" stroke-width="1" font-size="16" >O</text>
<text font-size="18.000000" fill ="black" font-family="sans-serif"
x="10.000000" y="20.000000" ></text>
<title> - OBDepict</title>
</svg>
