<?xml version="1.0"?>
<svg xmlns="http://www.w3.org/2000/svg"
xmlns:xlink="http://www.w3.org/1999/xlink" xmlns:cml="http://www.xml-cml.org/schema" width="400" height="357.128" x="0" y="0" font-family="sans-serif" stroke="rgb(0,0,0)" stroke-width="1"  stroke-linecap="round">
<rect x="0%" y="0%" width="100%" height="100%" stroke-width="0" fill="rgb(255,255,255)"  />
<line x1="137.4" y1="73.1" x2="150.9" y2="49.8" stroke="rgb(0,0,0)"  stroke-width="1.0"/>
<line x1="142.6" y1="76.1" x2="156.1" y2="52.8" stroke="rgb(0,0,0)"  stroke-width="1.0"/>
<line x1="80.0" y1="112.3" x2="53.0" y2="112.3" stroke="rgb(0,0,0)"  stroke-width="1.0"/>
<line x1="80.0" y1="106.3" x2="53.0" y2="106.3" stroke="rgb(0,0,0)"  stroke-width="1.0"/>
<line x1="100.0" y1="282.5" x2="86.5" y2="305.9" stroke="rgb(0,0,0)"  stroke-width="1.0"/>
<line x1="140.0" y1="282.5" x2="153.5" y2="305.9" stroke="rgb(0,0,0)"  stroke-width="1.0"/>
<line x1="173.0" y1="178.6" x2="200.0" y2="178.6" stroke="rgb(0,0,0)"  stroke-width="1.0"/>
<line x1="215.3" y1="206.7" x2="216.7" y2="205.9" stroke="rgb(0,0,0)"  stroke-width="1.0"/>
<line x1="211.6" y1="201.5" x2="214.0" y2="200.0" stroke="rgb(0,0,0)"  stroke-width="1.0"/>
<line x1="207.8" y1="196.2" x2="211.4" y2="194.2" stroke="rgb(0,0,0)"  stroke-width="1.0"/>
<line x1="204.0" y1="191.0" x2="208.8" y2="188.3" stroke="rgb(0,0,0)"  stroke-width="1.0"/>
<line x1="200.3" y1="185.8" x2="206.1" y2="182.4" stroke="rgb(0,0,0)"  stroke-width="1.0"/>
<line x1="196.5" y1="180.6" x2="203.5" y2="176.6" stroke="rgb(0,0,0)"  stroke-width="1.0"/>
<line x1="220.0" y1="213.2" x2="260.0" y2="213.2" stroke="rgb(0,0,0)"  stroke-width="1.0"/>
<line x1="220.0" y1="213.2" x2="206.5" y2="236.6" stroke="rgb(0,0,0)"  stroke-width="1.0"/>
<line x1="260.0" y1="213.2" x2="280.0" y2="178.6" stroke="rgb(0,0,0)"  stroke-width="1.0"/>
<line x1="263.4" y1="217.4" x2="262.0" y2="218.2" stroke="rgb(0,0,0)"  stroke-width="1.0"/>
<line x1="266.1" y1="220.8" x2="263.6" y2="222.3" stroke="rgb(0,0,0)"  stroke-width="1.0"/>
<line x1="268.8" y1="224.2" x2="265.2" y2="226.3" stroke="rgb(0,0,0)"  stroke-width="1.0"/>
<line x1="271.5" y1="227.6" x2="266.8" y2="230.3" stroke="rgb(0,0,0)"  stroke-width="1.0"/>
<line x1="274.2" y1="231.0" x2="268.3" y2="234.4" stroke="rgb(0,0,0)"  stroke-width="1.0"/>
<line x1="276.9" y1="234.4" x2="269.9" y2="238.4" stroke="rgb(0,0,0)"  stroke-width="1.0"/>
<line x1="275.3" y1="172.0" x2="276.7" y2="171.2" stroke="rgb(0,0,0)"  stroke-width="1.0"/>
<line x1="271.6" y1="166.8" x2="274.0" y2="165.4" stroke="rgb(0,0,0)"  stroke-width="1.0"/>
<line x1="267.8" y1="161.6" x2="271.4" y2="159.5" stroke="rgb(0,0,0)"  stroke-width="1.0"/>
<line x1="264.0" y1="156.4" x2="268.8" y2="153.6" stroke="rgb(0,0,0)"  stroke-width="1.0"/>
<line x1="260.3" y1="151.1" x2="266.1" y2="147.8" stroke="rgb(0,0,0)"  stroke-width="1.0"/>
<line x1="256.5" y1="145.9" x2="263.5" y2="141.9" stroke="rgb(0,0,0)"  stroke-width="1.0"/>
<line x1="280.0" y1="178.6" x2="307.0" y2="178.6" stroke="rgb(0,0,0)"  stroke-width="1.0"/>
<line x1="260.0" y1="143.9" x2="273.5" y2="120.5" stroke="rgb(0,0,0)"  stroke-width="1.0"/>
<line x1="293.0" y1="109.3" x2="307.0" y2="109.3" stroke="rgb(0,0,0)"  stroke-width="1.0"/>
<line x1="333.0" y1="109.3" x2="347.0" y2="109.3" stroke="rgb(0,0,0)"  stroke-width="1.0"/>
<line x1="323.0" y1="122.3" x2="323.0" y2="136.3" stroke="rgb(0,0,0)"  stroke-width="1.0"/>
<line x1="317.0" y1="122.3" x2="317.0" y2="136.3" stroke="rgb(0,0,0)"  stroke-width="1.0"/>
<line x1="320.0" y1="96.3" x2="320.0" y2="82.3" stroke="rgb(0,0,0)"  stroke-width="1.0"/>
<line x1="153.5" y1="98.0" x2="140.0" y2="74.6" stroke="rgb(0,0,0)"  stroke-width="1.0"/>
<line x1="140.0" y1="74.6" x2="113.0" y2="74.6" stroke="rgb(0,0,0)"  stroke-width="1.0"/>
<line x1="93.5" y1="85.9" x2="80.0" y2="109.3" stroke="rgb(0,0,0)"  stroke-width="1.0"/>
<line x1="80.0" y1="109.3" x2="100.0" y2="143.9" stroke="rgb(0,0,0)"  stroke-width="1.0"/>
<line x1="100.0" y1="143.9" x2="140.0" y2="143.9" stroke="rgb(0,0,0)"  stroke-width="1.0"/>
<line x1="106.0" y1="136.7" x2="134.0" y2="136.7" stroke="rgb(0,0,0)"  stroke-width="1.0"/>
<line x1="140.0" y1="143.9" x2="153.5" y2="120.5" stroke="rgb(0,0,0)"  stroke-width="1.0"/>
<line x1="140.0" y1="282.5" x2="160.0" y2="247.8" stroke="rgb(0,0,0)"  stroke-width="1.0"/>
<line x1="160.0" y1="247.8" x2="140.0" y2="213.2" stroke="rgb(0,0,0)"  stroke-width="1.0"/>
<line x1="150.8" y1="246.2" x2="136.8" y2="222.0" stroke="rgb(0,0,0)"  stroke-width="1.0"/>
<line x1="140.0" y1="213.2" x2="100.0" y2="213.2" stroke="rgb(0,0,0)"  stroke-width="1.0"/>
<line x1="100.0" y1="213.2" x2="80.0" y2="247.8" stroke="rgb(0,0,0)"  stroke-width="1.0"/>
<line x1="103.2" y1="222.0" x2="89.2" y2="246.2" stroke="rgb(0,0,0)"  stroke-width="1.0"/>
<line x1="80.0" y1="247.8" x2="100.0" y2="282.5" stroke="rgb(0,0,0)"  stroke-width="1.0"/>
<line x1="100.0" y1="282.5" x2="140.0" y2="282.5" stroke="rgb(0,0,0)"  stroke-width="1.0"/>
<line x1="106.0" y1="275.3" x2="134.0" y2="275.3" stroke="rgb(0,0,0)"  stroke-width="1.0"/>
<line x1="140.0" y1="213.2" x2="153.5" y2="189.8" stroke="rgb(0,0,0)"  stroke-width="1.0"/>
<line x1="153.5" y1="167.3" x2="140.0" y2="143.9" stroke="rgb(0,0,0)"  stroke-width="1.0"/>
<line x1="100.0" y1="143.9" x2="86.5" y2="167.3" stroke="rgb(0,0,0)"  stroke-width="1.0"/>
<line x1="86.5" y1="189.8" x2="100.0" y2="213.2" stroke="rgb(0,0,0)"  stroke-width="1.0"/>
<text x="154.000000" y="117.282032" fill="rgb(12,12,255)"  stroke="rgb(12,12,255)" stroke-width="1" font-size="16" >NH</text>
<text x="154.000000" y="48.000000" fill="rgb(255,12,12)"  stroke="rgb(255,12,12)" stroke-width="1" font-size="16" >O</text>
<text x="94.000000" y="82.641016" fill="rgb(12,12,255)"  stroke="rgb(12,12,255)" stroke-width="1" font-size="16" >N</text>
<text x="94.000000" y="66.641016" fill="rgb(12,12,255)"  stroke="rgb(12,12,255)" stroke-width="1" font-size="16" >H</text>
<text x="34.000000" y="117.282032" fill="rgb(255,12,12)"  stroke="rgb(255,12,12)" stroke-width="1" font-size="16" >O</text>
<text x="62.000000" y="186.564065" fill="rgb(12,12,255)"  stroke="rgb(12,12,255)" stroke-width="1" font-size="16" >HN</text>
<text x="54.000000" y="325.128129" fill="rgb(102,102,102)"  stroke="rgb(102,102,102)" stroke-width="1" font-size="16" >H</text>
<text x="66.000000" y="328.808129" fill="rgb(102,102,102)"  stroke="rgb(102,102,102)" stroke-width="1" font-size="13" >3</text>
<text x="72.500000" y="325.128129" fill="rgb(102,102,102)"  stroke="rgb(102,102,102)" stroke-width="1" font-size="16" >C</text>
<text x="156.000000" y="325.128129" fill="rgb(102,102,102)"  stroke="rgb(102,102,102)" stroke-width="1" font-size="16" >CH</text>
<text x="180.000000" y="328.808129" fill="rgb(102,102,102)"  stroke="rgb(102,102,102)" stroke-width="1" font-size="13" >3</text>
<text x="154.000000" y="186.564065" fill="rgb(12,12,255)"  stroke="rgb(12,12,255)" stroke-width="1" font-size="16" >N</text>
<text x="182.000000" y="255.846097" fill="rgb(255,12,12)"  stroke="rgb(255,12,12)" stroke-width="1" font-size="16" >HO</text>
<text x="274.000000" y="255.846097" fill="rgb(255,12,12)"  stroke="rgb(255,12,12)" stroke-width="1" font-size="16" >OH</text>
<text x="314.000000" y="186.564065" fill="rgb(255,12,12)"  stroke="rgb(255,12,12)" stroke-width="1" font-size="16" >OH</text>
<text x="274.000000" y="117.282032" fill="rgb(255,12,12)"  stroke="rgb(255,12,12)" stroke-width="1" font-size="16" >O</text>
<text x="314.000000" y="117.282032" fill="rgb(255,127,0)"  stroke="rgb(255,127,0)" stroke-width="1" font-size="16" >P</text>
<text x="314.000000" y="157.282032" fill="rgb(255,12,12)"  stroke="rgb(255,12,12)" stroke-width="1" font-size="16" >O</text>
<text x="364.800000" y="105.250032" fill="rgb(255,12,12)"  stroke="rgb(255,12,12)" stroke-width="1" font-size="32" >-</text>
<text x="354.000000" y="117.282032" fill="rgb(255,12,12)"  stroke="rgb(255,12,12)" stroke-width="1" font-size="16" >O</text>
<text x="324.800000" y="65.250032" fill="rgb(255,12,12)"  stroke="rgb(255,12,12)" stroke-width="1" font-size="32" >-</text>
<text x="314.000000" y="77.282032" fill="rgb(255,12,12)"  stroke="rgb(255,12,12)" stroke-width="1" font-size="16" >O</text>
<text font-size="18.000000" fill ="black" font-family="sans-serif"
x="10.000000" y="20.000000" ></text>
<title> - OBDepict</title>
</svg>
