<?xml version="1.0"?>
<svg xmlns="http://www.w3.org/2000/svg"
xmlns:xlink="http://www.w3.org/1999/xlink" xmlns:cml="http://www.xml-cml.org/schema" width="398.315" height="330.809" x="0" y="0" font-family="sans-serif" stroke="rgb(0,0,0)" stroke-width="1"  stroke-linecap="round">
<rect x="0%" y="0%" width="100%" height="100%" stroke-width="0" fill="rgb(255,255,255)"  />
<line x1="302.4" y1="80.8" x2="302.4" y2="79.2" stroke="rgb(0,0,0)"  stroke-width="1.0"/>
<line x1="300.2" y1="81.4" x2="300.2" y2="78.6" stroke="rgb(0,0,0)"  stroke-width="1.0"/>
<line x1="298.0" y1="82.1" x2="298.0" y2="77.9" stroke="rgb(0,0,0)"  stroke-width="1.0"/>
<line x1="295.9" y1="82.7" x2="295.9" y2="77.3" stroke="rgb(0,0,0)"  stroke-width="1.0"/>
<line x1="293.7" y1="83.4" x2="293.7" y2="76.6" stroke="rgb(0,0,0)"  stroke-width="1.0"/>
<line x1="291.5" y1="84.0" x2="291.5" y2="76.0" stroke="rgb(0,0,0)"  stroke-width="1.0"/>
<line x1="318.3" y1="93.0" x2="318.3" y2="107.0" stroke="rgb(0,0,0)"  stroke-width="1.0"/>
<line x1="331.3" y1="80.0" x2="345.3" y2="80.0" stroke="rgb(0,0,0)"  stroke-width="1.0"/>
<line x1="315.3" y1="67.0" x2="315.3" y2="53.0" stroke="rgb(0,0,0)"  stroke-width="1.0"/>
<line x1="321.3" y1="67.0" x2="321.3" y2="53.0" stroke="rgb(0,0,0)"  stroke-width="1.0"/>
<polygon points="218.315339 114.641016 258.315339 110.641016 258.315339 118.641016 " stroke-width="1.000000" fill="rgb(0,0,0)"  stroke="rgb(0,0,0)" />
<line x1="258.3" y1="114.6" x2="271.8" y2="91.3" stroke="rgb(0,0,0)"  stroke-width="1.0"/>
<polygon points="156.761669 134.641016 183.486051 139.118446 181.013915 146.726898 " stroke-width="1.000000" fill="rgb(0,0,0)"  stroke="rgb(0,0,0)" />
<line x1="195.7" y1="76.9" x2="197.2" y2="77.4" stroke="rgb(0,0,0)"  stroke-width="1.0"/>
<line x1="196.4" y1="72.7" x2="199.2" y2="73.5" stroke="rgb(0,0,0)"  stroke-width="1.0"/>
<line x1="197.1" y1="68.4" x2="201.1" y2="69.7" stroke="rgb(0,0,0)"  stroke-width="1.0"/>
<line x1="197.8" y1="64.1" x2="203.0" y2="65.8" stroke="rgb(0,0,0)"  stroke-width="1.0"/>
<line x1="198.6" y1="59.8" x2="205.0" y2="61.9" stroke="rgb(0,0,0)"  stroke-width="1.0"/>
<line x1="199.3" y1="55.6" x2="206.9" y2="58.0" stroke="rgb(0,0,0)"  stroke-width="1.0"/>
<line x1="156.8" y1="134.6" x2="134.9" y2="150.5" stroke="rgb(0,0,0)"  stroke-width="1.0"/>
<polygon points="145.810314 264.043555 168.403118 279.003675 163.050073 284.948834 " stroke-width="1.000000" fill="rgb(0,0,0)"  stroke="rgb(0,0,0)" />
<line x1="128.9" y1="201.1" x2="127.8" y2="202.3" stroke="rgb(0,0,0)"  stroke-width="1.0"/>
<line x1="132.5" y1="203.5" x2="130.6" y2="205.7" stroke="rgb(0,0,0)"  stroke-width="1.0"/>
<line x1="136.1" y1="205.9" x2="133.4" y2="209.0" stroke="rgb(0,0,0)"  stroke-width="1.0"/>
<line x1="139.8" y1="208.3" x2="136.1" y2="212.4" stroke="rgb(0,0,0)"  stroke-width="1.0"/>
<line x1="143.4" y1="210.7" x2="138.9" y2="215.7" stroke="rgb(0,0,0)"  stroke-width="1.0"/>
<line x1="147.0" y1="213.1" x2="141.6" y2="219.1" stroke="rgb(0,0,0)"  stroke-width="1.0"/>
<polygon points="86.358728 210.513106 81.954851 250.470657 74.129670 248.807363 " stroke-width="1.000000" fill="rgb(0,0,0)"  stroke="rgb(0,0,0)" />
<line x1="79.0" y1="252.5" x2="53.3" y2="260.8" stroke="rgb(0,0,0)"  stroke-width="1.0"/>
<line x1="77.1" y1="246.8" x2="51.4" y2="255.1" stroke="rgb(0,0,0)"  stroke-width="1.0"/>
<polygon points="111.847043 154.073402 85.122660 149.595973 87.594796 141.987520 " stroke-width="1.000000" fill="rgb(0,0,0)"  stroke="rgb(0,0,0)" />
<line x1="218.3" y1="114.6" x2="194.8" y2="82.3" stroke="rgb(0,0,0)"  stroke-width="1.0"/>
<line x1="194.8" y1="82.3" x2="156.8" y2="94.6" stroke="rgb(0,0,0)"  stroke-width="1.0"/>
<line x1="156.8" y1="94.6" x2="156.8" y2="134.6" stroke="rgb(0,0,0)"  stroke-width="1.0"/>
<line x1="156.8" y1="134.6" x2="182.4" y2="143.0" stroke="rgb(0,0,0)"  stroke-width="1.0"/>
<line x1="202.4" y1="136.5" x2="218.3" y2="114.6" stroke="rgb(0,0,0)"  stroke-width="1.0"/>
<line x1="86.4" y1="145.8" x2="112.0" y2="154.1" stroke="rgb(0,0,0)"  stroke-width="1.0"/>
<line x1="124.4" y1="171.2" x2="124.4" y2="198.2" stroke="rgb(0,0,0)"  stroke-width="1.0"/>
<line x1="124.4" y1="198.2" x2="86.4" y2="210.5" stroke="rgb(0,0,0)"  stroke-width="1.0"/>
<line x1="86.4" y1="210.5" x2="70.5" y2="188.7" stroke="rgb(0,0,0)"  stroke-width="1.0"/>
<line x1="70.5" y1="167.6" x2="86.4" y2="145.8" stroke="rgb(0,0,0)"  stroke-width="1.0"/>
<line x1="145.8" y1="264.0" x2="120.1" y2="272.4" stroke="rgb(0,0,0)"  stroke-width="1.0"/>
<line x1="98.1" y1="267.7" x2="78.0" y2="249.6" stroke="rgb(0,0,0)"  stroke-width="1.0"/>
<line x1="78.0" y1="249.6" x2="86.4" y2="210.5" stroke="rgb(0,0,0)"  stroke-width="1.0"/>
<line x1="124.4" y1="198.2" x2="144.5" y2="216.2" stroke="rgb(0,0,0)"  stroke-width="1.0"/>
<line x1="151.4" y1="237.6" x2="145.8" y2="264.0" stroke="rgb(0,0,0)"  stroke-width="1.0"/>
<text x="312.315339" y="88.000000" fill="rgb(255,127,0)"  stroke="rgb(255,127,0)" stroke-width="1" font-size="16" >P</text>
<text x="272.315339" y="88.000000" fill="rgb(255,12,12)"  stroke="rgb(255,12,12)" stroke-width="1" font-size="16" >O</text>
<text x="188.803929" y="155.001696" fill="rgb(255,12,12)"  stroke="rgb(255,12,12)" stroke-width="1" font-size="16" >O</text>
<text x="201.164609" y="52.238076" fill="rgb(255,12,12)"  stroke="rgb(255,12,12)" stroke-width="1" font-size="16" >OH</text>
<text x="101.768054" y="284.404234" fill="rgb(12,12,255)"  stroke="rgb(12,12,255)" stroke-width="1" font-size="16" >N</text>
<text x="101.768054" y="300.404234" fill="rgb(12,12,255)"  stroke="rgb(12,12,255)" stroke-width="1" font-size="16" >H</text>
<text x="171.536107" y="298.808779" fill="rgb(12,12,255)"  stroke="rgb(12,12,255)" stroke-width="1" font-size="16" >NH</text>
<text x="195.536107" y="302.488779" fill="rgb(12,12,255)"  stroke="rgb(12,12,255)" stroke-width="1" font-size="13" >2</text>
<text x="148.126782" y="232.917650" fill="rgb(12,12,255)"  stroke="rgb(12,12,255)" stroke-width="1" font-size="16" >NH</text>
<text x="34.000000" y="269.999690" fill="rgb(255,12,12)"  stroke="rgb(255,12,12)" stroke-width="1" font-size="16" >O</text>
<text x="44.847318" y="186.152426" fill="rgb(12,12,255)"  stroke="rgb(12,12,255)" stroke-width="1" font-size="16" >HN</text>
<text x="118.400989" y="166.152426" fill="rgb(12,12,255)"  stroke="rgb(12,12,255)" stroke-width="1" font-size="16" >N</text>
<text x="312.315339" y="128.000000" fill="rgb(255,12,12)"  stroke="rgb(255,12,12)" stroke-width="1" font-size="16" >OH</text>
<text x="363.115339" y="75.968000" fill="rgb(255,12,12)"  stroke="rgb(255,12,12)" stroke-width="1" font-size="32" >-</text>
<text x="352.315339" y="88.000000" fill="rgb(255,12,12)"  stroke="rgb(255,12,12)" stroke-width="1" font-size="16" >O</text>
<text x="312.315339" y="48.000000" fill="rgb(255,12,12)"  stroke="rgb(255,12,12)" stroke-width="1" font-size="16" >O</text>
<text font-size="18.000000" fill ="black" font-family="sans-serif"
x="10.000000" y="20.000000" ></text>
<title> - OBDepict</title>
</svg>
