<?xml version="1.0"?>
<svg xmlns="http://www.w3.org/2000/svg"
xmlns:xlink="http://www.w3.org/1999/xlink" xmlns:cml="http://www.xml-cml.org/schema" width="494.765" height="409.736" x="0" y="0" font-family="sans-serif" stroke="rgb(0,0,0)" stroke-width="1"  stroke-linecap="round">
<rect x="0%" y="0%" width="100%" height="100%" stroke-width="0" fill="rgb(255,255,255)"  />
<line x1="309.3" y1="325.4" x2="288.8" y2="332.1" stroke="rgb(0,0,0)"  stroke-width="1.0"/>
<polygon points="237.306861 285.752874 291.431871 329.104721 286.078826 335.049880 " stroke-width="1.000000" fill="rgb(0,0,0)"  stroke="rgb(0,0,0)" />
<line x1="273.0" y1="260.8" x2="273.4" y2="262.3" stroke="rgb(0,0,0)"  stroke-width="1.0"/>
<line x1="280.0" y1="258.3" x2="280.7" y2="261.0" stroke="rgb(0,0,0)"  stroke-width="1.0"/>
<line x1="287.0" y1="255.7" x2="288.0" y2="259.7" stroke="rgb(0,0,0)"  stroke-width="1.0"/>
<line x1="294.0" y1="253.2" x2="295.4" y2="258.4" stroke="rgb(0,0,0)"  stroke-width="1.0"/>
<line x1="301.0" y1="250.6" x2="302.7" y2="257.1" stroke="rgb(0,0,0)"  stroke-width="1.0"/>
<line x1="308.0" y1="248.1" x2="310.0" y2="255.8" stroke="rgb(0,0,0)"  stroke-width="1.0"/>
<line x1="255.6" y1="228.8" x2="256.3" y2="230.3" stroke="rgb(0,0,0)"  stroke-width="1.0"/>
<line x1="258.6" y1="226.6" x2="259.9" y2="229.1" stroke="rgb(0,0,0)"  stroke-width="1.0"/>
<line x1="261.6" y1="224.3" x2="263.5" y2="228.0" stroke="rgb(0,0,0)"  stroke-width="1.0"/>
<line x1="264.6" y1="222.1" x2="267.1" y2="226.9" stroke="rgb(0,0,0)"  stroke-width="1.0"/>
<line x1="267.6" y1="219.8" x2="270.7" y2="225.8" stroke="rgb(0,0,0)"  stroke-width="1.0"/>
<line x1="270.7" y1="217.6" x2="274.3" y2="224.7" stroke="rgb(0,0,0)"  stroke-width="1.0"/>
<polygon points="217.235077 233.464090 194.149721 228.887032 197.016664 221.418389 " stroke-width="1.000000" fill="rgb(0,0,0)"  stroke="rgb(0,0,0)" />
<polygon points="407.479705 240.549436 403.479705 205.934051 411.479705 205.934051 " stroke-width="1.000000" fill="rgb(0,0,0)"  stroke="rgb(0,0,0)" />
<polygon points="355.556628 270.527238 336.328763 256.956227 341.985617 251.299373 " stroke-width="1.000000" fill="rgb(0,0,0)"  stroke="rgb(0,0,0)" />
<polygon points="372.864320 300.505041 376.864320 346.889656 368.864320 346.889656 " stroke-width="1.000000" fill="rgb(0,0,0)"  stroke="rgb(0,0,0)" />
<line x1="411.9" y1="302.1" x2="411.1" y2="303.5" stroke="rgb(0,0,0)"  stroke-width="1.0"/>
<line x1="415.4" y1="303.4" x2="414.0" y2="305.9" stroke="rgb(0,0,0)"  stroke-width="1.0"/>
<line x1="419.0" y1="304.7" x2="416.9" y2="308.3" stroke="rgb(0,0,0)"  stroke-width="1.0"/>
<line x1="422.5" y1="306.0" x2="419.8" y2="310.7" stroke="rgb(0,0,0)"  stroke-width="1.0"/>
<line x1="426.0" y1="307.3" x2="422.7" y2="313.2" stroke="rgb(0,0,0)"  stroke-width="1.0"/>
<line x1="429.6" y1="308.6" x2="425.6" y2="315.6" stroke="rgb(0,0,0)"  stroke-width="1.0"/>
<polygon points="424.787397 270.527238 442.872525 255.466983 446.872525 262.395186 " stroke-width="1.000000" fill="rgb(0,0,0)"  stroke="rgb(0,0,0)" />
<line x1="407.5" y1="205.9" x2="426.2" y2="195.1" stroke="rgb(0,0,0)"  stroke-width="1.0"/>
<polygon points="242.015045 118.910502 266.907796 143.294427 260.690629 148.328990 " stroke-width="1.000000" fill="rgb(0,0,0)"  stroke="rgb(0,0,0)" />
<line x1="182.6" y1="137.6" x2="181.0" y2="137.4" stroke="rgb(0,0,0)"  stroke-width="1.0"/>
<line x1="182.5" y1="145.0" x2="179.6" y2="144.7" stroke="rgb(0,0,0)"  stroke-width="1.0"/>
<line x1="182.3" y1="152.5" x2="178.2" y2="152.1" stroke="rgb(0,0,0)"  stroke-width="1.0"/>
<line x1="182.2" y1="159.9" x2="176.8" y2="159.4" stroke="rgb(0,0,0)"  stroke-width="1.0"/>
<line x1="182.1" y1="167.4" x2="175.4" y2="166.7" stroke="rgb(0,0,0)"  stroke-width="1.0"/>
<line x1="181.9" y1="174.8" x2="174.0" y2="174.0" stroke="rgb(0,0,0)"  stroke-width="1.0"/>
<polygon points="143.938280 211.220486 163.498561 198.133143 166.752454 205.441506 " stroke-width="1.000000" fill="rgb(0,0,0)"  stroke="rgb(0,0,0)" />
<line x1="170.9" y1="87.4" x2="172.2" y2="86.4" stroke="rgb(0,0,0)"  stroke-width="1.0"/>
<line x1="165.8" y1="82.0" x2="168.0" y2="80.2" stroke="rgb(0,0,0)"  stroke-width="1.0"/>
<line x1="160.6" y1="76.7" x2="163.8" y2="74.0" stroke="rgb(0,0,0)"  stroke-width="1.0"/>
<line x1="155.4" y1="71.3" x2="159.6" y2="67.9" stroke="rgb(0,0,0)"  stroke-width="1.0"/>
<line x1="150.3" y1="65.9" x2="155.5" y2="61.7" stroke="rgb(0,0,0)"  stroke-width="1.0"/>
<line x1="145.1" y1="60.6" x2="151.3" y2="55.5" stroke="rgb(0,0,0)"  stroke-width="1.0"/>
<polygon points="204.283760 72.316246 208.860818 49.230889 216.329462 52.097833 " stroke-width="1.000000" fill="rgb(0,0,0)"  stroke="rgb(0,0,0)" />
<line x1="241.1" y1="83.2" x2="241.3" y2="84.8" stroke="rgb(0,0,0)"  stroke-width="1.0"/>
<line x1="244.6" y1="82.0" x2="245.1" y2="84.8" stroke="rgb(0,0,0)"  stroke-width="1.0"/>
<line x1="248.2" y1="80.8" x2="248.8" y2="84.9" stroke="rgb(0,0,0)"  stroke-width="1.0"/>
<line x1="251.8" y1="79.6" x2="252.6" y2="84.9" stroke="rgb(0,0,0)"  stroke-width="1.0"/>
<line x1="255.3" y1="78.4" x2="256.4" y2="85.0" stroke="rgb(0,0,0)"  stroke-width="1.0"/>
<line x1="258.9" y1="77.1" x2="260.1" y2="85.0" stroke="rgb(0,0,0)"  stroke-width="1.0"/>
<line x1="263.8" y1="145.8" x2="285.1" y2="142.4" stroke="rgb(0,0,0)"  stroke-width="1.0"/>
<line x1="95.1" y1="271.7" x2="94.4" y2="270.3" stroke="rgb(0,0,0)"  stroke-width="1.0"/>
<line x1="88.6" y1="275.3" x2="87.4" y2="272.7" stroke="rgb(0,0,0)"  stroke-width="1.0"/>
<line x1="82.1" y1="278.9" x2="80.4" y2="275.1" stroke="rgb(0,0,0)"  stroke-width="1.0"/>
<line x1="75.5" y1="282.5" x2="73.3" y2="277.6" stroke="rgb(0,0,0)"  stroke-width="1.0"/>
<line x1="69.0" y1="286.1" x2="66.3" y2="280.0" stroke="rgb(0,0,0)"  stroke-width="1.0"/>
<line x1="62.5" y1="289.7" x2="59.2" y2="282.4" stroke="rgb(0,0,0)"  stroke-width="1.0"/>
<line x1="109.7" y1="198.3" x2="111.3" y2="198.5" stroke="rgb(0,0,0)"  stroke-width="1.0"/>
<line x1="109.8" y1="190.8" x2="112.7" y2="191.1" stroke="rgb(0,0,0)"  stroke-width="1.0"/>
<line x1="110.0" y1="183.4" x2="114.1" y2="183.8" stroke="rgb(0,0,0)"  stroke-width="1.0"/>
<line x1="110.1" y1="175.9" x2="115.5" y2="176.5" stroke="rgb(0,0,0)"  stroke-width="1.0"/>
<line x1="110.2" y1="168.5" x2="116.9" y2="169.2" stroke="rgb(0,0,0)"  stroke-width="1.0"/>
<line x1="110.4" y1="161.1" x2="118.3" y2="161.9" stroke="rgb(0,0,0)"  stroke-width="1.0"/>
<line x1="161.1" y1="239.3" x2="162.1" y2="240.5" stroke="rgb(0,0,0)"  stroke-width="1.0"/>
<line x1="163.6" y1="236.5" x2="165.4" y2="238.7" stroke="rgb(0,0,0)"  stroke-width="1.0"/>
<line x1="166.1" y1="233.6" x2="168.7" y2="236.9" stroke="rgb(0,0,0)"  stroke-width="1.0"/>
<line x1="168.6" y1="230.8" x2="172.0" y2="235.0" stroke="rgb(0,0,0)"  stroke-width="1.0"/>
<line x1="171.0" y1="228.0" x2="175.3" y2="233.2" stroke="rgb(0,0,0)"  stroke-width="1.0"/>
<line x1="173.5" y1="225.1" x2="178.6" y2="231.4" stroke="rgb(0,0,0)"  stroke-width="1.0"/>
<polygon points="137.671213 270.847648 139.225044 294.331019 131.268869 293.494792 " stroke-width="1.000000" fill="rgb(0,0,0)"  stroke="rgb(0,0,0)" />
<line x1="237.3" y1="285.8" x2="264.2" y2="264.0" stroke="rgb(0,0,0)"  stroke-width="1.0"/>
<line x1="264.2" y1="264.0" x2="251.8" y2="231.7" stroke="rgb(0,0,0)"  stroke-width="1.0"/>
<line x1="251.8" y1="231.7" x2="217.2" y2="233.5" stroke="rgb(0,0,0)"  stroke-width="1.0"/>
<line x1="217.2" y1="233.5" x2="211.6" y2="254.3" stroke="rgb(0,0,0)"  stroke-width="1.0"/>
<line x1="219.2" y1="274.0" x2="237.3" y2="285.8" stroke="rgb(0,0,0)"  stroke-width="1.0"/>
<line x1="407.5" y1="240.5" x2="385.9" y2="240.5" stroke="rgb(0,0,0)"  stroke-width="1.0"/>
<line x1="366.4" y1="251.8" x2="355.6" y2="270.5" stroke="rgb(0,0,0)"  stroke-width="1.0"/>
<line x1="355.6" y1="270.5" x2="372.9" y2="300.5" stroke="rgb(0,0,0)"  stroke-width="1.0"/>
<line x1="372.9" y1="300.5" x2="407.5" y2="300.5" stroke="rgb(0,0,0)"  stroke-width="1.0"/>
<line x1="407.5" y1="300.5" x2="424.8" y2="270.5" stroke="rgb(0,0,0)"  stroke-width="1.0"/>
<line x1="424.8" y1="270.5" x2="407.5" y2="240.5" stroke="rgb(0,0,0)"  stroke-width="1.0"/>
<line x1="242.0" y1="118.9" x2="225.2" y2="132.5" stroke="rgb(0,0,0)"  stroke-width="1.0"/>
<line x1="203.0" y1="136.0" x2="182.8" y2="128.3" stroke="rgb(0,0,0)"  stroke-width="1.0"/>
<line x1="182.8" y1="128.3" x2="177.4" y2="94.1" stroke="rgb(0,0,0)"  stroke-width="1.0"/>
<line x1="177.4" y1="94.1" x2="204.3" y2="72.3" stroke="rgb(0,0,0)"  stroke-width="1.0"/>
<line x1="204.3" y1="72.3" x2="236.6" y2="84.7" stroke="rgb(0,0,0)"  stroke-width="1.0"/>
<line x1="236.6" y1="84.7" x2="242.0" y2="118.9" stroke="rgb(0,0,0)"  stroke-width="1.0"/>
<line x1="109.5" y1="207.6" x2="143.9" y2="211.2" stroke="rgb(0,0,0)"  stroke-width="1.0"/>
<line x1="143.9" y1="211.2" x2="158.0" y2="242.8" stroke="rgb(0,0,0)"  stroke-width="1.0"/>
<line x1="158.0" y1="242.8" x2="137.7" y2="270.8" stroke="rgb(0,0,0)"  stroke-width="1.0"/>
<line x1="137.7" y1="270.8" x2="103.2" y2="267.2" stroke="rgb(0,0,0)"  stroke-width="1.0"/>
<line x1="103.2" y1="267.2" x2="89.2" y2="235.6" stroke="rgb(0,0,0)"  stroke-width="1.0"/>
<line x1="89.2" y1="235.6" x2="109.5" y2="207.6" stroke="rgb(0,0,0)"  stroke-width="1.0"/>
<text x="315.676536" y="329.380558" fill="rgb(255,12,12)"  stroke="rgb(255,12,12)" stroke-width="1" font-size="16" >OH</text>
<text x="202.275956" y="274.899984" fill="rgb(255,12,12)"  stroke="rgb(255,12,12)" stroke-width="1" font-size="16" >O</text>
<text x="276.645556" y="223.937405" fill="rgb(255,12,12)"  stroke="rgb(255,12,12)" stroke-width="1" font-size="16" >OH</text>
<text x="366.864320" y="248.549436" fill="rgb(255,12,12)"  stroke="rgb(255,12,12)" stroke-width="1" font-size="16" >O</text>
<text x="325.079855" y="254.050465" fill="rgb(255,12,12)"  stroke="rgb(255,12,12)" stroke-width="1" font-size="16" >O</text>
<text x="377.664320" y="365.703810" fill="rgb(12,12,255)"  stroke="rgb(12,12,255)" stroke-width="1" font-size="16" >+</text>
<text x="368.864320" y="377.735810" fill="rgb(12,12,255)"  stroke="rgb(12,12,255)" stroke-width="1" font-size="16" >NH</text>
<text x="392.864320" y="381.415810" fill="rgb(12,12,255)"  stroke="rgb(12,12,255)" stroke-width="1" font-size="13" >3</text>
<text x="431.457508" y="325.812733" fill="rgb(255,12,12)"  stroke="rgb(255,12,12)" stroke-width="1" font-size="16" >OH</text>
<text x="448.765200" y="261.219546" fill="rgb(255,12,12)"  stroke="rgb(255,12,12)" stroke-width="1" font-size="16" >OH</text>
<text x="442.257508" y="184.594359" fill="rgb(12,12,255)"  stroke="rgb(12,12,255)" stroke-width="1" font-size="16" >+</text>
<text x="433.457508" y="196.626359" fill="rgb(12,12,255)"  stroke="rgb(12,12,255)" stroke-width="1" font-size="16" >NH</text>
<text x="457.457508" y="200.306359" fill="rgb(12,12,255)"  stroke="rgb(12,12,255)" stroke-width="1" font-size="13" >3</text>
<text x="209.113839" y="148.694669" fill="rgb(255,12,12)"  stroke="rgb(255,12,12)" stroke-width="1" font-size="16" >O</text>
<text x="169.561007" y="205.141141" fill="rgb(255,12,12)"  stroke="rgb(255,12,12)" stroke-width="1" font-size="16" >O</text>
<text x="138.614219" y="36.266000" fill="rgb(12,12,255)"  stroke="rgb(12,12,255)" stroke-width="1" font-size="16" >+</text>
<text x="107.814219" y="48.298000" fill="rgb(12,12,255)"  stroke="rgb(12,12,255)" stroke-width="1" font-size="16" >H</text>
<text x="119.814219" y="51.978000" fill="rgb(12,12,255)"  stroke="rgb(12,12,255)" stroke-width="1" font-size="13" >3</text>
<text x="126.314219" y="48.298000" fill="rgb(12,12,255)"  stroke="rgb(12,12,255)" stroke-width="1" font-size="16" >N</text>
<text x="210.688805" y="48.000000" fill="rgb(255,12,12)"  stroke="rgb(255,12,12)" stroke-width="1" font-size="16" >OH</text>
<text x="264.789218" y="87.306251" fill="rgb(255,12,12)"  stroke="rgb(255,12,12)" stroke-width="1" font-size="16" >OH</text>
<text x="302.788424" y="136.364669" fill="rgb(12,12,255)"  stroke="rgb(12,12,255)" stroke-width="1" font-size="16" >+</text>
<text x="293.988424" y="148.396669" fill="rgb(12,12,255)"  stroke="rgb(12,12,255)" stroke-width="1" font-size="16" >NH</text>
<text x="317.988424" y="152.076669" fill="rgb(12,12,255)"  stroke="rgb(12,12,255)" stroke-width="1" font-size="13" >3</text>
<text x="43.900000" y="292.112045" fill="rgb(12,12,255)"  stroke="rgb(12,12,255)" stroke-width="1" font-size="13" >+</text>
<text x="14.000000" y="303.388045" fill="rgb(12,12,255)"  stroke="rgb(12,12,255)" stroke-width="1" font-size="16" >H</text>
<text x="26.000000" y="307.068045" fill="rgb(12,12,255)"  stroke="rgb(12,12,255)" stroke-width="1" font-size="13" >3</text>
<text x="32.500000" y="303.388045" fill="rgb(12,12,255)"  stroke="rgb(12,12,255)" stroke-width="1" font-size="16" >N</text>
<text x="121.549108" y="134.718677" fill="rgb(12,12,255)"  stroke="rgb(12,12,255)" stroke-width="1" font-size="16" >+</text>
<text x="112.749108" y="146.750677" fill="rgb(12,12,255)"  stroke="rgb(12,12,255)" stroke-width="1" font-size="16" >NH</text>
<text x="136.749108" y="150.430677" fill="rgb(12,12,255)"  stroke="rgb(12,12,255)" stroke-width="1" font-size="13" >3</text>
<text x="178.918832" y="229.059046" fill="rgb(255,12,12)"  stroke="rgb(255,12,12)" stroke-width="1" font-size="16" >O</text>
<text x="116.052920" y="313.273406" fill="rgb(255,12,12)"  stroke="rgb(255,12,12)" stroke-width="1" font-size="16" >HO</text>
<text font-size="18.000000" fill ="black" font-family="sans-serif"
x="10.000000" y="20.000000" ></text>
<title> - OBDepict</title>
</svg>
