<?xml version="1.0"?>
<svg xmlns="http://www.w3.org/2000/svg"
xmlns:xlink="http://www.w3.org/1999/xlink" xmlns:cml="http://www.xml-cml.org/schema" width="552.16" height="411.261" x="0" y="0" font-family="sans-serif" stroke="rgb(0,0,0)" stroke-width="1"  stroke-linecap="round">
<rect x="0%" y="0%" width="100%" height="100%" stroke-width="0" fill="rgb(255,255,255)"  />
<line x1="148.2" y1="267.9" x2="149.0" y2="269.3" stroke="rgb(0,0,0)"  stroke-width="1.0"/>
<line x1="151.6" y1="265.2" x2="153.0" y2="267.7" stroke="rgb(0,0,0)"  stroke-width="1.0"/>
<line x1="155.0" y1="262.5" x2="157.0" y2="266.1" stroke="rgb(0,0,0)"  stroke-width="1.0"/>
<line x1="158.3" y1="259.8" x2="161.1" y2="264.5" stroke="rgb(0,0,0)"  stroke-width="1.0"/>
<line x1="161.7" y1="257.1" x2="165.1" y2="262.9" stroke="rgb(0,0,0)"  stroke-width="1.0"/>
<line x1="165.1" y1="254.4" x2="169.1" y2="261.3" stroke="rgb(0,0,0)"  stroke-width="1.0"/>
<line x1="179.4" y1="216.6" x2="177.8" y2="216.6" stroke="rgb(0,0,0)"  stroke-width="1.0"/>
<line x1="180.0" y1="220.9" x2="177.1" y2="220.9" stroke="rgb(0,0,0)"  stroke-width="1.0"/>
<line x1="180.6" y1="225.2" x2="176.5" y2="225.2" stroke="rgb(0,0,0)"  stroke-width="1.0"/>
<line x1="181.3" y1="229.5" x2="175.8" y2="229.5" stroke="rgb(0,0,0)"  stroke-width="1.0"/>
<line x1="181.9" y1="233.8" x2="175.2" y2="233.8" stroke="rgb(0,0,0)"  stroke-width="1.0"/>
<line x1="182.6" y1="238.1" x2="174.6" y2="238.1" stroke="rgb(0,0,0)"  stroke-width="1.0"/>
<polygon points="178.564065 131.261323 174.564065 104.461323 182.564065 104.461323 " stroke-width="1.000000" fill="rgb(0,0,0)"  stroke="rgb(0,0,0)" />
<line x1="149.0" y1="313.2" x2="148.2" y2="314.6" stroke="rgb(0,0,0)"  stroke-width="1.0"/>
<line x1="153.0" y1="314.8" x2="151.6" y2="317.3" stroke="rgb(0,0,0)"  stroke-width="1.0"/>
<line x1="157.0" y1="316.4" x2="155.0" y2="320.0" stroke="rgb(0,0,0)"  stroke-width="1.0"/>
<line x1="161.1" y1="318.0" x2="158.3" y2="322.7" stroke="rgb(0,0,0)"  stroke-width="1.0"/>
<line x1="165.1" y1="319.6" x2="161.7" y2="325.4" stroke="rgb(0,0,0)"  stroke-width="1.0"/>
<line x1="169.1" y1="321.2" x2="165.1" y2="328.1" stroke="rgb(0,0,0)"  stroke-width="1.0"/>
<polygon points="319.028931 207.530789 328.513555 232.913498 320.688374 234.576792 " stroke-width="1.000000" fill="rgb(0,0,0)"  stroke="rgb(0,0,0)" />
<polygon points="448.867317 153.806593 463.422041 176.662665 456.113678 179.916558 " stroke-width="1.000000" fill="rgb(0,0,0)"  stroke="rgb(0,0,0)" />
<polygon points="109.282032 331.261323 113.282032 358.061323 105.282032 358.061323 " stroke-width="1.000000" fill="rgb(0,0,0)"  stroke="rgb(0,0,0)" />
<polygon points="143.923048 191.261323 122.713568 208.125425 118.713568 201.197222 " stroke-width="1.000000" fill="rgb(0,0,0)"  stroke="rgb(0,0,0)" />
<polygon points="345.794156 177.804996 372.865456 176.628271 372.029229 184.584447 " stroke-width="1.000000" fill="rgb(0,0,0)"  stroke="rgb(0,0,0)" />
<polygon points="409.086442 149.625455 396.569865 173.658251 390.097729 168.955969 " stroke-width="1.000000" fill="rgb(0,0,0)"  stroke="rgb(0,0,0)" />
<line x1="477.8" y1="121.2" x2="477.6" y2="122.8" stroke="rgb(0,0,0)"  stroke-width="1.0"/>
<line x1="482.1" y1="121.0" x2="481.8" y2="123.9" stroke="rgb(0,0,0)"  stroke-width="1.0"/>
<line x1="486.5" y1="120.8" x2="486.0" y2="125.0" stroke="rgb(0,0,0)"  stroke-width="1.0"/>
<line x1="490.8" y1="120.6" x2="490.2" y2="126.1" stroke="rgb(0,0,0)"  stroke-width="1.0"/>
<line x1="495.1" y1="120.5" x2="494.4" y2="127.1" stroke="rgb(0,0,0)"  stroke-width="1.0"/>
<line x1="499.5" y1="120.3" x2="498.6" y2="128.2" stroke="rgb(0,0,0)"  stroke-width="1.0"/>
<line x1="70.4" y1="314.6" x2="69.6" y2="313.2" stroke="rgb(0,0,0)"  stroke-width="1.0"/>
<line x1="67.0" y1="317.3" x2="65.6" y2="314.8" stroke="rgb(0,0,0)"  stroke-width="1.0"/>
<line x1="63.6" y1="320.0" x2="61.5" y2="316.4" stroke="rgb(0,0,0)"  stroke-width="1.0"/>
<line x1="60.2" y1="322.7" x2="57.5" y2="318.0" stroke="rgb(0,0,0)"  stroke-width="1.0"/>
<line x1="56.8" y1="325.4" x2="53.5" y2="319.6" stroke="rgb(0,0,0)"  stroke-width="1.0"/>
<line x1="53.4" y1="328.1" x2="49.4" y2="321.2" stroke="rgb(0,0,0)"  stroke-width="1.0"/>
<line x1="328.3" y1="135.5" x2="329.8" y2="136.2" stroke="rgb(0,0,0)"  stroke-width="1.0"/>
<line x1="330.3" y1="129.4" x2="333.0" y2="130.6" stroke="rgb(0,0,0)"  stroke-width="1.0"/>
<line x1="332.4" y1="123.3" x2="336.2" y2="125.0" stroke="rgb(0,0,0)"  stroke-width="1.0"/>
<line x1="334.4" y1="117.2" x2="339.3" y2="119.4" stroke="rgb(0,0,0)"  stroke-width="1.0"/>
<line x1="336.4" y1="111.1" x2="342.5" y2="113.8" stroke="rgb(0,0,0)"  stroke-width="1.0"/>
<line x1="338.4" y1="105.0" x2="345.7" y2="108.2" stroke="rgb(0,0,0)"  stroke-width="1.0"/>
<polygon points="456.109262 84.904095 468.625838 60.871299 475.097974 65.573581 " stroke-width="1.000000" fill="rgb(0,0,0)"  stroke="rgb(0,0,0)" />
<polygon points="74.641016 271.261323 38.000000 254.725425 42.000000 247.797222 " stroke-width="1.000000" fill="rgb(0,0,0)"  stroke="rgb(0,0,0)" />
<polygon points="213.205081 191.261323 238.414562 201.197222 234.414562 208.125425 " stroke-width="1.000000" fill="rgb(0,0,0)"  stroke="rgb(0,0,0)" />
<line x1="278.2" y1="194.6" x2="277.4" y2="193.2" stroke="rgb(0,0,0)"  stroke-width="1.0"/>
<line x1="274.9" y1="197.3" x2="273.4" y2="194.8" stroke="rgb(0,0,0)"  stroke-width="1.0"/>
<line x1="271.5" y1="200.0" x2="269.4" y2="196.4" stroke="rgb(0,0,0)"  stroke-width="1.0"/>
<line x1="268.1" y1="202.7" x2="265.3" y2="198.0" stroke="rgb(0,0,0)"  stroke-width="1.0"/>
<line x1="264.7" y1="205.4" x2="261.3" y2="199.6" stroke="rgb(0,0,0)"  stroke-width="1.0"/>
<line x1="261.3" y1="208.1" x2="257.3" y2="201.2" stroke="rgb(0,0,0)"  stroke-width="1.0"/>
<line x1="342.1" y1="106.6" x2="326.2" y2="84.8" stroke="rgb(0,0,0)"  stroke-width="1.0"/>
<polygon points="416.328386 80.722957 396.404738 45.808085 403.713102 42.554192 " stroke-width="1.000000" fill="rgb(0,0,0)"  stroke="rgb(0,0,0)" />
<line x1="40.0" y1="251.3" x2="40.0" y2="224.3" stroke="rgb(0,0,0)"  stroke-width="1.0"/>
<line x1="217.4" y1="147.9" x2="218.2" y2="149.3" stroke="rgb(0,0,0)"  stroke-width="1.0"/>
<line x1="220.8" y1="145.2" x2="222.3" y2="147.7" stroke="rgb(0,0,0)"  stroke-width="1.0"/>
<line x1="224.2" y1="142.5" x2="226.3" y2="146.1" stroke="rgb(0,0,0)"  stroke-width="1.0"/>
<line x1="227.6" y1="139.8" x2="230.3" y2="144.5" stroke="rgb(0,0,0)"  stroke-width="1.0"/>
<line x1="231.0" y1="137.1" x2="234.4" y2="142.9" stroke="rgb(0,0,0)"  stroke-width="1.0"/>
<line x1="234.4" y1="134.4" x2="238.4" y2="141.3" stroke="rgb(0,0,0)"  stroke-width="1.0"/>
<line x1="400.1" y1="44.2" x2="373.2" y2="41.4" stroke="rgb(0,0,0)"  stroke-width="1.0"/>
<line x1="282.5" y1="191.3" x2="319.0" y2="207.5" stroke="rgb(0,0,0)"  stroke-width="1.0"/>
<line x1="319.0" y1="207.5" x2="345.8" y2="177.8" stroke="rgb(0,0,0)"  stroke-width="1.0"/>
<line x1="345.8" y1="177.8" x2="325.8" y2="143.2" stroke="rgb(0,0,0)"  stroke-width="1.0"/>
<line x1="325.8" y1="143.2" x2="299.4" y2="148.8" stroke="rgb(0,0,0)"  stroke-width="1.0"/>
<line x1="285.3" y1="164.4" x2="282.5" y2="191.3" stroke="rgb(0,0,0)"  stroke-width="1.0"/>
<line x1="143.9" y1="151.3" x2="178.6" y2="131.3" stroke="rgb(0,0,0)"  stroke-width="1.0"/>
<line x1="178.6" y1="131.3" x2="213.2" y2="151.3" stroke="rgb(0,0,0)"  stroke-width="1.0"/>
<line x1="213.2" y1="151.3" x2="213.2" y2="191.3" stroke="rgb(0,0,0)"  stroke-width="1.0"/>
<line x1="213.2" y1="191.3" x2="178.6" y2="211.3" stroke="rgb(0,0,0)"  stroke-width="1.0"/>
<line x1="178.6" y1="211.3" x2="143.9" y2="191.3" stroke="rgb(0,0,0)"  stroke-width="1.0"/>
<line x1="143.9" y1="191.3" x2="143.9" y2="151.3" stroke="rgb(0,0,0)"  stroke-width="1.0"/>
<line x1="143.9" y1="271.3" x2="143.9" y2="311.3" stroke="rgb(0,0,0)"  stroke-width="1.0"/>
<line x1="143.9" y1="311.3" x2="109.3" y2="331.3" stroke="rgb(0,0,0)"  stroke-width="1.0"/>
<line x1="109.3" y1="331.3" x2="74.6" y2="311.3" stroke="rgb(0,0,0)"  stroke-width="1.0"/>
<line x1="74.6" y1="311.3" x2="74.6" y2="271.3" stroke="rgb(0,0,0)"  stroke-width="1.0"/>
<line x1="74.6" y1="271.3" x2="98.0" y2="257.8" stroke="rgb(0,0,0)"  stroke-width="1.0"/>
<line x1="120.5" y1="257.8" x2="143.9" y2="271.3" stroke="rgb(0,0,0)"  stroke-width="1.0"/>
<line x1="409.1" y1="149.6" x2="448.9" y2="153.8" stroke="rgb(0,0,0)"  stroke-width="1.0"/>
<line x1="448.9" y1="153.8" x2="472.4" y2="121.4" stroke="rgb(0,0,0)"  stroke-width="1.0"/>
<line x1="472.4" y1="121.4" x2="456.1" y2="84.9" stroke="rgb(0,0,0)"  stroke-width="1.0"/>
<line x1="456.1" y1="84.9" x2="416.3" y2="80.7" stroke="rgb(0,0,0)"  stroke-width="1.0"/>
<line x1="416.3" y1="80.7" x2="400.5" y2="102.6" stroke="rgb(0,0,0)"  stroke-width="1.0"/>
<line x1="398.1" y1="125.0" x2="409.1" y2="149.6" stroke="rgb(0,0,0)"  stroke-width="1.0"/>
<text x="172.564065" y="259.261323" fill="rgb(255,12,12)"  stroke="rgb(255,12,12)" stroke-width="1" font-size="16" >O</text>
<text x="174.564065" y="99.261323" fill="rgb(12,12,255)"  stroke="rgb(12,12,255)" stroke-width="1" font-size="16" >NH</text>
<text x="198.564065" y="102.941323" fill="rgb(12,12,255)"  stroke="rgb(12,12,255)" stroke-width="1" font-size="13" >2</text>
<text x="174.564065" y="339.261323" fill="rgb(12,12,255)"  stroke="rgb(12,12,255)" stroke-width="1" font-size="16" >NH</text>
<text x="198.564065" y="342.941323" fill="rgb(12,12,255)"  stroke="rgb(12,12,255)" stroke-width="1" font-size="13" >2</text>
<text x="321.345399" y="254.656693" fill="rgb(255,12,12)"  stroke="rgb(255,12,12)" stroke-width="1" font-size="16" >OH</text>
<text x="461.136783" y="198.348412" fill="rgb(12,12,255)"  stroke="rgb(12,12,255)" stroke-width="1" font-size="16" >NH</text>
<text x="485.136783" y="202.028412" fill="rgb(12,12,255)"  stroke="rgb(12,12,255)" stroke-width="1" font-size="13" >2</text>
<text x="103.282032" y="379.261323" fill="rgb(255,12,12)"  stroke="rgb(255,12,12)" stroke-width="1" font-size="16" >OH</text>
<text x="83.282032" y="219.261323" fill="rgb(12,12,255)"  stroke="rgb(12,12,255)" stroke-width="1" font-size="16" >H</text>
<text x="95.282032" y="222.941323" fill="rgb(12,12,255)"  stroke="rgb(12,12,255)" stroke-width="1" font-size="13" >2</text>
<text x="101.782032" y="219.261323" fill="rgb(12,12,255)"  stroke="rgb(12,12,255)" stroke-width="1" font-size="16" >N</text>
<text x="379.575031" y="189.986135" fill="rgb(255,12,12)"  stroke="rgb(255,12,12)" stroke-width="1" font-size="16" >O</text>
<text x="506.159603" y="133.627052" fill="rgb(255,12,12)"  stroke="rgb(255,12,12)" stroke-width="1" font-size="16" >OH</text>
<text x="22.000000" y="339.261323" fill="rgb(255,12,12)"  stroke="rgb(255,12,12)" stroke-width="1" font-size="16" >HO</text>
<text x="280.668252" y="159.480448" fill="rgb(255,12,12)"  stroke="rgb(255,12,12)" stroke-width="1" font-size="16" >O</text>
<text x="473.620672" y="60.543416" fill="rgb(255,12,12)"  stroke="rgb(255,12,12)" stroke-width="1" font-size="16" >OH</text>
<text x="103.282032" y="259.261323" fill="rgb(255,12,12)"  stroke="rgb(255,12,12)" stroke-width="1" font-size="16" >O</text>
<text x="241.846097" y="219.261323" fill="rgb(255,12,12)"  stroke="rgb(255,12,12)" stroke-width="1" font-size="16" >O</text>
<text x="300.552211" y="82.261482" fill="rgb(255,12,12)"  stroke="rgb(255,12,12)" stroke-width="1" font-size="16" >HO</text>
<text x="386.816976" y="121.083637" fill="rgb(255,12,12)"  stroke="rgb(255,12,12)" stroke-width="1" font-size="16" >O</text>
<text x="34.000000" y="219.261323" fill="rgb(255,12,12)"  stroke="rgb(255,12,12)" stroke-width="1" font-size="16" >OH</text>
<text x="241.846097" y="139.261323" fill="rgb(255,12,12)"  stroke="rgb(255,12,12)" stroke-width="1" font-size="16" >OH</text>
<text x="334.278044" y="48.000000" fill="rgb(12,12,255)"  stroke="rgb(12,12,255)" stroke-width="1" font-size="16" >H</text>
<text x="346.278044" y="51.680000" fill="rgb(12,12,255)"  stroke="rgb(12,12,255)" stroke-width="1" font-size="13" >2</text>
<text x="352.778044" y="48.000000" fill="rgb(12,12,255)"  stroke="rgb(12,12,255)" stroke-width="1" font-size="16" >N</text>
<text font-size="18.000000" fill ="black" font-family="sans-serif"
x="10.000000" y="20.000000" ></text>
<title> - OBDepict</title>
</svg>
