<?xml version="1.0"?>
<svg xmlns="http://www.w3.org/2000/svg"
xmlns:xlink="http://www.w3.org/1999/xlink" xmlns:cml="http://www.xml-cml.org/schema" width="541.187" height="446.085" x="0" y="0" font-family="sans-serif" stroke="rgb(0,0,0)" stroke-width="1"  stroke-linecap="round">
<rect x="0%" y="0%" width="100%" height="100%" stroke-width="0" fill="rgb(255,255,255)"  />
<line x1="143.9" y1="160.0" x2="167.3" y2="173.5" stroke="rgb(0,0,0)"  stroke-width="1.0"/>
<line x1="189.8" y1="173.5" x2="213.2" y2="160.0" stroke="rgb(0,0,0)"  stroke-width="1.0"/>
<line x1="109.3" y1="180.0" x2="109.3" y2="207.0" stroke="rgb(0,0,0)"  stroke-width="1.0"/>
<line x1="74.6" y1="160.0" x2="51.3" y2="173.5" stroke="rgb(0,0,0)"  stroke-width="1.0"/>
<line x1="74.6" y1="120.0" x2="51.3" y2="106.5" stroke="rgb(0,0,0)"  stroke-width="1.0"/>
<line x1="109.3" y1="100.0" x2="109.3" y2="60.0" stroke="rgb(0,0,0)"  stroke-width="1.0"/>
<line x1="109.3" y1="60.0" x2="85.9" y2="46.5" stroke="rgb(0,0,0)"  stroke-width="1.0"/>
<line x1="282.5" y1="120.0" x2="305.9" y2="106.5" stroke="rgb(0,0,0)"  stroke-width="1.0"/>
<line x1="213.2" y1="120.0" x2="189.8" y2="106.5" stroke="rgb(0,0,0)"  stroke-width="1.0"/>
<line x1="247.8" y1="180.0" x2="247.8" y2="207.0" stroke="rgb(0,0,0)"  stroke-width="1.0"/>
<line x1="259.1" y1="226.5" x2="282.5" y2="240.0" stroke="rgb(0,0,0)"  stroke-width="1.0"/>
<line x1="282.5" y1="160.0" x2="305.9" y2="173.5" stroke="rgb(0,0,0)"  stroke-width="1.0"/>
<line x1="286.7" y1="279.8" x2="266.6" y2="297.8" stroke="rgb(0,0,0)"  stroke-width="1.0"/>
<line x1="325.8" y1="288.1" x2="336.8" y2="312.8" stroke="rgb(0,0,0)"  stroke-width="1.0"/>
<line x1="355.0" y1="326.0" x2="381.8" y2="328.8" stroke="rgb(0,0,0)"  stroke-width="1.0"/>
<line x1="345.8" y1="253.5" x2="385.6" y2="249.3" stroke="rgb(0,0,0)"  stroke-width="1.0"/>
<line x1="385.6" y1="249.3" x2="396.6" y2="224.6" stroke="rgb(0,0,0)"  stroke-width="1.0"/>
<line x1="398.1" y1="365.4" x2="382.2" y2="387.2" stroke="rgb(0,0,0)"  stroke-width="1.0"/>
<line x1="437.9" y1="369.5" x2="448.9" y2="394.2" stroke="rgb(0,0,0)"  stroke-width="1.0"/>
<line x1="461.4" y1="337.2" x2="488.3" y2="340.0" stroke="rgb(0,0,0)"  stroke-width="1.0"/>
<line x1="445.1" y1="300.6" x2="468.6" y2="268.3" stroke="rgb(0,0,0)"  stroke-width="1.0"/>
<line x1="468.6" y1="268.3" x2="457.7" y2="243.6" stroke="rgb(0,0,0)"  stroke-width="1.0"/>
<line x1="282.5" y1="240.0" x2="286.7" y2="279.8" stroke="rgb(0,0,0)"  stroke-width="1.0"/>
<line x1="286.7" y1="279.8" x2="325.8" y2="288.1" stroke="rgb(0,0,0)"  stroke-width="1.0"/>
<line x1="325.8" y1="288.1" x2="345.8" y2="253.5" stroke="rgb(0,0,0)"  stroke-width="1.0"/>
<line x1="345.8" y1="253.5" x2="327.7" y2="233.4" stroke="rgb(0,0,0)"  stroke-width="1.0"/>
<line x1="307.2" y1="229.0" x2="282.5" y2="240.0" stroke="rgb(0,0,0)"  stroke-width="1.0"/>
<line x1="143.9" y1="160.0" x2="109.3" y2="180.0" stroke="rgb(0,0,0)"  stroke-width="1.0"/>
<line x1="109.3" y1="180.0" x2="74.6" y2="160.0" stroke="rgb(0,0,0)"  stroke-width="1.0"/>
<line x1="74.6" y1="160.0" x2="74.6" y2="120.0" stroke="rgb(0,0,0)"  stroke-width="1.0"/>
<line x1="74.6" y1="120.0" x2="109.3" y2="100.0" stroke="rgb(0,0,0)"  stroke-width="1.0"/>
<line x1="109.3" y1="100.0" x2="132.7" y2="113.5" stroke="rgb(0,0,0)"  stroke-width="1.0"/>
<line x1="143.9" y1="133.0" x2="143.9" y2="160.0" stroke="rgb(0,0,0)"  stroke-width="1.0"/>
<line x1="247.8" y1="100.0" x2="282.5" y2="120.0" stroke="rgb(0,0,0)"  stroke-width="1.0"/>
<line x1="282.5" y1="120.0" x2="282.5" y2="160.0" stroke="rgb(0,0,0)"  stroke-width="1.0"/>
<line x1="282.5" y1="160.0" x2="247.8" y2="180.0" stroke="rgb(0,0,0)"  stroke-width="1.0"/>
<line x1="247.8" y1="180.0" x2="213.2" y2="160.0" stroke="rgb(0,0,0)"  stroke-width="1.0"/>
<line x1="213.2" y1="160.0" x2="213.2" y2="120.0" stroke="rgb(0,0,0)"  stroke-width="1.0"/>
<line x1="213.2" y1="120.0" x2="247.8" y2="100.0" stroke="rgb(0,0,0)"  stroke-width="1.0"/>
<line x1="381.8" y1="328.8" x2="398.1" y2="365.4" stroke="rgb(0,0,0)"  stroke-width="1.0"/>
<line x1="398.1" y1="365.4" x2="437.9" y2="369.5" stroke="rgb(0,0,0)"  stroke-width="1.0"/>
<line x1="437.9" y1="369.5" x2="461.4" y2="337.2" stroke="rgb(0,0,0)"  stroke-width="1.0"/>
<line x1="461.4" y1="337.2" x2="445.1" y2="300.6" stroke="rgb(0,0,0)"  stroke-width="1.0"/>
<line x1="445.1" y1="300.6" x2="418.3" y2="297.8" stroke="rgb(0,0,0)"  stroke-width="1.0"/>
<line x1="397.7" y1="307.0" x2="381.8" y2="328.8" stroke="rgb(0,0,0)"  stroke-width="1.0"/>
<text x="172.564065" y="188.000000" fill="rgb(255,12,12)"  stroke="rgb(255,12,12)" stroke-width="1" font-size="16" >O</text>
<text x="105.282032" y="228.000000" fill="rgb(12,12,255)"  stroke="rgb(12,12,255)" stroke-width="1" font-size="16" >NH</text>
<text x="129.282032" y="231.680000" fill="rgb(12,12,255)"  stroke="rgb(12,12,255)" stroke-width="1" font-size="13" >2</text>
<text x="22.000000" y="188.000000" fill="rgb(255,12,12)"  stroke="rgb(255,12,12)" stroke-width="1" font-size="16" >HO</text>
<text x="22.000000" y="108.000000" fill="rgb(255,12,12)"  stroke="rgb(255,12,12)" stroke-width="1" font-size="16" >HO</text>
<text x="137.923048" y="128.000000" fill="rgb(255,12,12)"  stroke="rgb(255,12,12)" stroke-width="1" font-size="16" >O</text>
<text x="56.641016" y="48.000000" fill="rgb(255,12,12)"  stroke="rgb(255,12,12)" stroke-width="1" font-size="16" >HO</text>
<text x="313.128129" y="108.000000" fill="rgb(12,12,255)"  stroke="rgb(12,12,255)" stroke-width="1" font-size="16" >NH</text>
<text x="337.128129" y="111.680000" fill="rgb(12,12,255)"  stroke="rgb(12,12,255)" stroke-width="1" font-size="13" >2</text>
<text x="152.564065" y="108.000000" fill="rgb(12,12,255)"  stroke="rgb(12,12,255)" stroke-width="1" font-size="16" >H</text>
<text x="164.564065" y="111.680000" fill="rgb(12,12,255)"  stroke="rgb(12,12,255)" stroke-width="1" font-size="13" >2</text>
<text x="171.064065" y="108.000000" fill="rgb(12,12,255)"  stroke="rgb(12,12,255)" stroke-width="1" font-size="16" >N</text>
<text x="241.846097" y="228.000000" fill="rgb(255,12,12)"  stroke="rgb(255,12,12)" stroke-width="1" font-size="16" >O</text>
<text x="311.128129" y="188.000000" fill="rgb(255,12,12)"  stroke="rgb(255,12,12)" stroke-width="1" font-size="16" >OH</text>
<text x="238.942459" y="314.546100" fill="rgb(255,12,12)"  stroke="rgb(255,12,12)" stroke-width="1" font-size="16" >HO</text>
<text x="336.063621" y="332.639162" fill="rgb(255,12,12)"  stroke="rgb(255,12,12)" stroke-width="1" font-size="16" >O</text>
<text x="313.028931" y="231.730534" fill="rgb(255,12,12)"  stroke="rgb(255,12,12)" stroke-width="1" font-size="16" >O</text>
<text x="395.844497" y="220.733370" fill="rgb(255,12,12)"  stroke="rgb(255,12,12)" stroke-width="1" font-size="16" >OH</text>
<text x="348.602553" y="405.722798" fill="rgb(12,12,255)"  stroke="rgb(12,12,255)" stroke-width="1" font-size="16" >H</text>
<text x="360.602553" y="409.402798" fill="rgb(12,12,255)"  stroke="rgb(12,12,255)" stroke-width="1" font-size="13" >2</text>
<text x="367.102553" y="405.722798" fill="rgb(12,12,255)"  stroke="rgb(12,12,255)" stroke-width="1" font-size="16" >N</text>
<text x="448.164304" y="414.085075" fill="rgb(255,12,12)"  stroke="rgb(255,12,12)" stroke-width="1" font-size="16" >OH</text>
<text x="495.187125" y="349.363716" fill="rgb(255,12,12)"  stroke="rgb(255,12,12)" stroke-width="1" font-size="16" >OH</text>
<text x="399.355907" y="304.459621" fill="rgb(255,12,12)"  stroke="rgb(255,12,12)" stroke-width="1" font-size="16" >O</text>
<text x="426.378727" y="239.738261" fill="rgb(12,12,255)"  stroke="rgb(12,12,255)" stroke-width="1" font-size="16" >H</text>
<text x="438.378727" y="243.418261" fill="rgb(12,12,255)"  stroke="rgb(12,12,255)" stroke-width="1" font-size="13" >2</text>
<text x="444.878727" y="239.738261" fill="rgb(12,12,255)"  stroke="rgb(12,12,255)" stroke-width="1" font-size="16" >N</text>
<text font-size="18.000000" fill ="black" font-family="sans-serif"
x="10.000000" y="20.000000" ></text>
<title> - OBDepict</title>
</svg>
